<svg version="1.1" viewBox="0.0 0.0 960.0 540.0" fill="none" stroke="none" stroke-linecap="square" stroke-miterlimit="10" xmlns:xlink="http://www.w3.org/1999/xlink" xmlns="http://www.w3.org/2000/svg"><clipPath id="g35a5229fb0_0_735.0"><path d="m0 0l960.0 0l0 540.0l-960.0 0l0 -540.0z" clip-rule="nonzero"/></clipPath><g clip-path="url(#g35a5229fb0_0_735.0)"><path fill="#ffffff" d="m0 0l960.0 0l0 540.0l-960.0 0z" fill-rule="evenodd"/><path fill="#000000" fill-opacity="0.0" d="m228.8819 0l562.77167 0l0 66.3937l-562.77167 0z" fill-rule="evenodd"/><path fill="#000000" d="m250.58502 14.680626l0 2.578125l-7.703125 0l0 4.8125l6.0625 0l0 2.484375l-6.0625 0l0 4.90625l7.703125 0l0 2.578125l-10.953125 0l0 -17.359375l10.953125 0zm5.771332 -0.46875l0 17.828125l-2.9531097 0l0 -17.828125l2.9531097 0zm7.979828 21.84375l0 -16.328125l1.8125 0q0.296875 0 0.5 0.140625q0.203125 0.125 0.265625 0.40625l0.234375 1.140625q0.75 -0.859375 1.703125 -1.390625q0.96875 -0.53125 2.265625 -0.53125q1.015625 0 1.84375 0.421875q0.84375 0.421875 1.4375 1.21875q0.609375 0.796875 0.9375 1.96875q0.328125 1.171875 0.328125 2.6875q0 1.375 -0.375 2.5625q-0.359375 1.171875 -1.0625 2.03125q-0.6875 0.859375 -1.671875 1.359375q-0.96875 0.484375 -2.171875 0.484375q-1.046875 0 -1.78125 -0.3125q-0.71875 -0.328125 -1.296875 -0.890625l0 5.03125l-2.96875 0zm5.765625 -14.21875q-0.921875 0 -1.578125 0.390625q-0.65625 0.390625 -1.21875 1.09375l0 5.53125q0.5 0.625 1.09375 0.875q0.59375 0.234375 1.28125 0.234375q0.671875 0 1.21875 -0.25q0.546875 -0.25 0.921875 -0.765625q0.375 -0.515625 0.578125 -1.296875q0.21875 -0.796875 0.21875 -1.859375q0 -1.078125 -0.1875 -1.828125q-0.171875 -0.75 -0.5 -1.21875q-0.3125 -0.46875 -0.78125 -0.6875q-0.453125 -0.21875 -1.046875 -0.21875zm7.806488 10.203125l0 -12.3125l1.75 0q0.453125 0 0.625 0.171875q0.1875 0.171875 0.25 0.578125l0.171875 1.484375q0.671875 -1.140625 1.546875 -1.796875q0.890625 -0.671875 2.0 -0.671875q0.90625 0 1.515625 0.421875l-0.390625 2.21875q-0.03125 0.21875 -0.15625 0.3125q-0.125 0.09375 -0.328125 0.09375q-0.171875 0 -0.484375 -0.078125q-0.3125 -0.09375 -0.828125 -0.09375q-0.921875 0 -1.59375 0.515625q-0.65625 0.5 -1.109375 1.484375l0 7.671875l-2.96875 0zm15.069672 -12.5q1.375 0 2.5 0.453125q1.125 0.4375 1.90625 1.25q0.796875 0.8125 1.21875 2.0q0.4375 1.171875 0.4375 2.609375q0 1.46875 -0.4375 2.65625q-0.421875 1.171875 -1.21875 2.0q-0.78125 0.828125 -1.90625 1.28125q-1.125 0.4375 -2.5 0.4375q-1.390625 0 -2.515625 -0.4375q-1.125 -0.453125 -1.921875 -1.28125q-0.796875 -0.828125 -1.234375 -2.0q-0.4375 -1.1875 -0.4375 -2.65625q0 -1.4375 0.4375 -2.609375q0.4375 -1.1875 1.234375 -2.0q0.796875 -0.8125 1.921875 -1.25q1.125 -0.453125 2.515625 -0.453125zm0 10.40625q1.53125 0 2.265625 -1.03125q0.75 -1.03125 0.75 -3.03125q0 -1.984375 -0.75 -3.03125q-0.734375 -1.046875 -2.265625 -1.046875q-1.5625 0 -2.3125 1.046875q-0.734375 1.046875 -0.734375 3.03125q0 1.984375 0.734375 3.03125q0.75 1.03125 2.3125 1.03125zm8.425354 2.09375l0 -17.828125l2.953125 0l0 7.03125q0.734375 -0.78125 1.65625 -1.234375q0.921875 -0.46875 2.171875 -0.46875q1.0 0 1.828125 0.421875q0.84375 0.40625 1.4375 1.203125q0.609375 0.78125 0.9375 1.953125q0.34375 1.15625 0.34375 2.671875q0 1.375 -0.375 2.5625q-0.375 1.171875 -1.0625 2.03125q-0.6875 0.859375 -1.671875 1.359375q-0.96875 0.484375 -2.1875 0.484375q-0.5625 0 -1.03125 -0.125q-0.46875 -0.109375 -0.859375 -0.3125q-0.375 -0.203125 -0.703125 -0.5q-0.328125 -0.296875 -0.640625 -0.65625l-0.125 0.828125q-0.078125 0.3125 -0.25 0.453125q-0.171875 0.125 -0.46875 0.125l-1.953125 0zm5.75 -10.203125q-0.921875 0 -1.578125 0.390625q-0.65625 0.390625 -1.21875 1.09375l0 5.53125q0.515625 0.625 1.109375 0.875q0.59375 0.234375 1.28125 0.234375q0.671875 0 1.203125 -0.25q0.546875 -0.25 0.921875 -0.765625q0.390625 -0.515625 0.59375 -1.296875q0.203125 -0.796875 0.203125 -1.859375q0 -1.078125 -0.171875 -1.828125q-0.171875 -0.75 -0.5 -1.21875q-0.328125 -0.46875 -0.796875 -0.6875q-0.453125 -0.21875 -1.046875 -0.21875zm11.039459 -7.625l0 17.828125l-2.953125 0l0 -17.828125l2.953125 0zm8.441559 5.328125q1.171875 0 2.140625 0.375q0.984375 0.359375 1.6875 1.078125q0.703125 0.71875 1.09375 1.765625q0.40625 1.03125 0.40625 2.359375q0 0.328125 -0.03125 0.5625q-0.03125 0.21875 -0.109375 0.34375q-0.078125 0.125 -0.21875 0.1875q-0.125 0.046875 -0.328125 0.046875l-7.609375 0q0.140625 1.890625 1.015625 2.78125q0.890625 0.890625 2.359375 0.890625q0.71875 0 1.234375 -0.171875q0.53125 -0.171875 0.921875 -0.375q0.390625 -0.203125 0.6875 -0.359375q0.296875 -0.171875 0.5625 -0.171875q0.1875 0 0.3125 0.078125q0.140625 0.0625 0.234375 0.1875l0.859375 1.078125q-0.484375 0.578125 -1.109375 0.96875q-0.609375 0.390625 -1.28125 0.625q-0.65625 0.234375 -1.34375 0.328125q-0.6875 0.109375 -1.34375 0.109375q-1.28125 0 -2.390625 -0.421875q-1.09375 -0.4375 -1.921875 -1.265625q-0.8125 -0.84375 -1.28125 -2.0625q-0.46875 -1.234375 -0.46875 -2.859375q0 -1.265625 0.40625 -2.375q0.421875 -1.109375 1.171875 -1.921875q0.765625 -0.828125 1.859375 -1.296875q1.109375 -0.484375 2.484375 -0.484375zm0.0625 2.125q-1.296875 0 -2.03125 0.734375q-0.734375 0.71875 -0.9375 2.0625l5.578125 0q0 -0.5625 -0.15625 -1.078125q-0.15625 -0.515625 -0.484375 -0.890625q-0.328125 -0.390625 -0.828125 -0.609375q-0.484375 -0.21875 -1.140625 -0.21875zm7.6718445 10.375l0 -12.3125l1.8125 0q0.578125 0 0.765625 0.546875l0.1875 0.90625q0.328125 -0.359375 0.671875 -0.65625q0.359375 -0.296875 0.765625 -0.515625q0.40625 -0.21875 0.859375 -0.34375q0.46875 -0.125 1.015625 -0.125q1.15625 0 1.90625 0.625q0.75 0.625 1.125 1.671875q0.296875 -0.609375 0.71875 -1.046875q0.4375 -0.4375 0.953125 -0.703125q0.515625 -0.28125 1.09375 -0.40625q0.59375 -0.140625 1.171875 -0.140625q1.015625 0 1.8125 0.3125q0.796875 0.3125 1.328125 0.90625q0.546875 0.59375 0.828125 1.46875q0.28125 0.859375 0.28125 1.96875l0 7.84375l-2.96875 0l0 -7.84375q0 -1.171875 -0.515625 -1.765625q-0.515625 -0.59375 -1.5 -0.59375q-0.46875 0 -0.859375 0.15625q-0.390625 0.15625 -0.6875 0.453125q-0.28125 0.296875 -0.453125 0.75q-0.171875 0.4375 -0.171875 1.0l0 7.84375l-2.96875 0l0 -7.84375q0 -1.234375 -0.5 -1.796875q-0.5 -0.5625 -1.46875 -0.5625q-0.640625 0 -1.203125 0.328125q-0.546875 0.3125 -1.03125 0.859375l0 9.015625l-2.96875 0zm29.86438 0l-1.328125 0q-0.421875 0 -0.671875 -0.125q-0.234375 -0.125 -0.359375 -0.515625l-0.265625 -0.875q-0.46875 0.421875 -0.921875 0.75q-0.4375 0.3125 -0.921875 0.53125q-0.484375 0.203125 -1.03125 0.3125q-0.53125 0.109375 -1.1875 0.109375q-0.78125 0 -1.4375 -0.203125q-0.65625 -0.21875 -1.140625 -0.625q-0.46875 -0.421875 -0.734375 -1.046875q-0.265625 -0.625 -0.265625 -1.453125q0 -0.703125 0.359375 -1.375q0.375 -0.6875 1.21875 -1.21875q0.859375 -0.546875 2.265625 -0.90625q1.421875 -0.375 3.53125 -0.421875l0 -0.71875q0 -1.234375 -0.53125 -1.828125q-0.515625 -0.59375 -1.515625 -0.59375q-0.71875 0 -1.203125 0.171875q-0.46875 0.171875 -0.828125 0.390625q-0.359375 0.203125 -0.65625 0.375q-0.296875 0.15625 -0.65625 0.15625q-0.296875 0 -0.515625 -0.15625q-0.21875 -0.15625 -0.34375 -0.375l-0.546875 -0.953125q2.125 -1.953125 5.125 -1.953125q1.078125 0 1.921875 0.359375q0.84375 0.359375 1.4375 0.984375q0.59375 0.625 0.890625 1.515625q0.3125 0.875 0.3125 1.90625l0 7.78125zm-5.765625 -1.84375q0.453125 0 0.84375 -0.078125q0.390625 -0.09375 0.71875 -0.265625q0.34375 -0.171875 0.65625 -0.40625q0.328125 -0.25 0.65625 -0.59375l0 -2.0625q-1.296875 0.046875 -2.171875 0.21875q-0.875 0.15625 -1.40625 0.40625q-0.515625 0.25 -0.75 0.59375q-0.21875 0.328125 -0.21875 0.734375q0 0.78125 0.46875 1.125q0.46875 0.328125 1.203125 0.328125zm21.977386 1.84375q-0.578125 0 -0.765625 -0.546875l-0.234375 -1.1875q-0.375 0.4375 -0.796875 0.796875q-0.421875 0.34375 -0.90625 0.59375q-0.484375 0.25 -1.046875 0.390625q-0.5625 0.140625 -1.203125 0.140625q-1.015625 0 -1.859375 -0.421875q-0.828125 -0.421875 -1.4375 -1.21875q-0.609375 -0.796875 -0.9375 -1.96875q-0.328125 -1.1875 -0.328125 -2.703125q0 -1.359375 0.359375 -2.53125q0.375 -1.1875 1.078125 -2.046875q0.703125 -0.859375 1.671875 -1.34375q0.96875 -0.5 2.1875 -0.5q1.03125 0 1.75 0.34375q0.734375 0.328125 1.3125 0.875l0 -6.5l2.96875 0l0 17.828125l-1.8125 0zm-3.953125 -2.171875q0.921875 0 1.5625 -0.375q0.65625 -0.390625 1.234375 -1.09375l0 -5.53125q-0.5 -0.609375 -1.09375 -0.859375q-0.59375 -0.25 -1.28125 -0.25q-0.671875 0 -1.21875 0.25q-0.546875 0.25 -0.921875 0.765625q-0.375 0.5 -0.578125 1.296875q-0.203125 0.78125 -0.203125 1.84375q0 1.078125 0.171875 1.828125q0.171875 0.75 0.484375 1.234375q0.328125 0.46875 0.796875 0.6875q0.46875 0.203125 1.046875 0.203125zm14.055084 -10.328125q1.171875 0 2.140625 0.375q0.984375 0.359375 1.6875 1.078125q0.703125 0.71875 1.09375 1.765625q0.40625 1.03125 0.40625 2.359375q0 0.328125 -0.03125 0.5625q-0.03125 0.21875 -0.109375 0.34375q-0.078125 0.125 -0.21875 0.1875q-0.125 0.046875 -0.328125 0.046875l-7.609375 0q0.140625 1.890625 1.015625 2.78125q0.890625 0.890625 2.359375 0.890625q0.71875 0 1.234375 -0.171875q0.53125 -0.171875 0.921875 -0.375q0.390625 -0.203125 0.6875 -0.359375q0.296875 -0.171875 0.5625 -0.171875q0.1875 0 0.3125 0.078125q0.140625 0.0625 0.234375 0.1875l0.859375 1.078125q-0.484375 0.578125 -1.109375 0.96875q-0.609375 0.390625 -1.28125 0.625q-0.65625 0.234375 -1.34375 0.328125q-0.6875 0.109375 -1.34375 0.109375q-1.28125 0 -2.390625 -0.421875q-1.09375 -0.4375 -1.921875 -1.265625q-0.8125 -0.84375 -1.28125 -2.0625q-0.46875 -1.234375 -0.46875 -2.859375q0 -1.265625 0.40625 -2.375q0.421875 -1.109375 1.171875 -1.921875q0.765625 -0.828125 1.859375 -1.296875q1.109375 -0.484375 2.484375 -0.484375zm0.0625 2.125q-1.296875 0 -2.03125 0.734375q-0.734375 0.71875 -0.9375 2.0625l5.578125 0q0 -0.5625 -0.15625 -1.078125q-0.15625 -0.515625 -0.484375 -0.890625q-0.328125 -0.390625 -0.828125 -0.609375q-0.484375 -0.21875 -1.140625 -0.21875zm15.460144 -7.453125l0 17.828125l-2.953125 0l0 -17.828125l2.953125 0zm13.004028 17.828125l-1.328125 0q-0.421875 0 -0.671875 -0.125q-0.234375 -0.125 -0.359375 -0.515625l-0.265625 -0.875q-0.46875 0.421875 -0.921875 0.75q-0.4375 0.3125 -0.921875 0.53125q-0.484375 0.203125 -1.03125 0.3125q-0.53125 0.109375 -1.1875 0.109375q-0.78125 0 -1.4375 -0.203125q-0.65625 -0.21875 -1.140625 -0.625q-0.46875 -0.421875 -0.734375 -1.046875q-0.265625 -0.625 -0.265625 -1.453125q0 -0.703125 0.359375 -1.375q0.375 -0.6875 1.21875 -1.21875q0.859375 -0.546875 2.265625 -0.90625q1.421875 -0.375 3.53125 -0.421875l0 -0.71875q0 -1.234375 -0.53125 -1.828125q-0.515625 -0.59375 -1.515625 -0.59375q-0.71875 0 -1.203125 0.171875q-0.46875 0.171875 -0.828125 0.390625q-0.359375 0.203125 -0.65625 0.375q-0.296875 0.15625 -0.65625 0.15625q-0.296875 0 -0.515625 -0.15625q-0.21875 -0.15625 -0.34375 -0.375l-0.546875 -0.953125q2.125 -1.953125 5.125 -1.953125q1.078125 0 1.921875 0.359375q0.84375 0.359375 1.4375 0.984375q0.59375 0.625 0.890625 1.515625q0.3125 0.875 0.3125 1.90625l0 7.78125zm-5.765625 -1.84375q0.453125 0 0.84375 -0.078125q0.390625 -0.09375 0.71875 -0.265625q0.34375 -0.171875 0.65625 -0.40625q0.328125 -0.25 0.65625 -0.59375l0 -2.0625q-1.296875 0.046875 -2.171875 0.21875q-0.875 0.15625 -1.40625 0.40625q-0.515625 0.25 -0.75 0.59375q-0.21875 0.328125 -0.21875 0.734375q0 0.78125 0.46875 1.125q0.46875 0.328125 1.203125 0.328125zm16.461761 -10.46875l0 12.3125l-2.953125 0l0 -12.3125l2.953125 0zm0.453125 -3.59375q0 0.390625 -0.15625 0.734375q-0.15625 0.328125 -0.421875 0.578125q-0.25 0.25 -0.609375 0.40625q-0.34375 0.140625 -0.734375 0.140625q-0.390625 0 -0.734375 -0.140625q-0.328125 -0.15625 -0.59375 -0.40625q-0.25 -0.25 -0.40625 -0.578125q-0.140625 -0.34375 -0.140625 -0.734375q0 -0.390625 0.140625 -0.734375q0.15625 -0.34375 0.40625 -0.59375q0.265625 -0.265625 0.59375 -0.40625q0.34375 -0.15625 0.734375 -0.15625q0.390625 0 0.734375 0.15625q0.359375 0.140625 0.609375 0.40625q0.265625 0.25 0.421875 0.59375q0.15625 0.34375 0.15625 0.734375zm2.8946533 15.90625l0 -12.3125l1.8125 0q0.578125 0 0.765625 0.546875l0.203125 0.96875q0.375 -0.390625 0.78125 -0.703125q0.421875 -0.3125 0.875 -0.53125q0.46875 -0.234375 0.984375 -0.34375q0.53125 -0.125 1.15625 -0.125q1.015625 0 1.796875 0.34375q0.78125 0.34375 1.296875 0.96875q0.515625 0.609375 0.78125 1.46875q0.28125 0.84375 0.28125 1.875l0 7.84375l-2.96875 0l0 -7.84375q0 -1.125 -0.53125 -1.734375q-0.515625 -0.625 -1.546875 -0.625q-0.78125 0 -1.453125 0.359375q-0.671875 0.34375 -1.265625 0.9375l0 8.90625l-2.96875 0zm19.383972 0l-2.6875 0l-4.890625 -12.3125l2.453125 0q0.328125 0 0.546875 0.15625q0.21875 0.15625 0.3125 0.390625l2.375 6.578125q0.203125 0.578125 0.34375 1.140625q0.140625 0.546875 0.234375 1.09375q0.109375 -0.546875 0.25 -1.09375q0.140625 -0.5625 0.359375 -1.140625l2.4375 -6.578125q0.078125 -0.234375 0.296875 -0.390625q0.21875 -0.15625 0.515625 -0.15625l2.34375 0l-4.890625 12.3125zm11.329956 -12.5q1.171875 0 2.140625 0.375q0.984375 0.359375 1.6875 1.078125q0.703125 0.71875 1.09375 1.765625q0.40625 1.03125 0.40625 2.359375q0 0.328125 -0.03125 0.5625q-0.03125 0.21875 -0.109375 0.34375q-0.078125 0.125 -0.21875 0.1875q-0.125 0.046875 -0.328125 0.046875l-7.609375 0q0.140625 1.890625 1.015625 2.78125q0.890625 0.890625 2.359375 0.890625q0.71875 0 1.234375 -0.171875q0.53125 -0.171875 0.921875 -0.375q0.390625 -0.203125 0.6875 -0.359375q0.296875 -0.171875 0.5625 -0.171875q0.1875 0 0.3125 0.078125q0.140625 0.0625 0.234375 0.1875l0.859375 1.078125q-0.484375 0.578125 -1.109375 0.96875q-0.609375 0.390625 -1.28125 0.625q-0.65625 0.234375 -1.34375 0.328125q-0.6875 0.109375 -1.34375 0.109375q-1.28125 0 -2.390625 -0.421875q-1.09375 -0.4375 -1.921875 -1.265625q-0.8125 -0.84375 -1.28125 -2.0625q-0.46875 -1.234375 -0.46875 -2.859375q0 -1.265625 0.40625 -2.375q0.421875 -1.109375 1.171875 -1.921875q0.765625 -0.828125 1.859375 -1.296875q1.109375 -0.484375 2.484375 -0.484375zm0.0625 2.125q-1.296875 0 -2.03125 0.734375q-0.734375 0.71875 -0.9375 2.0625l5.578125 0q0 -0.5625 -0.15625 -1.078125q-0.15625 -0.515625 -0.484375 -0.890625q-0.328125 -0.390625 -0.828125 -0.609375q-0.484375 -0.21875 -1.140625 -0.21875zm7.6718445 10.375l0 -12.3125l1.75 0q0.453125 0 0.625 0.171875q0.1875 0.171875 0.25 0.578125l0.171875 1.484375q0.671875 -1.140625 1.546875 -1.796875q0.890625 -0.671875 2.0 -0.671875q0.90625 0 1.515625 0.421875l-0.390625 2.21875q-0.03125 0.21875 -0.15625 0.3125q-0.125 0.09375 -0.328125 0.09375q-0.171875 0 -0.484375 -0.078125q-0.3125 -0.09375 -0.828125 -0.09375q-0.921875 0 -1.59375 0.515625q-0.65625 0.5 -1.109375 1.484375l0 7.671875l-2.96875 0zm17.116577 -9.90625q-0.125 0.1875 -0.25 0.265625q-0.125 0.078125 -0.34375 0.078125q-0.203125 0 -0.453125 -0.109375q-0.25 -0.125 -0.578125 -0.28125q-0.3125 -0.15625 -0.734375 -0.265625q-0.40625 -0.125 -0.96875 -0.125q-0.875 0 -1.390625 0.375q-0.5 0.375 -0.5 0.96875q0 0.390625 0.25 0.671875q0.265625 0.265625 0.6875 0.46875q0.4375 0.203125 0.96875 0.375q0.546875 0.15625 1.109375 0.34375q0.5625 0.1875 1.09375 0.4375q0.546875 0.25 0.96875 0.625q0.4375 0.375 0.6875 0.90625q0.265625 0.53125 0.265625 1.265625q0 0.890625 -0.328125 1.640625q-0.328125 0.75 -0.953125 1.296875q-0.625 0.546875 -1.546875 0.859375q-0.90625 0.296875 -2.09375 0.296875q-0.640625 0 -1.25 -0.109375q-0.609375 -0.109375 -1.171875 -0.3125q-0.546875 -0.203125 -1.03125 -0.484375q-0.46875 -0.28125 -0.828125 -0.59375l0.6875 -1.140625q0.125 -0.203125 0.3125 -0.3125q0.1875 -0.109375 0.453125 -0.109375q0.28125 0 0.515625 0.15625q0.25 0.15625 0.578125 0.34375q0.328125 0.171875 0.765625 0.328125q0.4375 0.15625 1.109375 0.15625q0.53125 0 0.90625 -0.125q0.375 -0.125 0.625 -0.328125q0.25 -0.203125 0.359375 -0.46875q0.109375 -0.265625 0.109375 -0.5625q0 -0.421875 -0.265625 -0.703125q-0.25 -0.28125 -0.671875 -0.484375q-0.421875 -0.203125 -0.96875 -0.359375q-0.546875 -0.171875 -1.125 -0.359375q-0.5625 -0.1875 -1.109375 -0.4375q-0.546875 -0.265625 -0.984375 -0.65625q-0.421875 -0.40625 -0.6875 -0.984375q-0.25 -0.578125 -0.25 -1.390625q0 -0.75 0.296875 -1.4375q0.3125 -0.6875 0.890625 -1.1875q0.578125 -0.515625 1.453125 -0.8125q0.875 -0.3125 2.015625 -0.3125q1.265625 0 2.3125 0.421875q1.046875 0.40625 1.734375 1.09375l-0.671875 1.078125zm6.3318176 -2.40625l0 12.3125l-2.953125 0l0 -12.3125l2.953125 0zm0.453125 -3.59375q0 0.390625 -0.15625 0.734375q-0.15625 0.328125 -0.421875 0.578125q-0.25 0.25 -0.609375 0.40625q-0.34375 0.140625 -0.734375 0.140625q-0.390625 0 -0.734375 -0.140625q-0.328125 -0.15625 -0.59375 -0.40625q-0.25 -0.25 -0.40625 -0.578125q-0.140625 -0.34375 -0.140625 -0.734375q0 -0.390625 0.140625 -0.734375q0.15625 -0.34375 0.40625 -0.59375q0.265625 -0.265625 0.59375 -0.40625q0.34375 -0.15625 0.734375 -0.15625q0.390625 0 0.734375 0.15625q0.359375 0.140625 0.609375 0.40625q0.265625 0.25 0.421875 0.59375q0.15625 0.34375 0.15625 0.734375zm8.160278 3.40625q1.375 0 2.5 0.453125q1.125 0.4375 1.90625 1.25q0.796875 0.8125 1.21875 2.0q0.4375 1.171875 0.4375 2.609375q0 1.46875 -0.4375 2.65625q-0.421875 1.171875 -1.21875 2.0q-0.78125 0.828125 -1.90625 1.28125q-1.125 0.4375 -2.5 0.4375q-1.390625 0 -2.515625 -0.4375q-1.125 -0.453125 -1.921875 -1.28125q-0.796875 -0.828125 -1.234375 -2.0q-0.4375 -1.1875 -0.4375 -2.65625q0 -1.4375 0.4375 -2.609375q0.4375 -1.1875 1.234375 -2.0q0.796875 -0.8125 1.921875 -1.25q1.125 -0.453125 2.515625 -0.453125zm0 10.40625q1.53125 0 2.265625 -1.03125q0.75 -1.03125 0.75 -3.03125q0 -1.984375 -0.75 -3.03125q-0.734375 -1.046875 -2.265625 -1.046875q-1.5625 0 -2.3125 1.046875q-0.734375 1.046875 -0.734375 3.03125q0 1.984375 0.734375 3.03125q0.75 1.03125 2.3125 1.03125zm4.140625 -15.453125l-2.96875 3.140625q-0.234375 0.234375 -0.4375 0.328125q-0.203125 0.09375 -0.546875 0.09375l-1.78125 0l1.703125 -2.921875q0.1875 -0.3125 0.421875 -0.46875q0.25 -0.171875 0.71875 -0.171875l2.890625 0zm4.237854 17.546875l0 -12.3125l1.8125 0q0.578125 0 0.765625 0.546875l0.203125 0.96875q0.375 -0.390625 0.78125 -0.703125q0.421875 -0.3125 0.875 -0.53125q0.46875 -0.234375 0.984375 -0.34375q0.53125 -0.125 1.15625 -0.125q1.015625 0 1.796875 0.34375q0.78125 0.34375 1.296875 0.96875q0.515625 0.609375 0.78125 1.46875q0.28125 0.84375 0.28125 1.875l0 7.84375l-2.96875 0l0 -7.84375q0 -1.125 -0.53125 -1.734375q-0.515625 -0.625 -1.546875 -0.625q-0.78125 0 -1.453125 0.359375q-0.671875 0.34375 -1.265625 0.9375l0 8.90625l-2.96875 0zm22.088623 0l-3.25 0l0 -17.359375l3.25 0l0 17.359375zm3.5048218 -1.625q0 -0.375 0.125 -0.703125q0.140625 -0.34375 0.390625 -0.578125q0.25 -0.25 0.578125 -0.390625q0.34375 -0.140625 0.734375 -0.140625q0.359375 0 0.6875 0.140625q0.34375 0.140625 0.578125 0.390625q0.25 0.234375 0.390625 0.578125q0.140625 0.328125 0.140625 0.703125q0 0.375 -0.140625 0.703125q-0.140625 0.328125 -0.390625 0.578125q-0.234375 0.234375 -0.578125 0.375q-0.328125 0.140625 -0.6875 0.140625q-0.390625 0 -0.734375 -0.140625q-0.328125 -0.140625 -0.578125 -0.375q-0.25 -0.25 -0.390625 -0.578125q-0.125 -0.328125 -0.125 -0.703125zm0 -8.5625q0 -0.375 0.125 -0.703125q0.140625 -0.34375 0.390625 -0.578125q0.25 -0.25 0.578125 -0.390625q0.34375 -0.140625 0.734375 -0.140625q0.359375 0 0.6875 0.140625q0.34375 0.140625 0.578125 0.390625q0.25 0.234375 0.390625 0.578125q0.140625 0.328125 0.140625 0.703125q0 0.390625 -0.140625 0.71875q-0.140625 0.328125 -0.390625 0.578125q-0.234375 0.234375 -0.578125 0.375q-0.328125 0.125 -0.6875 0.125q-0.390625 0 -0.734375 -0.125q-0.328125 -0.140625 -0.578125 -0.375q-0.25 -0.25 -0.390625 -0.578125q-0.125 -0.328125 -0.125 -0.71875zm14.617065 7.53125l6.9375 0l0 2.65625l-10.171875 0l0 -17.359375l3.234375 0l0 14.703125zm18.658081 2.65625l-1.328125 0q-0.421875 0 -0.671875 -0.125q-0.234375 -0.125 -0.359375 -0.515625l-0.265625 -0.875q-0.46875 0.421875 -0.921875 0.75q-0.4375 0.3125 -0.921875 0.53125q-0.484375 0.203125 -1.03125 0.3125q-0.53125 0.109375 -1.1875 0.109375q-0.78125 0 -1.4375 -0.203125q-0.65625 -0.21875 -1.140625 -0.625q-0.46875 -0.421875 -0.734375 -1.046875q-0.265625 -0.625 -0.265625 -1.453125q0 -0.703125 0.359375 -1.375q0.375 -0.6875 1.21875 -1.21875q0.859375 -0.546875 2.265625 -0.90625q1.421875 -0.375 3.53125 -0.421875l0 -0.71875q0 -1.234375 -0.53125 -1.828125q-0.515625 -0.59375 -1.515625 -0.59375q-0.71875 0 -1.203125 0.171875q-0.46875 0.171875 -0.828125 0.390625q-0.359375 0.203125 -0.65625 0.375q-0.296875 0.15625 -0.65625 0.15625q-0.296875 0 -0.515625 -0.15625q-0.21875 -0.15625 -0.34375 -0.375l-0.546875 -0.953125q2.125 -1.953125 5.125 -1.953125q1.078125 0 1.921875 0.359375q0.84375 0.359375 1.4375 0.984375q0.59375 0.625 0.890625 1.515625q0.3125 0.875 0.3125 1.90625l0 7.78125zm-5.765625 -1.84375q0.453125 0 0.84375 -0.078125q0.390625 -0.09375 0.71875 -0.265625q0.34375 -0.171875 0.65625 -0.40625q0.328125 -0.25 0.65625 -0.59375l0 -2.0625q-1.296875 0.046875 -2.171875 0.21875q-0.875 0.15625 -1.40625 0.40625q-0.515625 0.25 -0.75 0.59375q-0.21875 0.328125 -0.21875 0.734375q0 0.78125 0.46875 1.125q0.46875 0.328125 1.203125 0.328125zm13.305481 5.859375l0 -16.328125l1.8125 0q0.296875 0 0.5 0.140625q0.203125 0.125 0.265625 0.40625l0.234375 1.140625q0.75 -0.859375 1.703125 -1.390625q0.96875 -0.53125 2.265625 -0.53125q1.015625 0 1.84375 0.421875q0.84375 0.421875 1.4375 1.21875q0.609375 0.796875 0.9375 1.96875q0.328125 1.171875 0.328125 2.6875q0 1.375 -0.375 2.5625q-0.359375 1.171875 -1.0625 2.03125q-0.6875 0.859375 -1.671875 1.359375q-0.96875 0.484375 -2.171875 0.484375q-1.046875 0 -1.78125 -0.3125q-0.71875 -0.328125 -1.296875 -0.890625l0 5.03125l-2.96875 0zm5.765625 -14.21875q-0.921875 0 -1.578125 0.390625q-0.65625 0.390625 -1.21875 1.09375l0 5.53125q0.5 0.625 1.09375 0.875q0.59375 0.234375 1.28125 0.234375q0.671875 0 1.21875 -0.25q0.546875 -0.25 0.921875 -0.765625q0.375 -0.515625 0.578125 -1.296875q0.21875 -0.796875 0.21875 -1.859375q0 -1.078125 -0.1875 -1.828125q-0.171875 -0.75 -0.5 -1.21875q-0.3125 -0.46875 -0.78125 -0.6875q-0.453125 -0.21875 -1.046875 -0.21875zm7.8064575 10.203125l0 -12.3125l1.75 0q0.453125 0 0.625 0.171875q0.1875 0.171875 0.25 0.578125l0.171875 1.484375q0.671875 -1.140625 1.546875 -1.796875q0.890625 -0.671875 2.0 -0.671875q0.90625 0 1.515625 0.421875l-0.390625 2.21875q-0.03125 0.21875 -0.15625 0.3125q-0.125 0.09375 -0.328125 0.09375q-0.171875 0 -0.484375 -0.078125q-0.3125 -0.09375 -0.828125 -0.09375q-0.921875 0 -1.59375 0.515625q-0.65625 0.5 -1.109375 1.484375l0 7.671875l-2.96875 0zm15.069702 -12.5q1.375 0 2.5 0.453125q1.125 0.4375 1.90625 1.25q0.796875 0.8125 1.21875 2.0q0.4375 1.171875 0.4375 2.609375q0 1.46875 -0.4375 2.65625q-0.421875 1.171875 -1.21875 2.0q-0.78125 0.828125 -1.90625 1.28125q-1.125 0.4375 -2.5 0.4375q-1.390625 0 -2.515625 -0.4375q-1.125 -0.453125 -1.921875 -1.28125q-0.796875 -0.828125 -1.234375 -2.0q-0.4375 -1.1875 -0.4375 -2.65625q0 -1.4375 0.4375 -2.609375q0.4375 -1.1875 1.234375 -2.0q0.796875 -0.8125 1.921875 -1.25q1.125 -0.453125 2.515625 -0.453125zm0 10.40625q1.53125 0 2.265625 -1.03125q0.75 -1.03125 0.75 -3.03125q0 -1.984375 -0.75 -3.03125q-0.734375 -1.046875 -2.265625 -1.046875q-1.5625 0 -2.3125 1.046875q-0.734375 1.046875 -0.734375 3.03125q0 1.984375 0.734375 3.03125q0.75 1.03125 2.3125 1.03125zm8.425354 2.09375l0 -17.828125l2.953125 0l0 7.03125q0.734375 -0.78125 1.65625 -1.234375q0.921875 -0.46875 2.171875 -0.46875q1.0 0 1.828125 0.421875q0.84375 0.40625 1.4375 1.203125q0.609375 0.78125 0.9375 1.953125q0.34375 1.15625 0.34375 2.671875q0 1.375 -0.375 2.5625q-0.375 1.171875 -1.0625 2.03125q-0.6875 0.859375 -1.671875 1.359375q-0.96875 0.484375 -2.1875 0.484375q-0.5625 0 -1.03125 -0.125q-0.46875 -0.109375 -0.859375 -0.3125q-0.375 -0.203125 -0.703125 -0.5q-0.328125 -0.296875 -0.640625 -0.65625l-0.125 0.828125q-0.078125 0.3125 -0.25 0.453125q-0.171875 0.125 -0.46875 0.125l-1.953125 0zm5.75 -10.203125q-0.921875 0 -1.578125 0.390625q-0.65625 0.390625 -1.21875 1.09375l0 5.53125q0.515625 0.625 1.109375 0.875q0.59375 0.234375 1.28125 0.234375q0.671875 0 1.203125 -0.25q0.546875 -0.25 0.921875 -0.765625q0.390625 -0.515625 0.59375 -1.296875q0.203125 -0.796875 0.203125 -1.859375q0 -1.078125 -0.171875 -1.828125q-0.171875 -0.75 -0.5 -1.21875q-0.328125 -0.46875 -0.796875 -0.6875q-0.453125 -0.21875 -1.046875 -0.21875zm17.53949 10.203125l-1.328125 0q-0.421875 0 -0.671875 -0.125q-0.234375 -0.125 -0.359375 -0.515625l-0.265625 -0.875q-0.46875 0.421875 -0.921875 0.75q-0.4375 0.3125 -0.921875 0.53125q-0.484375 0.203125 -1.03125 0.3125q-0.53125 0.109375 -1.1875 0.109375q-0.78125 0 -1.4375 -0.203125q-0.65625 -0.21875 -1.140625 -0.625q-0.46875 -0.421875 -0.734375 -1.046875q-0.265625 -0.625 -0.265625 -1.453125q0 -0.703125 0.359375 -1.375q0.375 -0.6875 1.21875 -1.21875q0.859375 -0.546875 2.265625 -0.90625q1.421875 -0.375 3.53125 -0.421875l0 -0.71875q0 -1.234375 -0.53125 -1.828125q-0.515625 -0.59375 -1.515625 -0.59375q-0.71875 0 -1.203125 0.171875q-0.46875 0.171875 -0.828125 0.390625q-0.359375 0.203125 -0.65625 0.375q-0.296875 0.15625 -0.65625 0.15625q-0.296875 0 -0.515625 -0.15625q-0.21875 -0.15625 -0.34375 -0.375l-0.546875 -0.953125q2.125 -1.953125 5.125 -1.953125q1.078125 0 1.921875 0.359375q0.84375 0.359375 1.4375 0.984375q0.59375 0.625 0.890625 1.515625q0.3125 0.875 0.3125 1.90625l0 7.78125zm-5.765625 -1.84375q0.453125 0 0.84375 -0.078125q0.390625 -0.09375 0.71875 -0.265625q0.34375 -0.171875 0.65625 -0.40625q0.328125 -0.25 0.65625 -0.59375l0 -2.0625q-1.296875 0.046875 -2.171875 0.21875q-0.875 0.15625 -1.40625 0.40625q-0.515625 0.25 -0.75 0.59375q-0.21875 0.328125 -0.21875 0.734375q0 0.78125 0.46875 1.125q0.46875 0.328125 1.203125 0.328125zm8.720337 1.84375l0 -17.828125l2.953125 0l0 7.03125q0.734375 -0.78125 1.65625 -1.234375q0.921875 -0.46875 2.171875 -0.46875q1.0 0 1.828125 0.421875q0.84375 0.40625 1.4375 1.203125q0.609375 0.78125 0.9375 1.953125q0.34375 1.15625 0.34375 2.671875q0 1.375 -0.375 2.5625q-0.375 1.171875 -1.0625 2.03125q-0.6875 0.859375 -1.671875 1.359375q-0.96875 0.484375 -2.1875 0.484375q-0.5625 0 -1.03125 -0.125q-0.46875 -0.109375 -0.859375 -0.3125q-0.375 -0.203125 -0.703125 -0.5q-0.328125 -0.296875 -0.640625 -0.65625l-0.125 0.828125q-0.078125 0.3125 -0.25 0.453125q-0.171875 0.125 -0.46875 0.125l-1.953125 0zm5.75 -10.203125q-0.921875 0 -1.578125 0.390625q-0.65625 0.390625 -1.21875 1.09375l0 5.53125q0.515625 0.625 1.109375 0.875q0.59375 0.234375 1.28125 0.234375q0.671875 0 1.203125 -0.25q0.546875 -0.25 0.921875 -0.765625q0.390625 -0.515625 0.59375 -1.296875q0.203125 -0.796875 0.203125 -1.859375q0 -1.078125 -0.171875 -1.828125q-0.171875 -0.75 -0.5 -1.21875q-0.328125 -0.46875 -0.796875 -0.6875q-0.453125 -0.21875 -1.046875 -0.21875zm11.03949 -2.109375l0 12.3125l-2.953125 0l0 -12.3125l2.953125 0zm0.453125 -3.59375q0 0.390625 -0.15625 0.734375q-0.15625 0.328125 -0.421875 0.578125q-0.25 0.25 -0.609375 0.40625q-0.34375 0.140625 -0.734375 0.140625q-0.390625 0 -0.734375 -0.140625q-0.328125 -0.15625 -0.59375 -0.40625q-0.25 -0.25 -0.40625 -0.578125q-0.140625 -0.34375 -0.140625 -0.734375q0 -0.390625 0.140625 -0.734375q0.15625 -0.34375 0.40625 -0.59375q0.265625 -0.265625 0.59375 -0.40625q0.34375 -0.15625 0.734375 -0.15625q0.390625 0 0.734375 0.15625q0.359375 0.140625 0.609375 0.40625q0.265625 0.25 0.421875 0.59375q0.15625 0.34375 0.15625 0.734375zm6.0509033 -1.921875l0 17.828125l-2.953125 0l0 -17.828125l2.953125 0zm6.5040283 5.515625l0 12.3125l-2.953125 0l0 -12.3125l2.953125 0zm0.453125 -3.59375q0 0.390625 -0.15625 0.734375q-0.15625 0.328125 -0.421875 0.578125q-0.25 0.25 -0.609375 0.40625q-0.34375 0.140625 -0.734375 0.140625q-0.390625 0 -0.734375 -0.140625q-0.328125 -0.15625 -0.59375 -0.40625q-0.25 -0.25 -0.40625 -0.578125q-0.140625 -0.34375 -0.140625 -0.734375q0 -0.390625 0.140625 -0.734375q0.15625 -0.34375 0.40625 -0.59375q0.265625 -0.265625 0.59375 -0.40625q0.34375 -0.15625 0.734375 -0.15625q0.390625 0 0.734375 0.15625q0.359375 0.140625 0.609375 0.40625q0.265625 0.25 0.421875 0.59375q0.15625 0.34375 0.15625 0.734375zm11.566528 15.90625q-0.578125 0 -0.765625 -0.546875l-0.234375 -1.1875q-0.375 0.4375 -0.796875 0.796875q-0.421875 0.34375 -0.90625 0.59375q-0.484375 0.25 -1.046875 0.390625q-0.5625 0.140625 -1.203125 0.140625q-1.015625 0 -1.859375 -0.421875q-0.828125 -0.421875 -1.4375 -1.21875q-0.609375 -0.796875 -0.9375 -1.96875q-0.328125 -1.1875 -0.328125 -2.703125q0 -1.359375 0.359375 -2.53125q0.375 -1.1875 1.078125 -2.046875q0.703125 -0.859375 1.671875 -1.34375q0.96875 -0.5 2.1875 -0.5q1.03125 0 1.75 0.34375q0.734375 0.328125 1.3125 0.875l0 -6.5l2.96875 0l0 17.828125l-1.8125 0zm-3.953125 -2.171875q0.921875 0 1.5625 -0.375q0.65625 -0.390625 1.234375 -1.09375l0 -5.53125q-0.5 -0.609375 -1.09375 -0.859375q-0.59375 -0.25 -1.28125 -0.25q-0.671875 0 -1.21875 0.25q-0.546875 0.25 -0.921875 0.765625q-0.375 0.5 -0.578125 1.296875q-0.203125 0.78125 -0.203125 1.84375q0 1.078125 0.171875 1.828125q0.171875 0.75 0.484375 1.234375q0.328125 0.46875 0.796875 0.6875q0.46875 0.203125 1.046875 0.203125zm18.617615 2.171875l-1.328125 0q-0.421875 0 -0.671875 -0.125q-0.234375 -0.125 -0.359375 -0.515625l-0.265625 -0.875q-0.46875 0.421875 -0.921875 0.75q-0.4375 0.3125 -0.921875 0.53125q-0.484375 0.203125 -1.03125 0.3125q-0.53125 0.109375 -1.1875 0.109375q-0.78125 0 -1.4375 -0.203125q-0.65625 -0.21875 -1.140625 -0.625q-0.46875 -0.421875 -0.734375 -1.046875q-0.265625 -0.625 -0.265625 -1.453125q0 -0.703125 0.359375 -1.375q0.375 -0.6875 1.21875 -1.21875q0.859375 -0.546875 2.265625 -0.90625q1.421875 -0.375 3.53125 -0.421875l0 -0.71875q0 -1.234375 -0.53125 -1.828125q-0.515625 -0.59375 -1.515625 -0.59375q-0.71875 0 -1.203125 0.171875q-0.46875 0.171875 -0.828125 0.390625q-0.359375 0.203125 -0.65625 0.375q-0.296875 0.15625 -0.65625 0.15625q-0.296875 0 -0.515625 -0.15625q-0.21875 -0.15625 -0.34375 -0.375l-0.546875 -0.953125q2.125 -1.953125 5.125 -1.953125q1.078125 0 1.921875 0.359375q0.84375 0.359375 1.4375 0.984375q0.59375 0.625 0.890625 1.515625q0.3125 0.875 0.3125 1.90625l0 7.78125zm-5.765625 -1.84375q0.453125 0 0.84375 -0.078125q0.390625 -0.09375 0.71875 -0.265625q0.34375 -0.171875 0.65625 -0.40625q0.328125 -0.25 0.65625 -0.59375l0 -2.0625q-1.296875 0.046875 -2.171875 0.21875q-0.875 0.15625 -1.40625 0.40625q-0.515625 0.25 -0.75 0.59375q-0.21875 0.328125 -0.21875 0.734375q0 0.78125 0.46875 1.125q0.46875 0.328125 1.203125 0.328125zm17.345337 1.84375q-0.578125 0 -0.765625 -0.546875l-0.234375 -1.1875q-0.375 0.4375 -0.796875 0.796875q-0.421875 0.34375 -0.90625 0.59375q-0.484375 0.25 -1.046875 0.390625q-0.5625 0.140625 -1.203125 0.140625q-1.015625 0 -1.859375 -0.421875q-0.828125 -0.421875 -1.4375 -1.21875q-0.609375 -0.796875 -0.9375 -1.96875q-0.328125 -1.1875 -0.328125 -2.703125q0 -1.359375 0.359375 -2.53125q0.375 -1.1875 1.078125 -2.046875q0.703125 -0.859375 1.671875 -1.34375q0.96875 -0.5 2.1875 -0.5q1.03125 0 1.75 0.34375q0.734375 0.328125 1.3125 0.875l0 -6.5l2.96875 0l0 17.828125l-1.8125 0zm-3.953125 -2.171875q0.921875 0 1.5625 -0.375q0.65625 -0.390625 1.234375 -1.09375l0 -5.53125q-0.5 -0.609375 -1.09375 -0.859375q-0.59375 -0.25 -1.28125 -0.25q-0.671875 0 -1.21875 0.25q-0.546875 0.25 -0.921875 0.765625q-0.375 0.5 -0.578125 1.296875q-0.203125 0.78125 -0.203125 1.84375q0 1.078125 0.171875 1.828125q0.171875 0.75 0.484375 1.234375q0.328125 0.46875 0.796875 0.6875q0.46875 0.203125 1.046875 0.203125z" fill-rule="nonzero"/><path fill="#000000" fill-opacity="0.0" d="m33.964684 203.12862l243.40158 0l0 135.40157l-243.40158 0z" fill-rule="evenodd"/><path fill="#000000" d="m65.803764 258.85376l0 6.015625l-3.515625 0l0 -17.062485l6.65625 0q1.921875 0 3.375 0.703125q1.453125 0.703125 2.234375 2.0q0.796875 1.296875 0.796875 2.9375q0 2.515625 -1.71875 3.9687347q-1.71875 1.4375 -4.75 1.4375l-3.078125 0zm0 -2.84375l3.140625 0q1.390625 0 2.125 -0.65623474q0.734375 -0.65625 0.734375 -1.875q0 -1.25 -0.75 -2.015625q-0.734375 -0.78125 -2.03125 -0.8125l-3.21875 0l0 5.3593597zm18.855469 -0.64060974q-0.6875 -0.09375 -1.21875 -0.09375q-1.921875 0 -2.515625 1.2968597l0 8.296875l-3.390625 0l0 -12.687485l3.203125 0l0.09375 1.515625q1.015625 -1.75 2.828125 -1.75q0.5625 0 1.046875 0.15625l-0.046875 3.265625zm0.69140625 3.0468597q0 -1.890625 0.71875 -3.3593597q0.734375 -1.484375 2.09375 -2.296875q1.359375 -0.8125 3.171875 -0.8125q2.5625 0 4.1875 1.578125q1.625 1.5625 1.8125 4.2656097l0.015625 0.859375q0 2.921875 -1.625 4.6875q-1.625 1.765625 -4.375 1.765625q-2.734375 0 -4.375 -1.75q-1.625 -1.765625 -1.625 -4.796875l0 -0.140625zm3.375 0.234375q0 1.8125 0.671875 2.765625q0.6875 0.953125 1.953125 0.953125q1.234375 0 1.921875 -0.9375q0.703125 -0.953125 0.703125 -3.015625q0 -1.78125 -0.703125 -2.7499847q-0.6875 -0.96875 -1.9375 -0.96875q-1.25 0 -1.9375 0.96875q-0.671875 0.96873474 -0.671875 2.9843597zm15.9921875 3.71875q0.9375 0 1.515625 -0.515625q0.59375 -0.515625 0.609375 -1.375l3.1875 0q-0.015625 1.296875 -0.71875 2.375q-0.6875 1.0625 -1.890625 1.65625q-1.1875 0.59375 -2.640625 0.59375q-2.71875 0 -4.296875 -1.71875q-1.5625 -1.734375 -1.5625 -4.78125l0 -0.234375q0 -2.9218597 1.546875 -4.6718597q1.5625 -1.75 4.28125 -1.75q2.375 0 3.8125 1.359375q1.4375 1.359375 1.46875 3.6093597l-3.1875 0q-0.015625 -0.98435974 -0.609375 -1.5937347q-0.578125 -0.625 -1.546875 -0.625q-1.171875 0 -1.78125 0.859375q-0.609375 0.85935974 -0.609375 2.7968597l0 0.34375q0 1.96875 0.59375 2.828125q0.609375 0.84375 1.828125 0.84375zm13.078125 2.734375q-2.796875 0 -4.546875 -1.703125q-1.75 -1.71875 -1.75 -4.5625l0 -0.328125q0 -1.921875 0.734375 -3.4218597q0.75 -1.5 2.09375 -2.3125q1.359375 -0.828125 3.09375 -0.828125q2.59375 0 4.09375 1.640625q1.5 1.640625 1.5 4.6562347l0 1.390625l-8.078125 0q0.15625 1.234375 0.984375 1.984375q0.828125 0.75 2.09375 0.75q1.953125 0 3.0625 -1.421875l1.65625 1.875q-0.75 1.078125 -2.0625 1.6875q-1.296875 0.59375 -2.875 0.59375zm-0.390625 -10.406235q-1.0 0 -1.640625 0.6875q-0.625 0.67185974 -0.796875 1.9374847l4.71875 0l0 -0.265625q-0.03125 -1.1249847 -0.625 -1.7343597q-0.578125 -0.625 -1.65625 -0.625zm14.394539 6.6718597q0 -0.625 -0.625 -0.984375q-0.609375 -0.359375 -1.96875 -0.640625q-4.5156326 -0.953125 -4.5156326 -3.8437347q0 -1.6875 1.390625 -2.8125q1.40625 -1.140625 3.6718826 -1.140625q2.40625 0 3.84375 1.140625q1.453125 1.140625 1.453125 2.9531097l-3.375 0q0 -0.71873474 -0.46875 -1.1874847q-0.46875 -0.484375 -1.46875 -0.484375q-0.859375 0 -1.328125 0.390625q-0.46875763 0.375 -0.46875763 0.984375q0 0.56248474 0.5312576 0.90623474q0.53125 0.34375 1.796875 0.59375q1.265625 0.25 2.140625 0.5625q2.6875 0.984375 2.6875 3.421875q0 1.734375 -1.5 2.8125q-1.484375 1.0625 -3.84375 1.0625q-1.59375 0 -2.8281326 -0.5625q-1.234375 -0.578125 -1.9375 -1.5625q-0.703125 -1.0 -0.703125 -2.140625l3.21875 0q0.046875 0.90625 0.6562576 1.390625q0.625 0.46875 1.671875 0.46875q0.96875 0 1.46875 -0.359375q0.5 -0.375 0.5 -0.96875zm4.9492188 -2.953125q0 -1.890625 0.71875 -3.3593597q0.734375 -1.484375 2.09375 -2.296875q1.359375 -0.8125 3.171875 -0.8125q2.5625 0 4.1875 1.578125q1.625 1.5625 1.8125 4.2656097l0.015625 0.859375q0 2.921875 -1.625 4.6875q-1.625 1.765625 -4.375 1.765625q-2.734375 0 -4.375 -1.75q-1.625 -1.765625 -1.625 -4.796875l0 -0.140625zm3.375 0.234375q0 1.8125 0.671875 2.765625q0.6875 0.953125 1.953125 0.953125q1.234375 0 1.921875 -0.9375q0.703125 -0.953125 0.703125 -3.015625q0 -1.78125 -0.703125 -2.7499847q-0.6875 -0.96875 -1.9375 -0.96875q-1.25 0 -1.9375 0.96875q-0.671875 0.96873474 -0.671875 2.9843597zm30.421875 4.0625q-0.953125 1.140625 -2.6875 1.765625q-1.734375 0.625 -3.84375 0.625q-2.21875 0 -3.890625 -0.96875q-1.671875 -0.96875 -2.578125 -2.796875q-0.90625 -1.84375 -0.921875 -4.328125l0 -1.1718597q0 -2.546875 0.859375 -4.40625q0.859375 -1.875 2.484375 -2.859375q1.625 -1.0 3.796875 -1.0q3.03125 0 4.734375 1.453125q1.71875 1.4375 2.046875 4.203125l-3.421875 0q-0.234375 -1.46875 -1.046875 -2.140625q-0.796875 -0.6875 -2.203125 -0.6875q-1.796875 0 -2.734375 1.359375q-0.9375 1.34375 -0.953125 4.0l0 1.0937347q0 2.6875 1.015625 4.0625q1.03125 1.359375 3.0 1.359375q1.984375 0 2.828125 -0.84375l0 -2.9375l-3.203125 0l0 -2.5937347l6.71875 0l0 6.8124847zm8.457031 2.390625q-2.796875 0 -4.546875 -1.703125q-1.75 -1.71875 -1.75 -4.5625l0 -0.328125q0 -1.921875 0.734375 -3.4218597q0.75 -1.5 2.09375 -2.3125q1.359375 -0.828125 3.09375 -0.828125q2.59375 0 4.09375 1.640625q1.5 1.640625 1.5 4.6562347l0 1.390625l-8.078125 0q0.15625 1.234375 0.984375 1.984375q0.828125 0.75 2.09375 0.75q1.953125 0 3.0625 -1.421875l1.65625 1.875q-0.75 1.078125 -2.0625 1.6875q-1.296875 0.59375 -2.875 0.59375zm-0.390625 -10.406235q-1.0 0 -1.640625 0.6875q-0.625 0.67185974 -0.796875 1.9374847l4.71875 0l0 -0.265625q-0.03125 -1.1249847 -0.625 -1.7343597q-0.578125 -0.625 -1.65625 -0.625zm10.644531 -2.515625l0.109375 1.46875q1.359375 -1.703125 3.640625 -1.703125q2.015625 0 3.0 1.1875q0.984375 1.1875 1.0 3.5468597l0 8.1875l-3.375 0l0 -8.109375q0 -1.0781097 -0.46875 -1.5624847q-0.46875 -0.484375 -1.5625 -0.484375q-1.4375 0 -2.140625 1.21875l0 8.937485l-3.390625 0l0 -12.687485l3.1875 0zm16.160156 12.92186q-2.796875 0 -4.546875 -1.703125q-1.75 -1.71875 -1.75 -4.5625l0 -0.328125q0 -1.921875 0.734375 -3.4218597q0.75 -1.5 2.09375 -2.3125q1.359375 -0.828125 3.09375 -0.828125q2.59375 0 4.09375 1.640625q1.5 1.640625 1.5 4.6562347l0 1.390625l-8.078125 0q0.15625 1.234375 0.984375 1.984375q0.828125 0.75 2.09375 0.75q1.953125 0 3.0625 -1.421875l1.65625 1.875q-0.75 1.078125 -2.0625 1.6875q-1.296875 0.59375 -2.875 0.59375zm-0.390625 -10.406235q-1.0 0 -1.640625 0.6875q-0.625 0.67185974 -0.796875 1.9374847l4.71875 0l0 -0.265625q-0.03125 -1.1249847 -0.625 -1.7343597q-0.578125 -0.625 -1.65625 -0.625zm14.644531 0.671875q-0.6875 -0.09375 -1.21875 -0.09375q-1.921875 0 -2.515625 1.2968597l0 8.296875l-3.390625 0l0 -12.687485l3.203125 0l0.09375 1.515625q1.015625 -1.75 2.828125 -1.75q0.5625 0 1.046875 0.15625l-0.046875 3.265625zm8.636719 9.499985q-0.234375 -0.453125 -0.34375 -1.140625q-1.234375 1.375 -3.203125 1.375q-1.859375 0 -3.09375 -1.078125q-1.21875 -1.078125 -1.21875 -2.71875q0 -2.015625 1.484375 -3.09375q1.5 -1.078125 4.328125 -1.09375l1.5625 0l0 -0.71875q0 -0.89060974 -0.453125 -1.4062347q-0.453125 -0.53125 -1.421875 -0.53125q-0.859375 0 -1.34375 0.40625q-0.484375 0.40625 -0.484375 1.125l-3.390625 0q0 -1.09375 0.671875 -2.03125q0.6875 -0.9375 1.921875 -1.46875q1.25 -0.546875 2.796875 -0.546875q2.34375 0 3.71875 1.1875q1.375 1.171875 1.375 3.3124847l0 5.484375q0.015625 1.8125 0.515625 2.734375l0 0.203125l-3.421875 0zm-2.8125 -2.359375q0.75 0 1.375 -0.328125q0.640625 -0.34375 0.953125 -0.90625l0 -2.171875l-1.265625 0q-2.546875 0 -2.703125 1.75l-0.015625 0.203125q0 0.640625 0.4375 1.046875q0.453125 0.40625 1.21875 0.40625zm7.8046875 -4.078125q0 -2.9687347 1.328125 -4.7187347q1.328125 -1.765625 3.640625 -1.765625q1.84375 0 3.046875 1.390625l0 -6.46875l3.40625 0l0 17.999985l-3.0625 0l-0.15625 -1.34375q-1.265625 1.578125 -3.265625 1.578125q-2.234375 0 -3.59375 -1.765625q-1.34375 -1.765625 -1.34375 -4.90625zm3.375 0.25q0 1.78125 0.625 2.734375q0.625 0.9375 1.8125 0.9375q1.5625 0 2.203125 -1.3125l0 -5.015625q-0.625 -1.3124847 -2.1875 -1.3124847q-2.453125 0 -2.453125 3.9687347zm10.1484375 -0.265625q0 -1.890625 0.71875 -3.3593597q0.734375 -1.484375 2.09375 -2.296875q1.359375 -0.8125 3.171875 -0.8125q2.5625 0 4.1875 1.578125q1.625 1.5625 1.8125 4.2656097l0.015625 0.859375q0 2.921875 -1.625 4.6875q-1.625 1.765625 -4.375 1.765625q-2.734375 0 -4.375 -1.75q-1.625 -1.765625 -1.625 -4.796875l0 -0.140625zm3.375 0.234375q0 1.8125 0.671875 2.765625q0.6875 0.953125 1.953125 0.953125q1.234375 0 1.921875 -0.9375q0.703125 -0.953125 0.703125 -3.015625q0 -1.78125 -0.703125 -2.7499847q-0.6875 -0.96875 -1.9375 -0.96875q-1.25 0 -1.9375 0.96875q-0.671875 0.96873474 -0.671875 2.9843597zm17.835938 -3.2812347q-0.6875 -0.09375 -1.21875 -0.09375q-1.921875 0 -2.515625 1.2968597l0 8.296875l-3.390625 0l0 -12.687485l3.203125 0l0.09375 1.515625q1.015625 -1.75 2.828125 -1.75q0.5625 0 1.046875 0.15625l-0.046875 3.265625z" fill-rule="nonzero"/><path fill="#000000" d="m174.54205 287.4319q0 -2.96875 1.328125 -4.71875q1.328125 -1.765625 3.640625 -1.765625q1.84375 0 3.046875 1.390625l0 -6.46875l3.40625 0l0 18.0l-3.0625 0l-0.15625 -1.34375q-1.265625 1.578125 -3.265625 1.578125q-2.234375 0 -3.59375 -1.765625q-1.34375 -1.765625 -1.34375 -4.90625zm3.375 0.25q0 1.78125 0.625 2.734375q0.625 0.9375 1.8125 0.9375q1.5625 0 2.203125 -1.3125l0 -5.015625q-0.625 -1.3125 -2.1875 -1.3125q-2.453125 0 -2.453125 3.96875zm16.507812 6.421875q-2.796875 0 -4.546875 -1.703125q-1.75 -1.71875 -1.75 -4.5625l0 -0.328125q0 -1.921875 0.734375 -3.421875q0.75 -1.5 2.09375 -2.3125q1.359375 -0.828125 3.09375 -0.828125q2.59375 0 4.09375 1.640625q1.5 1.640625 1.5 4.65625l0 1.390625l-8.078125 0q0.15625 1.234375 0.984375 1.984375q0.828125 0.75 2.09375 0.75q1.953125 0 3.0625 -1.421875l1.65625 1.875q-0.75 1.078125 -2.0625 1.6875q-1.296875 0.59375 -2.875 0.59375zm-0.390625 -10.40625q-1.0 0 -1.640625 0.6875q-0.625 0.671875 -0.796875 1.9375l4.71875 0l0 -0.265625q-0.03125 -1.125 -0.625 -1.734375q-0.578125 -0.625 -1.65625 -0.625zm13.730469 10.171875l0 -17.0625l5.25 0q2.25 0 4.015625 1.015625q1.78125 1.015625 2.765625 2.890625q1.0 1.859375 1.0 4.234375l0 0.78125q0 2.390625 -0.984375 4.25q-0.96875 1.84375 -2.75 2.859375q-1.78125 1.015625 -4.015625 1.03125l-5.28125 0zm3.515625 -14.21875l0 11.390625l1.6875 0q2.0625 0 3.15625 -1.34375q1.09375 -1.34375 1.109375 -3.859375l0 -0.90625q0 -2.59375 -1.078125 -3.9375q-1.078125 -1.34375 -3.140625 -1.34375l-1.734375 0zm19.207031 14.21875q-0.234375 -0.453125 -0.34375 -1.140625q-1.234375 1.375 -3.203125 1.375q-1.859375 0 -3.09375 -1.078125q-1.21875 -1.078125 -1.21875 -2.71875q0 -2.015625 1.484375 -3.09375q1.5 -1.078125 4.328125 -1.09375l1.5625 0l0 -0.71875q0 -0.890625 -0.453125 -1.40625q-0.453125 -0.53125 -1.421875 -0.53125q-0.859375 0 -1.34375 0.40625q-0.484375 0.40625 -0.484375 1.125l-3.390625 0q0 -1.09375 0.671875 -2.03125q0.6875 -0.9375 1.921875 -1.46875q1.25 -0.546875 2.796875 -0.546875q2.34375 0 3.71875 1.1875q1.375 1.171875 1.375 3.3125l0 5.484375q0.015625 1.8125 0.515625 2.734375l0 0.203125l-3.421875 0zm-2.8125 -2.359375q0.75 0 1.375 -0.328125q0.640625 -0.34375 0.953125 -0.90625l0 -2.171875l-1.265625 0q-2.546875 0 -2.703125 1.75l-0.015625 0.203125q0 0.640625 0.4375 1.046875q0.453125 0.40625 1.21875 0.40625zm12.3828125 -13.4375l0 3.109375l2.171875 0l0 2.484375l-2.171875 0l0 6.328125q0 0.703125 0.265625 1.015625q0.265625 0.296875 1.03125 0.296875q0.5625 0 1.0 -0.078125l0 2.5625q-1.0 0.3125 -2.046875 0.3125q-3.5625 0 -3.640625 -3.59375l0 -6.84375l-1.84375 0l0 -2.484375l1.84375 0l0 -3.109375l3.390625 0zm3.1796875 9.34375q0 -1.890625 0.71875 -3.359375q0.734375 -1.484375 2.09375 -2.296875q1.359375 -0.8125 3.171875 -0.8125q2.5625 0 4.1875 1.578125q1.625 1.5625 1.8125 4.265625l0.015625 0.859375q0 2.921875 -1.625 4.6875q-1.625 1.765625 -4.375 1.765625q-2.734375 0 -4.375 -1.75q-1.625 -1.765625 -1.625 -4.796875l0 -0.140625zm3.375 0.234375q0 1.8125 0.671875 2.765625q0.6875 0.953125 1.953125 0.953125q1.234375 0 1.921875 -0.9375q0.703125 -0.953125 0.703125 -3.015625q0 -1.78125 -0.703125 -2.75q-0.6875 -0.96875 -1.9375 -0.96875q-1.25 0 -1.9375 0.96875q-0.671875 0.96875 -0.671875 2.984375zm17.585938 2.71875q0 -0.625 -0.625 -0.984375q-0.609375 -0.359375 -1.96875 -0.640625q-4.515625 -0.953125 -4.515625 -3.84375q0 -1.6875 1.390625 -2.8125q1.40625 -1.140625 3.671875 -1.140625q2.40625 0 3.84375 1.140625q1.453125 1.140625 1.453125 2.953125l-3.375 0q0 -0.71875 -0.46875 -1.1875q-0.46875 -0.484375 -1.46875 -0.484375q-0.859375 0 -1.328125 0.390625q-0.46875 0.375 -0.46875 0.984375q0 0.5625 0.53125 0.90625q0.53125 0.34375 1.796875 0.59375q1.265625 0.25 2.140625 0.5625q2.6875 0.984375 2.6875 3.421875q0 1.734375 -1.5 2.8125q-1.484375 1.0625 -3.84375 1.0625q-1.59375 0 -2.828125 -0.5625q-1.234375 -0.578125 -1.9375 -1.5625q-0.703125 -1.0 -0.703125 -2.140625l3.21875 0q0.046875 0.90625 0.65625 1.390625q0.625 0.46875 1.671875 0.46875q0.96875 0 1.46875 -0.359375q0.5 -0.375 0.5 -0.96875z" fill-rule="nonzero"/><path fill="#000000" fill-opacity="0.0" d="m343.89764 272.53998l-66.519684 0" fill-rule="evenodd"/><path stroke="#249c90" stroke-width="1.0" stroke-linejoin="round" stroke-linecap="butt" d="m343.89764 272.53998l-62.729675 0" fill-rule="evenodd"/><path fill="#249c90" stroke="#249c90" stroke-width="1.0" stroke-linecap="butt" d="m277.87796 272.53998c0 -0.9085083 0.7364807 -1.644989 1.644989 -1.644989c0.9085083 0 1.644989 0.7364807 1.644989 1.644989c0 0.9085083 -0.7364807 1.6450195 -1.644989 1.6450195c-0.9085083 0 -1.644989 -0.73651123 -1.644989 -1.6450195z" fill-rule="nonzero"/><path fill="#000000" fill-opacity="0.0" d="m703.042 105.86281l222.99213 0l0 135.40158l-222.99213 0z" fill-rule="evenodd"/><path fill="#000000" d="m718.167 165.04109l4.375 12.375l4.359375 -12.375l4.625 0l0 17.0625l-3.53125 0l0 -4.671875l0.34375 -8.046875l-4.59375 12.71875l-2.421875 0l-4.59375 -12.703125l0.359375 8.03125l0 4.671875l-3.515625 0l0 -17.0625l4.59375 0zm23.789062 15.765625q-1.25 1.53125 -3.46875 1.53125q-2.03125 0 -3.109375 -1.171875q-1.0625 -1.171875 -1.09375 -3.4375l0 -8.3125l3.390625 0l0 8.203125q0 1.96875 1.796875 1.96875q1.734375 0 2.375 -1.1875l0 -8.984375l3.390625 0l0 12.6875l-3.1875 0l-0.09375 -1.296875zm11.6796875 1.53125q-2.796875 0 -4.546875 -1.703125q-1.75 -1.71875 -1.75 -4.5625l0 -0.328125q0 -1.921875 0.734375 -3.421875q0.75 -1.5 2.09375 -2.3125q1.359375 -0.828125 3.09375 -0.828125q2.59375 0 4.09375 1.640625q1.5 1.640625 1.5 4.65625l0 1.390625l-8.078125 0q0.15625 1.234375 0.984375 1.984375q0.828125 0.75 2.09375 0.75q1.953125 0 3.0625 -1.421875l1.65625 1.875q-0.75 1.078125 -2.0625 1.6875q-1.296875 0.59375 -2.875 0.59375zm-0.390625 -10.40625q-1.0 0 -1.640625 0.6875q-0.625 0.671875 -0.796875 1.9375l4.71875 0l0 -0.265625q-0.03125 -1.125 -0.625 -1.734375q-0.578125 -0.625 -1.65625 -0.625zm14.394531 6.671875q0 -0.625 -0.625 -0.984375q-0.609375 -0.359375 -1.96875 -0.640625q-4.515625 -0.953125 -4.515625 -3.84375q0 -1.6875 1.390625 -2.8125q1.40625 -1.140625 3.671875 -1.140625q2.40625 0 3.84375 1.140625q1.453125 1.140625 1.453125 2.953125l-3.375 0q0 -0.71875 -0.46875 -1.1875q-0.46875 -0.484375 -1.46875 -0.484375q-0.859375 0 -1.328125 0.390625q-0.46875 0.375 -0.46875 0.984375q0 0.5625 0.53125 0.90625q0.53125 0.34375 1.796875 0.59375q1.265625 0.25 2.140625 0.5625q2.6875 0.984375 2.6875 3.421875q0 1.734375 -1.5 2.8125q-1.484375 1.0625 -3.84375 1.0625q-1.59375 0 -2.828125 -0.5625q-1.234375 -0.578125 -1.9375 -1.5625q-0.703125 -1.0 -0.703125 -2.140625l3.21875 0q0.046875 0.90625 0.65625 1.390625q0.625 0.46875 1.671875 0.46875q0.96875 0 1.46875 -0.359375q0.5 -0.375 0.5 -0.96875zm9.527344 -12.296875l0 3.109375l2.171875 0l0 2.484375l-2.171875 0l0 6.328125q0 0.703125 0.265625 1.015625q0.265625 0.296875 1.03125 0.296875q0.5625 0 1.0 -0.078125l0 2.5625q-1.0 0.3125 -2.046875 0.3125q-3.5625 0 -3.640625 -3.59375l0 -6.84375l-1.84375 0l0 -2.484375l1.84375 0l0 -3.109375l3.390625 0zm11.171875 6.296875q-0.6875 -0.09375 -1.21875 -0.09375q-1.921875 0 -2.515625 1.296875l0 8.296875l-3.390625 0l0 -12.6875l3.203125 0l0.09375 1.515625q1.015625 -1.75 2.828125 -1.75q0.5625 0 1.046875 0.15625l-0.046875 3.265625zm8.636719 9.5q-0.234375 -0.453125 -0.34375 -1.140625q-1.234375 1.375 -3.203125 1.375q-1.859375 0 -3.09375 -1.078125q-1.21875 -1.078125 -1.21875 -2.71875q0 -2.015625 1.484375 -3.09375q1.5 -1.078125 4.328125 -1.09375l1.5625 0l0 -0.71875q0 -0.890625 -0.453125 -1.40625q-0.453125 -0.53125 -1.421875 -0.53125q-0.859375 0 -1.34375 0.40625q-0.484375 0.40625 -0.484375 1.125l-3.390625 0q0 -1.09375 0.671875 -2.03125q0.6875 -0.9375 1.921875 -1.46875q1.25 -0.546875 2.796875 -0.546875q2.34375 0 3.71875 1.1875q1.375 1.171875 1.375 3.3125l0 5.484375q0.015625 1.8125 0.515625 2.734375l0 0.203125l-3.421875 0zm-2.8125 -2.359375q0.75 0 1.375 -0.328125q0.640625 -0.34375 0.953125 -0.90625l0 -2.171875l-1.265625 0q-2.546875 0 -2.703125 1.75l-0.015625 0.203125q0 0.640625 0.4375 1.046875q0.453125 0.40625 1.21875 0.40625z" fill-rule="nonzero"/><path fill="#000000" fill-opacity="0.0" d="m546.96326 173.5636l135.08661 0" fill-rule="evenodd"/><path stroke="#155b54" stroke-width="1.0" stroke-linejoin="round" stroke-linecap="butt" d="m546.96326 173.56361l131.29663 0" fill-rule="evenodd"/><path fill="#155b54" stroke="#155b54" stroke-width="1.0" stroke-linecap="butt" d="m681.54987 173.56361c0 0.9085083 -0.73651123 1.644989 -1.6450195 1.644989c-0.9085083 0 -1.6449585 -0.7364807 -1.6449585 -1.644989c0 -0.9085083 0.7364502 -1.6450043 1.6449585 -1.6450043c0.9085083 0 1.6450195 0.736496 1.6450195 1.6450043z" fill-rule="nonzero"/><path fill="#000000" fill-opacity="0.0" d="m703.042 311.64758l222.99213 0l0 135.40158l-222.99213 0z" fill-rule="evenodd"/><path fill="#000000" d="m713.57324 373.38837l0 -17.0625l5.25 0q2.25 0 4.015625 1.015625q1.78125 1.015625 2.765625 2.890625q1.0 1.859375 1.0 4.234375l0 0.78125q0 2.390625 -0.984375 4.25q-0.96875 1.84375 -2.75 2.859375q-1.78125 1.015625 -4.015625 1.03125l-5.28125 0zm3.515625 -14.21875l0 11.390625l1.6875 0q2.0625 0 3.15625 -1.34375q1.09375 -1.34375 1.109375 -3.859375l0 -0.90625q0 -2.59375 -1.078125 -3.9375q-1.078125 -1.34375 -3.140625 -1.34375l-1.734375 0zm15.425781 14.21875l-3.390625 0l0 -12.6875l3.390625 0l0 12.6875zm-3.59375 -15.96875q0 -0.75 0.5 -1.234375q0.515625 -0.5 1.390625 -0.5q0.875 0 1.390625 0.5q0.515625 0.484375 0.515625 1.234375q0 0.78125 -0.53125 1.28125q-0.515625 0.484375 -1.375 0.484375q-0.84375 0 -1.375 -0.484375q-0.515625 -0.5 -0.515625 -1.28125zm13.253906 12.46875q0 -0.625 -0.625 -0.984375q-0.609375 -0.359375 -1.96875 -0.640625q-4.515625 -0.953125 -4.515625 -3.84375q0 -1.6875 1.390625 -2.8125q1.40625 -1.140625 3.671875 -1.140625q2.40625 0 3.84375 1.140625q1.453125 1.140625 1.453125 2.953125l-3.375 0q0 -0.71875 -0.46875 -1.1875q-0.46875 -0.484375 -1.46875 -0.484375q-0.859375 0 -1.328125 0.390625q-0.46875 0.375 -0.46875 0.984375q0 0.5625 0.53125 0.90625q0.53125 0.34375 1.796875 0.59375q1.265625 0.25 2.140625 0.5625q2.6875 0.984375 2.6875 3.421875q0 1.734375 -1.5 2.8125q-1.484375 1.0625 -3.84375 1.0625q-1.59375 0 -2.828125 -0.5625q-1.234375 -0.578125 -1.9375 -1.5625q-0.703125 -1.0 -0.703125 -2.140625l3.21875 0q0.046875 0.90625 0.65625 1.390625q0.625 0.46875 1.671875 0.46875q0.96875 0 1.46875 -0.359375q0.5 -0.375 0.5 -0.96875zm9.527344 -12.296875l0 3.109375l2.171875 0l0 2.484375l-2.171875 0l0 6.328125q0 0.703125 0.265625 1.015625q0.265625 0.296875 1.03125 0.296875q0.5625 0 1.0 -0.078125l0 2.5625q-1.0 0.3125 -2.046875 0.3125q-3.5625 0 -3.640625 -3.59375l0 -6.84375l-1.84375 0l0 -2.484375l1.84375 0l0 -3.109375l3.390625 0zm11.171875 6.296875q-0.6875 -0.09375 -1.21875 -0.09375q-1.921875 0 -2.515625 1.296875l0 8.296875l-3.390625 0l0 -12.6875l3.203125 0l0.09375 1.515625q1.015625 -1.75 2.828125 -1.75q0.5625 0 1.046875 0.15625l-0.046875 3.265625zm5.2070312 9.5l-3.390625 0l0 -12.6875l3.390625 0l0 12.6875zm-3.59375 -15.96875q0 -0.75 0.5 -1.234375q0.515625 -0.5 1.390625 -0.5q0.875 0 1.390625 0.5q0.515625 0.484375 0.515625 1.234375q0 0.78125 -0.53125 1.28125q-0.515625 0.484375 -1.375 0.484375q-0.84375 0 -1.375 -0.484375q-0.515625 -0.5 -0.515625 -1.28125zm17.816406 9.75q0 3.046875 -1.3125 4.75q-1.296875 1.703125 -3.625 1.703125q-2.0625 0 -3.296875 -1.578125l-0.15625 1.34375l-3.046875 0l0 -18.0l3.390625 0l0 6.453125q1.171875 -1.375 3.078125 -1.375q2.328125 0 3.640625 1.71875q1.328125 1.703125 1.328125 4.796875l0 0.1875zm-3.390625 -0.25q0 -1.921875 -0.609375 -2.796875q-0.609375 -0.890625 -1.8125 -0.890625q-1.625 0 -2.234375 1.3125l0 5.015625q0.625 1.328125 2.25 1.328125q1.640625 0 2.15625 -1.609375q0.25 -0.78125 0.25 -2.359375zm13.058594 5.171875q-1.25 1.53125 -3.46875 1.53125q-2.03125 0 -3.109375 -1.171875q-1.0625 -1.171875 -1.09375 -3.4375l0 -8.3125l3.390625 0l0 8.203125q0 1.96875 1.796875 1.96875q1.734375 0 2.375 -1.1875l0 -8.984375l3.390625 0l0 12.6875l-3.1875 0l-0.09375 -1.296875zm11.1171875 -1.203125q0.9375 0 1.515625 -0.515625q0.59375 -0.515625 0.609375 -1.375l3.1875 0q-0.015625 1.296875 -0.71875 2.375q-0.6875 1.0625 -1.890625 1.65625q-1.1875 0.59375 -2.640625 0.59375q-2.71875 0 -4.296875 -1.71875q-1.5625 -1.734375 -1.5625 -4.78125l0 -0.234375q0 -2.921875 1.546875 -4.671875q1.5625 -1.75 4.28125 -1.75q2.375 0 3.8125 1.359375q1.4375 1.359375 1.46875 3.609375l-3.1875 0q-0.015625 -0.984375 -0.609375 -1.59375q-0.578125 -0.625 -1.546875 -0.625q-1.171875 0 -1.78125 0.859375q-0.609375 0.859375 -0.609375 2.796875l0 0.34375q0 1.96875 0.59375 2.828125q0.609375 0.84375 1.828125 0.84375zm10.8125 2.5l-3.390625 0l0 -12.6875l3.390625 0l0 12.6875zm-3.59375 -15.96875q0 -0.75 0.5 -1.234375q0.515625 -0.5 1.390625 -0.5q0.875 0 1.390625 0.5q0.515625 0.484375 0.515625 1.234375q0 0.78125 -0.53125 1.28125q-0.515625 0.484375 -1.375 0.484375q-0.84375 0 -1.375 -0.484375q-0.515625 -0.5 -0.515625 -1.28125zm5.8632812 9.515625q0 -1.890625 0.71875 -3.359375q0.734375 -1.484375 2.09375 -2.296875q1.359375 -0.8125 3.171875 -0.8125q2.5625 0 4.1875 1.578125q1.625 1.5625 1.8125 4.265625l0.015625 0.859375q0 2.921875 -1.625 4.6875q-1.625 1.765625 -4.375 1.765625q-2.734375 0 -4.375 -1.75q-1.625 -1.765625 -1.625 -4.796875l0 -0.140625zm3.375 0.234375q0 1.8125 0.671875 2.765625q0.6875 0.953125 1.953125 0.953125q1.234375 0 1.921875 -0.9375q0.703125 -0.953125 0.703125 -3.015625q0 -1.78125 -0.703125 -2.75q-0.6875 -0.96875 -1.9375 -0.96875q-1.25 0 -1.9375 0.96875q-0.671875 0.96875 -0.671875 2.984375zm3.34375 -11.78125l3.6875 0l-3.25 3.625l-2.75 0l2.3125 -3.625zm10.4921875 5.3125l0.109375 1.46875q1.359375 -1.703125 3.640625 -1.703125q2.015625 0 3.0 1.1875q0.984375 1.1875 1.0 3.546875l0 8.1875l-3.375 0l0 -8.109375q0 -1.078125 -0.46875 -1.5625q-0.46875 -0.484375 -1.5625 -0.484375q-1.4375 0 -2.140625 1.21875l0 8.9375l-3.390625 0l0 -12.6875l3.1875 0zm15.777344 6.25q0 -2.96875 1.328125 -4.71875q1.328125 -1.765625 3.640625 -1.765625q1.84375 0 3.046875 1.390625l0 -6.46875l3.40625 0l0 18.0l-3.0625 0l-0.15625 -1.34375q-1.265625 1.578125 -3.265625 1.578125q-2.234375 0 -3.59375 -1.765625q-1.34375 -1.765625 -1.34375 -4.90625zm3.375 0.25q0 1.78125 0.625 2.734375q0.625 0.9375 1.8125 0.9375q1.5625 0 2.203125 -1.3125l0 -5.015625q-0.625 -1.3125 -2.1875 -1.3125q-2.453125 0 -2.453125 3.96875zm16.507812 6.421875q-2.796875 0 -4.546875 -1.703125q-1.75 -1.71875 -1.75 -4.5625l0 -0.328125q0 -1.921875 0.734375 -3.421875q0.75 -1.5 2.09375 -2.3125q1.359375 -0.828125 3.09375 -0.828125q2.59375 0 4.09375 1.640625q1.5 1.640625 1.5 4.65625l0 1.390625l-8.078125 0q0.15625 1.234375 0.984375 1.984375q0.828125 0.75 2.09375 0.75q1.953125 0 3.0625 -1.421875l1.65625 1.875q-0.75 1.078125 -2.0625 1.6875q-1.296875 0.59375 -2.875 0.59375zm-0.390625 -10.40625q-1.0 0 -1.640625 0.6875q-0.625 0.671875 -0.796875 1.9375l4.71875 0l0 -0.265625q-0.03125 -1.125 -0.625 -1.734375q-0.578125 -0.625 -1.65625 -0.625z" fill-rule="nonzero"/><path fill="#000000" d="m724.76074 396.16962q0 2.921875 -1.328125 4.6875q-1.328125 1.765625 -3.59375 1.765625q-1.921875 0 -3.109375 -1.34375l0 5.984375l-3.390625 0l0 -17.5625l3.140625 0l0.125 1.25q1.234375 -1.484375 3.203125 -1.484375q2.34375 0 3.640625 1.734375q1.3125 1.734375 1.3125 4.78125l0 0.1875zm-3.390625 -0.25q0 -1.765625 -0.625 -2.71875q-0.625 -0.96875 -1.828125 -0.96875q-1.59375 0 -2.1875 1.21875l0 5.1875q0.625 1.25 2.21875 1.25q2.421875 0 2.421875 -3.96875zm12.605469 -3.03125q-0.6875 -0.09375 -1.21875 -0.09375q-1.921875 0 -2.515625 1.296875l0 8.296875l-3.390625 0l0 -12.6875l3.203125 0l0.09375 1.515625q1.015625 -1.75 2.828125 -1.75q0.5625 0 1.046875 0.15625l-0.046875 3.265625zm0.69140625 3.046875q0 -1.890625 0.71875 -3.359375q0.734375 -1.484375 2.09375 -2.296875q1.359375 -0.8125 3.171875 -0.8125q2.5625 0 4.1875 1.578125q1.625 1.5625 1.8125 4.265625l0.015625 0.859375q0 2.921875 -1.625 4.6875q-1.625 1.765625 -4.375 1.765625q-2.734375 0 -4.375 -1.75q-1.625 -1.765625 -1.625 -4.796875l0 -0.140625zm3.375 0.234375q0 1.8125 0.671875 2.765625q0.6875 0.953125 1.953125 0.953125q1.234375 0 1.921875 -0.9375q0.703125 -0.953125 0.703125 -3.015625q0 -1.78125 -0.703125 -2.75q-0.6875 -0.96875 -1.9375 -0.96875q-1.25 0 -1.9375 0.96875q-0.671875 0.96875 -0.671875 2.984375zm22.148438 0q0 3.046875 -1.3125 4.75q-1.296875 1.703125 -3.625 1.703125q-2.0625 0 -3.296875 -1.578125l-0.15625 1.34375l-3.046875 0l0 -18.0l3.390625 0l0 6.453125q1.171875 -1.375 3.078125 -1.375q2.328125 0 3.640625 1.71875q1.328125 1.703125 1.328125 4.796875l0 0.1875zm-3.390625 -0.25q0 -1.921875 -0.609375 -2.796875q-0.609375 -0.890625 -1.8125 -0.890625q-1.625 0 -2.234375 1.3125l0 5.015625q0.625 1.328125 2.25 1.328125q1.640625 0 2.15625 -1.609375q0.25 -0.78125 0.25 -2.359375zm12.824219 6.46875q-0.234375 -0.453125 -0.34375 -1.140625q-1.234375 1.375 -3.203125 1.375q-1.859375 0 -3.09375 -1.078125q-1.21875 -1.078125 -1.21875 -2.71875q0 -2.015625 1.484375 -3.09375q1.5 -1.078125 4.328125 -1.09375l1.5625 0l0 -0.71875q0 -0.890625 -0.453125 -1.40625q-0.453125 -0.53125 -1.421875 -0.53125q-0.859375 0 -1.34375 0.40625q-0.484375 0.40625 -0.484375 1.125l-3.390625 0q0 -1.09375 0.671875 -2.03125q0.6875 -0.9375 1.921875 -1.46875q1.25 -0.546875 2.796875 -0.546875q2.34375 0 3.71875 1.1875q1.375 1.171875 1.375 3.3125l0 5.484375q0.015625 1.8125 0.515625 2.734375l0 0.203125l-3.421875 0zm-2.8125 -2.359375q0.75 0 1.375 -0.328125q0.640625 -0.34375 0.953125 -0.90625l0 -2.171875l-1.265625 0q-2.546875 0 -2.703125 1.75l-0.015625 0.203125q0 0.640625 0.4375 1.046875q0.453125 0.40625 1.21875 0.40625zm19.757812 -3.859375q0 3.046875 -1.3125 4.75q-1.296875 1.703125 -3.625 1.703125q-2.0625 0 -3.296875 -1.578125l-0.15625 1.34375l-3.046875 0l0 -18.0l3.390625 0l0 6.453125q1.171875 -1.375 3.078125 -1.375q2.328125 0 3.640625 1.71875q1.328125 1.703125 1.328125 4.796875l0 0.1875zm-3.390625 -0.25q0 -1.921875 -0.609375 -2.796875q-0.609375 -0.890625 -1.8125 -0.890625q-1.625 0 -2.234375 1.3125l0 5.015625q0.625 1.328125 2.25 1.328125q1.640625 0 2.15625 -1.609375q0.25 -0.78125 0.25 -2.359375zm9.042969 6.46875l-3.390625 0l0 -12.6875l3.390625 0l0 12.6875zm-3.59375 -15.96875q0 -0.75 0.5 -1.234375q0.515625 -0.5 1.390625 -0.5q0.875 0 1.390625 0.5q0.515625 0.484375 0.515625 1.234375q0 0.78125 -0.53125 1.28125q-0.515625 0.484375 -1.375 0.484375q-0.84375 0 -1.375 -0.484375q-0.515625 -0.5 -0.515625 -1.28125zm9.957031 15.96875l-3.390625 0l0 -18.0l3.390625 0l0 18.0zm6.3632812 0l-3.390625 0l0 -12.6875l3.390625 0l0 12.6875zm-3.59375 -15.96875q0 -0.75 0.5 -1.234375q0.515625 -0.5 1.390625 -0.5q0.875 0 1.390625 0.5q0.515625 0.484375 0.515625 1.234375q0 0.78125 -0.53125 1.28125q-0.515625 0.484375 -1.375 0.484375q-0.84375 0 -1.375 -0.484375q-0.515625 -0.5 -0.515625 -1.28125zm5.8632812 9.53125q0 -2.96875 1.328125 -4.71875q1.328125 -1.765625 3.640625 -1.765625q1.84375 0 3.046875 1.390625l0 -6.46875l3.40625 0l0 18.0l-3.0625 0l-0.15625 -1.34375q-1.265625 1.578125 -3.265625 1.578125q-2.234375 0 -3.59375 -1.765625q-1.34375 -1.765625 -1.34375 -4.90625zm3.375 0.25q0 1.78125 0.625 2.734375q0.625 0.9375 1.8125 0.9375q1.5625 0 2.203125 -1.3125l0 -5.015625q-0.625 -1.3125 -2.1875 -1.3125q-2.453125 0 -2.453125 3.96875zm18.023438 6.1875q-0.234375 -0.453125 -0.34375 -1.140625q-1.234375 1.375 -3.203125 1.375q-1.859375 0 -3.09375 -1.078125q-1.21875 -1.078125 -1.21875 -2.71875q0 -2.015625 1.484375 -3.09375q1.5 -1.078125 4.328125 -1.09375l1.5625 0l0 -0.71875q0 -0.890625 -0.453125 -1.40625q-0.453125 -0.53125 -1.421875 -0.53125q-0.859375 0 -1.34375 0.40625q-0.484375 0.40625 -0.484375 1.125l-3.390625 0q0 -1.09375 0.671875 -2.03125q0.6875 -0.9375 1.921875 -1.46875q1.25 -0.546875 2.796875 -0.546875q2.34375 0 3.71875 1.1875q1.375 1.171875 1.375 3.3125l0 5.484375q0.015625 1.8125 0.515625 2.734375l0 0.203125l-3.421875 0zm-2.8125 -2.359375q0.75 0 1.375 -0.328125q0.640625 -0.34375 0.953125 -0.90625l0 -2.171875l-1.265625 0q-2.546875 0 -2.703125 1.75l-0.015625 0.203125q0 0.640625 0.4375 1.046875q0.453125 0.40625 1.21875 0.40625zm7.8046875 -4.078125q0 -2.96875 1.328125 -4.71875q1.328125 -1.765625 3.640625 -1.765625q1.84375 0 3.046875 1.390625l0 -6.46875l3.40625 0l0 18.0l-3.0625 0l-0.15625 -1.34375q-1.265625 1.578125 -3.265625 1.578125q-2.234375 0 -3.59375 -1.765625q-1.34375 -1.765625 -1.34375 -4.90625zm3.375 0.25q0 1.78125 0.625 2.734375q0.625 0.9375 1.8125 0.9375q1.5625 0 2.203125 -1.3125l0 -5.015625q-0.625 -1.3125 -2.1875 -1.3125q-2.453125 0 -2.453125 3.96875z" fill-rule="nonzero"/><path fill="#000000" fill-opacity="0.0" d="m546.96326 377.5636l135.08661 0" fill-rule="evenodd"/><path stroke="#1d7e74" stroke-width="1.0" stroke-linejoin="round" stroke-linecap="butt" d="m546.96326 377.5636l131.29663 0" fill-rule="evenodd"/><path fill="#1d7e74" stroke="#1d7e74" stroke-width="1.0" stroke-linecap="butt" d="m681.54987 377.5636c0 0.9085083 -0.73651123 1.6450195 -1.6450195 1.6450195c-0.9085083 0 -1.6449585 -0.73651123 -1.6449585 -1.6450195c0 -0.9085083 0.7364502 -1.644989 1.6449585 -1.644989c0.9085083 0 1.6450195 0.7364807 1.6450195 1.644989z" fill-rule="nonzero"/><path fill="#155b54" d="m479.417 124.373146l0 0c51.725586 0.34103394 99.38977 28.090355 125.224304 72.90362c25.834534 44.81328 25.963196 99.96652 0.33795166 144.89981l-52.565063 -29.9776l0 0c14.979004 -26.26532 14.903809 -58.504578 -0.1975708 -84.69974c-15.101318 -26.195145 -42.96292 -42.415726 -73.19858 -42.61508z" fill-rule="evenodd"/><path fill="#1d7e74" d="m605.53766 341.43927l0 0c-25.702576 43.853363 -72.40759 71.135315 -123.23105 71.983215c-50.823395 0.8479309 -98.41257 -24.86081 -125.56366 -67.8324l51.04886 -32.25467l0 0c15.894836 25.156403 43.754456 40.206818 73.50751 39.71045c29.753052 -0.49639893 57.095154 -16.467804 72.14191 -42.14044z" fill-rule="evenodd"/><path fill="#249c90" d="m354.43555 341.98584l0 0c-25.279785 -44.449127 -25.398682 -98.89946 -0.31329346 -143.45859c25.085419 -44.559128 71.70047 -72.69969 122.815216 -74.14106l1.7120972 60.7154c-29.79889 0.8403015 -56.974518 17.245682 -71.598816 43.222763c-14.624298 25.977081 -14.554962 57.720535 0.1826477 83.6335z" fill-rule="evenodd"/><g filter="url(#shadowFilter-g35a5229fb0_0_735.1)"><use xlink:href="#g35a5229fb0_0_735.1" transform=""/></g><defs><filter id="shadowFilter-g35a5229fb0_0_735.1" filterUnits="userSpaceOnUse"><feGaussianBlur in="SourceAlpha" stdDeviation="5.0" result="blur"/><feComponentTransfer in="blur" color-interpolation-filters="sRGB"><feFuncR type="linear" slope="0" intercept="0.0"/><feFuncG type="linear" slope="0" intercept="0.0"/><feFuncB type="linear" slope="0" intercept="0.0"/><feFuncA type="linear" slope="0.43" intercept="0"/></feComponentTransfer></filter></defs><g id="g35a5229fb0_0_735.1"><path fill="#249c90" d="m410.30957 319.05627c3.7352905 12.893616 -1.4440613 26.715057 -12.7378845 33.992065c-11.293823 7.2769775 -26.022339 6.2828064 -36.22281 -2.4450378l19.771545 -23.079285z" fill-rule="evenodd"/></g><path fill="#249c90" d="m362.7789 351.75232c-10.6649475 -8.065369 -14.792084 -22.157715 -10.164642 -34.707703c4.6274414 -12.550018 16.920563 -20.604492 30.276459 -19.83722c13.355896 0.76724243 24.631744 10.17572 27.771057 23.171906l-29.537323 7.148712z" fill-rule="evenodd"/><g filter="url(#shadowFilter-g35a5229fb0_0_735.2)"><use xlink:href="#g35a5229fb0_0_735.2" transform=""/></g><defs><filter id="shadowFilter-g35a5229fb0_0_735.2" filterUnits="userSpaceOnUse"><feGaussianBlur in="SourceAlpha" stdDeviation="5.0" result="blur"/><feComponentTransfer in="blur" color-interpolation-filters="sRGB"><feFuncR type="linear" slope="0" intercept="0.0"/><feFuncG type="linear" slope="0" intercept="0.0"/><feFuncB type="linear" slope="0" intercept="0.0"/><feFuncA type="linear" slope="0.43" intercept="0"/></feComponentTransfer></filter></defs><g id="g35a5229fb0_0_735.2"><path fill="#155b54" d="m471.1206 184.17943c-13.0336 -3.2125702 -22.413544 -14.609055 -23.068756 -28.028168c-0.6552124 -13.419113 7.569763 -25.676758 20.228271 -30.146072l10.101501 28.662476z" fill-rule="evenodd"/></g><path fill="#155b54" d="m466.57004 126.66904c12.317047 -5.20282 26.584717 -1.7302246 35.139557 8.552567c8.55484 10.282791 9.383759 24.956085 2.041504 36.13855c-7.342224 11.182449 -21.1279 16.242676 -33.952393 12.4627075l8.577423 -29.153702z" fill-rule="evenodd"/><g filter="url(#shadowFilter-g35a5229fb0_0_735.3)"><use xlink:href="#g35a5229fb0_0_735.3" transform=""/></g><defs><filter id="shadowFilter-g35a5229fb0_0_735.3" filterUnits="userSpaceOnUse"><feGaussianBlur in="SourceAlpha" stdDeviation="5.0" result="blur"/><feComponentTransfer in="blur" color-interpolation-filters="sRGB"><feFuncR type="linear" slope="0" intercept="0.0"/><feFuncG type="linear" slope="0" intercept="0.0"/><feFuncB type="linear" slope="0" intercept="0.0"/><feFuncA type="linear" slope="0.43" intercept="0"/></feComponentTransfer></filter></defs><g id="g35a5229fb0_0_735.3"><path fill="#1d7e74" d="m557.8545 304.16306l0 0c9.299683 -9.681061 23.859924 -12.106018 35.80902 -5.963867c11.949158 6.142151 18.451782 19.393982 15.992432 32.591125l-29.874023 -5.583252z" fill-rule="evenodd"/></g><path fill="#1d7e74" d="m609.9362 328.97742c-1.6533813 13.268158 -11.795349 23.887878 -24.978455 26.15509c-13.183105 2.2672424 -26.305176 -4.3515625 -32.318115 -16.30127c-6.0129395 -11.949707 -3.50177 -26.418427 6.1846313 -35.634674l20.959106 22.005005z" fill-rule="evenodd"/><path fill="#000000" fill-opacity="0.0" d="m455.06958 131.80318l53.44879 0l0 28.031494l-53.44879 0z" fill-rule="evenodd"/><path fill="#ffffff" d="m480.79175 155.01755q0 3.140625 -1.296875 4.8125q-1.296875 1.65625 -3.8125 1.65625q-2.484375 0 -3.796875 -1.625q-1.3125 -1.640625 -1.34375 -4.6875l0 -2.796875q0 -3.171875 1.3125 -4.8125q1.328125 -1.65625 3.796875 -1.65625q2.484375 0 3.796875 1.640625q1.3125 1.625 1.34375 4.671875l0 2.796875zm-3.0 -3.0625q0 -1.890625 -0.515625 -2.75q-0.515625 -0.859375 -1.609375 -0.859375q-1.0625 0 -1.578125 0.828125q-0.5 0.8125 -0.53125 2.546875l0 3.6875q0 1.859375 0.5 2.765625q0.515625 0.890625 1.625 0.890625q1.109375 0 1.59375 -0.859375q0.484375 -0.875 0.515625 -2.65625l0 -3.59375zm8.095978 0.40625l1.609375 0q1.140625 0 1.6875 -0.5625q0.5625 -0.578125 0.5625 -1.515625q0 -0.921875 -0.546875 -1.421875q-0.546875 -0.515625 -1.515625 -0.515625q-0.859375 0 -1.453125 0.46875q-0.578125 0.46875 -0.578125 1.234375l-3.0 0q0 -1.1875 0.640625 -2.125q0.640625 -0.953125 1.78125 -1.484375q1.15625 -0.53125 2.546875 -0.53125q2.40625 0 3.765625 1.15625q1.359375 1.15625 1.359375 3.171875q0 1.03125 -0.640625 1.90625q-0.625 0.875 -1.65625 1.34375q1.28125 0.46875 1.90625 1.390625q0.625 0.90625 0.625 2.15625q0 2.015625 -1.46875 3.234375q-1.46875 1.21875 -3.890625 1.21875q-2.28125 0 -3.71875 -1.1875q-1.4375 -1.203125 -1.4375 -3.171875l3.0 0q0 0.859375 0.640625 1.40625q0.640625 0.53125 1.578125 0.53125q1.078125 0 1.6875 -0.5625q0.609375 -0.578125 0.609375 -1.515625q0 -2.265625 -2.5 -2.265625l-1.59375 0l0 -2.359375z" fill-rule="nonzero"/><path fill="#000000" fill-opacity="0.0" d="m354.39746 303.15515l53.448822 0l0 28.031494l-53.448822 0z" fill-rule="evenodd"/><path fill="#ffffff" d="m380.11963 326.36954q0 3.140625 -1.296875 4.8125q-1.296875 1.65625 -3.8125 1.65625q-2.484375 0 -3.796875 -1.625q-1.3125 -1.640625 -1.34375 -4.6875l0 -2.796875q0 -3.171875 1.3125 -4.8125q1.328125 -1.65625 3.796875 -1.65625q2.484375 0 3.796875 1.640625q1.3125 1.625 1.34375 4.671875l0 2.796875zm-3.0 -3.0625q0 -1.890625 -0.515625 -2.75q-0.515625 -0.859375 -1.609375 -0.859375q-1.0625 0 -1.578125 0.828125q-0.5 0.8125 -0.53125 2.546875l0 3.6875q0 1.859375 0.5 2.765625q0.515625 0.890625 1.625 0.890625q1.109375 0 1.59375 -0.859375q0.484375 -0.875 0.515625 -2.65625l0 -3.59375zm12.345978 9.328125l-3.015625 0l0 -11.59375l-3.59375 1.109375l0 -2.453125l6.28125 -2.25l0.328125 0l0 15.1875z" fill-rule="nonzero"/><path fill="#000000" fill-opacity="0.0" d="m554.5264 300.05017l53.448853 0l0 28.031494l-53.448853 0z" fill-rule="evenodd"/><path fill="#ffffff" d="m580.24866 323.26453q0 3.140625 -1.296875 4.8125q-1.296875 1.65625 -3.8125 1.65625q-2.484375 0 -3.796875 -1.625q-1.3125 -1.640625 -1.34375 -4.6875l0 -2.796875q0 -3.171875 1.3125 -4.8125q1.328125 -1.65625 3.796875 -1.65625q2.484375 0 3.796875 1.640625q1.3125 1.625 1.34375 4.671875l0 2.796875zm-3.0 -3.0625q0 -1.890625 -0.515625 -2.75q-0.515625 -0.859375 -1.609375 -0.859375q-1.0625 0 -1.578125 0.828125q-0.5 0.8125 -0.53125 2.546875l0 3.6875q0 1.859375 0.5 2.765625q0.515625 0.890625 1.625 0.890625q1.109375 0 1.59375 -0.859375q0.484375 -0.875 0.515625 -2.65625l0 -3.59375zm15.424072 9.328125l-10.390625 0l0 -2.0625l4.90625 -5.234375q1.015625 -1.09375 1.5 -1.921875q0.484375 -0.828125 0.484375 -1.5625q0 -1.0 -0.515625 -1.578125q-0.515625 -0.578125 -1.453125 -0.578125q-1.03125 0 -1.625 0.703125q-0.578125 0.703125 -0.578125 1.84375l-3.015625 0q0 -1.390625 0.65625 -2.53125q0.65625 -1.140625 1.859375 -1.796875q1.21875 -0.65625 2.75 -0.65625q2.34375 0 3.640625 1.125q1.296875 1.125 1.296875 3.1875q0 1.109375 -0.59375 2.28125q-0.578125 1.171875 -1.984375 2.71875l-3.453125 3.640625l6.515625 0l0 2.421875z" fill-rule="nonzero"/><path fill="#000000" fill-opacity="0.0" d="m703.042 379.3484l0 -205.79529" fill-rule="evenodd"/><path stroke="#45818e" stroke-width="3.0" stroke-linejoin="round" stroke-linecap="butt" stroke-dasharray="3.0,9.0" d="m703.042 379.3484l0 -187.79527" fill-rule="evenodd"/><path fill="#45818e" stroke="#45818e" stroke-width="3.0" stroke-linecap="butt" d="m707.9972 191.5531l-4.9552 -13.614288l-4.9552 13.614288z" fill-rule="evenodd"/><path fill="#000000" fill-opacity="0.0" d="m721.73883 231.41733l142.86615 0l0 53.322815l-142.86615 0z" fill-rule="evenodd"/><path fill="#000000" d="m742.36383 255.5667l-7.390625 0l0 6.0468903l8.59375 0l0 1.84375l-10.84375 0l0 -17.062515l10.71875 0l0 1.84375l-8.46875 0l0 5.484375l7.390625 0l0 1.84375zm11.046875 4.5312653q0 -0.890625 -0.671875 -1.375q-0.65625 -0.484375 -2.3125 -0.828125q-1.640625 -0.359375 -2.609375 -0.84375q-0.96875 -0.5 -1.4375 -1.1718903q-0.453125 -0.6875 -0.453125 -1.625q0 -1.5625 1.3125 -2.640625q1.328125 -1.078125 3.375 -1.078125q2.15625 0 3.5 1.125q1.34375 1.109375 1.34375 2.84375l-2.1875 0q0 -0.890625 -0.75 -1.53125q-0.75 -0.65625 -1.90625 -0.65625q-1.1875 0 -1.859375 0.515625q-0.65625 0.515625 -0.65625 1.359375q0 0.78125 0.609375 1.1875q0.625 0.390625 2.25 0.75001526q1.625 0.359375 2.625 0.875q1.015625 0.5 1.5 1.21875q0.484375 0.703125 0.484375 1.71875q0 1.703125 -1.359375 2.734375q-1.359375 1.015625 -3.515625 1.015625q-1.53125 0 -2.703125 -0.53125q-1.171875 -0.546875 -1.84375 -1.515625q-0.65625 -0.96875 -0.65625 -2.09375l2.171875 0q0.0625 1.09375 0.875 1.734375q0.8125 0.640625 2.15625 0.640625q1.21875 0 1.96875 -0.5q0.75 -0.5 0.75 -1.328125zm7.921875 -12.39064l0 3.0625l2.375 0l0 1.6875l-2.375 0l0 7.8593903q0 0.765625 0.3125 1.140625q0.328125 0.375 1.09375 0.375q0.375 0 1.03125 -0.140625l0 1.765625q-0.859375 0.234375 -1.671875 0.234375q-1.453125 0 -2.1875 -0.875q-0.734375 -0.890625 -0.734375 -2.5l0 -7.8593903l-2.3125 0l0 -1.6875l2.3125 0l0 -3.0625l2.15625 0zm7.2617188 15.750015l-2.171875 0l0 -12.687515l2.171875 0l0 12.687515zm-2.34375 -16.04689q0 -0.53125 0.3125 -0.890625q0.328125 -0.359375 0.953125 -0.359375q0.640625 0 0.96875 0.359375q0.328125 0.359375 0.328125 0.890625q0 0.53125 -0.328125 0.890625q-0.328125 0.34375 -0.96875 0.34375q-0.625 0 -0.953125 -0.34375q-0.3125 -0.359375 -0.3125 -0.890625zm7.8554688 3.359375l0.046875 1.40625q1.40625 -1.640625 3.765625 -1.640625q2.65625 0 3.625 2.046875q0.625 -0.921875 1.640625 -1.484375q1.015625 -0.5625 2.40625 -0.5625q4.171875 0 4.234375 4.421875l0 8.500015l-2.171875 0l0 -8.375015q0 -1.359375 -0.625 -2.03125q-0.609375 -0.671875 -2.078125 -0.671875q-1.203125 0 -2.0 0.71875q-0.796875 0.71875 -0.921875 1.9375l0 8.42189l-2.1875 0l0 -8.312515q0 -2.765625 -2.703125 -2.765625q-2.140625 0 -2.921875 1.8125l0 9.26564l-2.171875 0l0 -12.687515l2.0625 0zm26.816406 12.687515q-0.1875 -0.375 -0.296875 -1.34375q-1.515625 1.578125 -3.609375 1.578125q-1.875 0 -3.078125 -1.0625q-1.203125 -1.0625 -1.203125 -2.6875q0 -1.984375 1.5 -3.078125q1.515625 -1.0937653 4.234375 -1.0937653l2.109375 0l0 -1.0q0 -1.140625 -0.6875 -1.8125q-0.671875 -0.671875 -1.984375 -0.671875q-1.171875 0 -1.953125 0.59375q-0.78125 0.578125 -0.78125 1.40625l-2.1875 0q0 -0.9375 0.671875 -1.828125q0.6875 -0.890625 1.828125 -1.40625q1.15625 -0.515625 2.546875 -0.515625q2.1875 0 3.421875 1.109375q1.25 1.09375 1.296875 3.015625l0 5.8281403q0 1.75 0.453125 2.78125l0 0.1875l-2.28125 0zm-3.59375 -1.65625q1.015625 0 1.921875 -0.515625q0.921875 -0.53125 1.328125 -1.375l0 -2.609375l-1.6875 0q-3.984375 0 -3.984375 2.328125q0 1.03125 0.671875 1.609375q0.6875 0.5625 1.75 0.5625zm13.9140625 0.125q1.15625 0 2.015625 -0.703125q0.875 -0.703125 0.96875 -1.765625l2.046875 0q-0.0625 1.09375 -0.75 2.078125q-0.6875 0.984375 -1.84375 1.578125q-1.15625 0.578125 -2.4375 0.578125q-2.59375 0 -4.125 -1.71875q-1.53125 -1.734375 -1.53125 -4.734375l0 -0.375q0 -1.8437653 0.671875 -3.2812653q0.6875 -1.453125 1.953125 -2.25q1.28125 -0.796875 3.015625 -0.796875q2.125 0 3.53125 1.28125q1.421875 1.28125 1.515625 3.3125l-2.046875 0q-0.09375 -1.21875 -0.9375 -2.015625q-0.828125 -0.796875 -2.0625 -0.796875q-1.65625 0 -2.5625 1.203125q-0.90625 1.1875 -0.90625 3.4375153l0 0.40625q0 2.1875 0.890625 3.375q0.90625 1.1875 2.59375 1.1875zm9.828125 1.53125l-2.171875 0l0 -12.687515l2.171875 0l0 12.687515zm-2.34375 -16.04689q0 -0.53125 0.3125 -0.890625q0.328125 -0.359375 0.953125 -0.359375q0.640625 0 0.96875 0.359375q0.328125 0.359375 0.328125 0.890625q0 0.53125 -0.328125 0.890625q-0.328125 0.34375 -0.96875 0.34375q-0.625 0 -0.953125 -0.34375q-0.3125 -0.359375 -0.3125 -0.890625zm5.2304688 9.593765q0 -1.8750153 0.734375 -3.3593903q0.734375 -1.484375 2.03125 -2.296875q1.3125 -0.8125 3.0 -0.8125q2.578125 0 4.171875 1.796875q1.609375 1.796875 1.609375 4.7656403l0 0.15625q0 1.859375 -0.71875 3.328125q-0.703125 1.46875 -2.015625 2.296875q-1.3125 0.8125 -3.03125 0.8125q-2.578125 0 -4.1875 -1.796875q-1.59375 -1.796875 -1.59375 -4.75l0 -0.140625zm2.1875 0.25q0 2.109375 0.96875 3.390625q0.984375 1.28125 2.625 1.28125q1.65625 0 2.625 -1.296875q0.96875 -1.296875 0.96875 -3.625q0 -2.0937653 -0.984375 -3.3906403q-0.984375 -1.296875 -2.625 -1.296875q-1.609375 0 -2.59375 1.28125q-0.984375 1.28125 -0.984375 3.6562653zm4.453125 -11.79689l2.625 0l-3.140625 3.4375l-1.75 0l2.265625 -3.4375zm9.671875 5.3125l0.078125 1.59375q1.453125 -1.828125 3.796875 -1.828125q4.015625 0 4.046875 4.546875l0 8.375015l-2.15625 0l0 -8.39064q-0.015625 -1.375 -0.640625 -2.03125q-0.609375 -0.65625 -1.90625 -0.65625q-1.0625 0 -1.859375 0.5625q-0.796875 0.5625 -1.234375 1.484375l0 9.031265l-2.171875 0l0 -12.687515l2.046875 0z" fill-rule="nonzero"/></g></svg>