<svg version="1.1" viewBox="0.0 0.0 960.0 540.0" fill="none" stroke="none" stroke-linecap="square" stroke-miterlimit="10" xmlns:xlink="http://www.w3.org/1999/xlink" xmlns="http://www.w3.org/2000/svg"><clipPath id="g35a5229fb0_0_805.0"><path d="m0 0l960.0 0l0 540.0l-960.0 0l0 -540.0z" clip-rule="nonzero"/></clipPath><g clip-path="url(#g35a5229fb0_0_805.0)"><path fill="#ffffff" d="m0 0l960.0 0l0 540.0l-960.0 0z" fill-rule="evenodd"/><path fill="#000000" fill-opacity="0.0" d="m198.16536 0l612.31494 0l0 47.559055l-612.31494 0z" fill-rule="evenodd"/><path fill="#000000" d="m219.86848 14.680626l0 2.578125l-7.703125 0l0 4.8125l6.0625 0l0 2.484375l-6.0625 0l0 4.90625l7.703125 0l0 2.578125l-10.953125 0l0 -17.359375l10.953125 0zm5.771347 -0.46875l0 17.828125l-2.953125 0l0 -17.828125l2.953125 0zm7.979828 21.84375l0 -16.328125l1.8125 0q0.296875 0 0.5 0.140625q0.203125 0.125 0.265625 0.40625l0.234375 1.140625q0.75 -0.859375 1.703125 -1.390625q0.96875 -0.53125 2.265625 -0.53125q1.015625 0 1.84375 0.421875q0.84375 0.421875 1.4375 1.21875q0.609375 0.796875 0.9375 1.96875q0.328125 1.171875 0.328125 2.6875q0 1.375 -0.375 2.5625q-0.359375 1.171875 -1.0625 2.03125q-0.6875 0.859375 -1.671875 1.359375q-0.96875 0.484375 -2.171875 0.484375q-1.046875 0 -1.78125 -0.3125q-0.71875 -0.328125 -1.296875 -0.890625l0 5.03125l-2.96875 0zm5.765625 -14.21875q-0.921875 0 -1.578125 0.390625q-0.65625 0.390625 -1.21875 1.09375l0 5.53125q0.5 0.625 1.09375 0.875q0.59375 0.234375 1.28125 0.234375q0.671875 0 1.21875 -0.25q0.546875 -0.25 0.921875 -0.765625q0.375 -0.515625 0.578125 -1.296875q0.21875 -0.796875 0.21875 -1.859375q0 -1.078125 -0.1875 -1.828125q-0.171875 -0.75 -0.5 -1.21875q-0.3125 -0.46875 -0.78125 -0.6875q-0.453125 -0.21875 -1.046875 -0.21875zm7.806473 10.203125l0 -12.3125l1.75 0q0.453125 0 0.625 0.171875q0.1875 0.171875 0.25 0.578125l0.171875 1.484375q0.671875 -1.140625 1.546875 -1.796875q0.890625 -0.671875 2.0 -0.671875q0.90625 0 1.515625 0.421875l-0.390625 2.21875q-0.03125 0.21875 -0.15625 0.3125q-0.125 0.09375 -0.328125 0.09375q-0.171875 0 -0.484375 -0.078125q-0.3125 -0.09375 -0.828125 -0.09375q-0.921875 0 -1.59375 0.515625q-0.65625 0.5 -1.109375 1.484375l0 7.671875l-2.96875 0zm15.069687 -12.5q1.375 0 2.5 0.453125q1.125 0.4375 1.90625 1.25q0.796875 0.8125 1.21875 2.0q0.4375 1.171875 0.4375 2.609375q0 1.46875 -0.4375 2.65625q-0.421875 1.171875 -1.21875 2.0q-0.78125 0.828125 -1.90625 1.28125q-1.125 0.4375 -2.5 0.4375q-1.390625 0 -2.515625 -0.4375q-1.125 -0.453125 -1.921875 -1.28125q-0.796875 -0.828125 -1.234375 -2.0q-0.4375 -1.1875 -0.4375 -2.65625q0 -1.4375 0.4375 -2.609375q0.4375 -1.1875 1.234375 -2.0q0.796875 -0.8125 1.921875 -1.25q1.125 -0.453125 2.515625 -0.453125zm0 10.40625q1.53125 0 2.265625 -1.03125q0.75 -1.03125 0.75 -3.03125q0 -1.984375 -0.75 -3.03125q-0.734375 -1.046875 -2.265625 -1.046875q-1.5625 0 -2.3125 1.046875q-0.734375 1.046875 -0.734375 3.03125q0 1.984375 0.734375 3.03125q0.75 1.03125 2.3125 1.03125zm8.4253235 2.09375l0 -17.828125l2.953125 0l0 7.03125q0.734375 -0.78125 1.65625 -1.234375q0.921875 -0.46875 2.171875 -0.46875q1.0 0 1.828125 0.421875q0.84375 0.40625 1.4375 1.203125q0.609375 0.78125 0.9375 1.953125q0.34375 1.15625 0.34375 2.671875q0 1.375 -0.375 2.5625q-0.375 1.171875 -1.0625 2.03125q-0.6875 0.859375 -1.671875 1.359375q-0.96875 0.484375 -2.1875 0.484375q-0.5625 0 -1.03125 -0.125q-0.46875 -0.109375 -0.859375 -0.3125q-0.375 -0.203125 -0.703125 -0.5q-0.328125 -0.296875 -0.640625 -0.65625l-0.125 0.828125q-0.078125 0.3125 -0.25 0.453125q-0.171875 0.125 -0.46875 0.125l-1.953125 0zm5.75 -10.203125q-0.921875 0 -1.578125 0.390625q-0.65625 0.390625 -1.21875 1.09375l0 5.53125q0.515625 0.625 1.109375 0.875q0.59375 0.234375 1.28125 0.234375q0.671875 0 1.203125 -0.25q0.546875 -0.25 0.921875 -0.765625q0.390625 -0.515625 0.59375 -1.296875q0.203125 -0.796875 0.203125 -1.859375q0 -1.078125 -0.171875 -1.828125q-0.171875 -0.75 -0.5 -1.21875q-0.328125 -0.46875 -0.796875 -0.6875q-0.453125 -0.21875 -1.046875 -0.21875zm11.03949 -7.625l0 17.828125l-2.953125 0l0 -17.828125l2.953125 0zm8.441528 5.328125q1.171875 0 2.140625 0.375q0.984375 0.359375 1.6875 1.078125q0.703125 0.71875 1.09375 1.765625q0.40625 1.03125 0.40625 2.359375q0 0.328125 -0.03125 0.5625q-0.03125 0.21875 -0.109375 0.34375q-0.078125 0.125 -0.21875 0.1875q-0.125 0.046875 -0.328125 0.046875l-7.609375 0q0.140625 1.890625 1.015625 2.78125q0.890625 0.890625 2.359375 0.890625q0.71875 0 1.234375 -0.171875q0.53125 -0.171875 0.921875 -0.375q0.390625 -0.203125 0.6875 -0.359375q0.296875 -0.171875 0.5625 -0.171875q0.1875 0 0.3125 0.078125q0.140625 0.0625 0.234375 0.1875l0.859375 1.078125q-0.484375 0.578125 -1.109375 0.96875q-0.609375 0.390625 -1.28125 0.625q-0.65625 0.234375 -1.34375 0.328125q-0.6875 0.109375 -1.34375 0.109375q-1.28125 0 -2.390625 -0.421875q-1.09375 -0.4375 -1.921875 -1.265625q-0.8125 -0.84375 -1.28125 -2.0625q-0.46875 -1.234375 -0.46875 -2.859375q0 -1.265625 0.40625 -2.375q0.421875 -1.109375 1.171875 -1.921875q0.765625 -0.828125 1.859375 -1.296875q1.109375 -0.484375 2.484375 -0.484375zm0.0625 2.125q-1.296875 0 -2.03125 0.734375q-0.734375 0.71875 -0.9375 2.0625l5.578125 0q0 -0.5625 -0.15625 -1.078125q-0.15625 -0.515625 -0.484375 -0.890625q-0.328125 -0.390625 -0.828125 -0.609375q-0.484375 -0.21875 -1.140625 -0.21875zm7.6718445 10.375l0 -12.3125l1.8125 0q0.578125 0 0.765625 0.546875l0.1875 0.90625q0.328125 -0.359375 0.671875 -0.65625q0.359375 -0.296875 0.765625 -0.515625q0.40625 -0.21875 0.859375 -0.34375q0.46875 -0.125 1.015625 -0.125q1.15625 0 1.90625 0.625q0.75 0.625 1.125 1.671875q0.296875 -0.609375 0.71875 -1.046875q0.4375 -0.4375 0.953125 -0.703125q0.515625 -0.28125 1.09375 -0.40625q0.59375 -0.140625 1.171875 -0.140625q1.015625 0 1.8125 0.3125q0.796875 0.3125 1.328125 0.90625q0.546875 0.59375 0.828125 1.46875q0.28125 0.859375 0.28125 1.96875l0 7.84375l-2.96875 0l0 -7.84375q0 -1.171875 -0.515625 -1.765625q-0.515625 -0.59375 -1.5 -0.59375q-0.46875 0 -0.859375 0.15625q-0.390625 0.15625 -0.6875 0.453125q-0.28125 0.296875 -0.453125 0.75q-0.171875 0.4375 -0.171875 1.0l0 7.84375l-2.96875 0l0 -7.84375q0 -1.234375 -0.5 -1.796875q-0.5 -0.5625 -1.46875 -0.5625q-0.640625 0 -1.203125 0.328125q-0.546875 0.3125 -1.03125 0.859375l0 9.015625l-2.96875 0zm29.86441 0l-1.328125 0q-0.421875 0 -0.671875 -0.125q-0.234375 -0.125 -0.359375 -0.515625l-0.265625 -0.875q-0.46875 0.421875 -0.921875 0.75q-0.4375 0.3125 -0.921875 0.53125q-0.484375 0.203125 -1.03125 0.3125q-0.53125 0.109375 -1.1875 0.109375q-0.78125 0 -1.4375 -0.203125q-0.65625 -0.21875 -1.140625 -0.625q-0.46875 -0.421875 -0.734375 -1.046875q-0.265625 -0.625 -0.265625 -1.453125q0 -0.703125 0.359375 -1.375q0.375 -0.6875 1.21875 -1.21875q0.859375 -0.546875 2.265625 -0.90625q1.421875 -0.375 3.53125 -0.421875l0 -0.71875q0 -1.234375 -0.53125 -1.828125q-0.515625 -0.59375 -1.515625 -0.59375q-0.71875 0 -1.203125 0.171875q-0.46875 0.171875 -0.828125 0.390625q-0.359375 0.203125 -0.65625 0.375q-0.296875 0.15625 -0.65625 0.15625q-0.296875 0 -0.515625 -0.15625q-0.21875 -0.15625 -0.34375 -0.375l-0.546875 -0.953125q2.125 -1.953125 5.125 -1.953125q1.078125 0 1.921875 0.359375q0.84375 0.359375 1.4375 0.984375q0.59375 0.625 0.890625 1.515625q0.3125 0.875 0.3125 1.90625l0 7.78125zm-5.765625 -1.84375q0.453125 0 0.84375 -0.078125q0.390625 -0.09375 0.71875 -0.265625q0.34375 -0.171875 0.65625 -0.40625q0.328125 -0.25 0.65625 -0.59375l0 -2.0625q-1.296875 0.046875 -2.171875 0.21875q-0.875 0.15625 -1.40625 0.40625q-0.515625 0.25 -0.75 0.59375q-0.21875 0.328125 -0.21875 0.734375q0 0.78125 0.46875 1.125q0.46875 0.328125 1.203125 0.328125zm21.977356 1.84375q-0.578125 0 -0.765625 -0.546875l-0.234375 -1.1875q-0.375 0.4375 -0.796875 0.796875q-0.421875 0.34375 -0.90625 0.59375q-0.484375 0.25 -1.046875 0.390625q-0.5625 0.140625 -1.203125 0.140625q-1.015625 0 -1.859375 -0.421875q-0.828125 -0.421875 -1.4375 -1.21875q-0.609375 -0.796875 -0.9375 -1.96875q-0.328125 -1.1875 -0.328125 -2.703125q0 -1.359375 0.359375 -2.53125q0.375 -1.1875 1.078125 -2.046875q0.703125 -0.859375 1.671875 -1.34375q0.96875 -0.5 2.1875 -0.5q1.03125 0 1.75 0.34375q0.734375 0.328125 1.3125 0.875l0 -6.5l2.96875 0l0 17.828125l-1.8125 0zm-3.953125 -2.171875q0.921875 0 1.5625 -0.375q0.65625 -0.390625 1.234375 -1.09375l0 -5.53125q-0.5 -0.609375 -1.09375 -0.859375q-0.59375 -0.25 -1.28125 -0.25q-0.671875 0 -1.21875 0.25q-0.546875 0.25 -0.921875 0.765625q-0.375 0.5 -0.578125 1.296875q-0.203125 0.78125 -0.203125 1.84375q0 1.078125 0.171875 1.828125q0.171875 0.75 0.484375 1.234375q0.328125 0.46875 0.796875 0.6875q0.46875 0.203125 1.046875 0.203125zm14.055115 -10.328125q1.171875 0 2.140625 0.375q0.984375 0.359375 1.6875 1.078125q0.703125 0.71875 1.09375 1.765625q0.40625 1.03125 0.40625 2.359375q0 0.328125 -0.03125 0.5625q-0.03125 0.21875 -0.109375 0.34375q-0.078125 0.125 -0.21875 0.1875q-0.125 0.046875 -0.328125 0.046875l-7.609375 0q0.140625 1.890625 1.015625 2.78125q0.890625 0.890625 2.359375 0.890625q0.71875 0 1.234375 -0.171875q0.53125 -0.171875 0.921875 -0.375q0.390625 -0.203125 0.6875 -0.359375q0.296875 -0.171875 0.5625 -0.171875q0.1875 0 0.3125 0.078125q0.140625 0.0625 0.234375 0.1875l0.859375 1.078125q-0.484375 0.578125 -1.109375 0.96875q-0.609375 0.390625 -1.28125 0.625q-0.65625 0.234375 -1.34375 0.328125q-0.6875 0.109375 -1.34375 0.109375q-1.28125 0 -2.390625 -0.421875q-1.09375 -0.4375 -1.921875 -1.265625q-0.8125 -0.84375 -1.28125 -2.0625q-0.46875 -1.234375 -0.46875 -2.859375q0 -1.265625 0.40625 -2.375q0.421875 -1.109375 1.171875 -1.921875q0.765625 -0.828125 1.859375 -1.296875q1.109375 -0.484375 2.484375 -0.484375zm0.0625 2.125q-1.296875 0 -2.03125 0.734375q-0.734375 0.71875 -0.9375 2.0625l5.578125 0q0 -0.5625 -0.15625 -1.078125q-0.15625 -0.515625 -0.484375 -0.890625q-0.328125 -0.390625 -0.828125 -0.609375q-0.484375 -0.21875 -1.140625 -0.21875zm15.460114 -7.453125l0 17.828125l-2.953125 0l0 -17.828125l2.953125 0zm13.004059 17.828125l-1.328125 0q-0.421875 0 -0.671875 -0.125q-0.234375 -0.125 -0.359375 -0.515625l-0.265625 -0.875q-0.46875 0.421875 -0.921875 0.75q-0.4375 0.3125 -0.921875 0.53125q-0.484375 0.203125 -1.03125 0.3125q-0.53125 0.109375 -1.1875 0.109375q-0.78125 0 -1.4375 -0.203125q-0.65625 -0.21875 -1.140625 -0.625q-0.46875 -0.421875 -0.734375 -1.046875q-0.265625 -0.625 -0.265625 -1.453125q0 -0.703125 0.359375 -1.375q0.375 -0.6875 1.21875 -1.21875q0.859375 -0.546875 2.265625 -0.90625q1.421875 -0.375 3.53125 -0.421875l0 -0.71875q0 -1.234375 -0.53125 -1.828125q-0.515625 -0.59375 -1.515625 -0.59375q-0.71875 0 -1.203125 0.171875q-0.46875 0.171875 -0.828125 0.390625q-0.359375 0.203125 -0.65625 0.375q-0.296875 0.15625 -0.65625 0.15625q-0.296875 0 -0.515625 -0.15625q-0.21875 -0.15625 -0.34375 -0.375l-0.546875 -0.953125q2.125 -1.953125 5.125 -1.953125q1.078125 0 1.921875 0.359375q0.84375 0.359375 1.4375 0.984375q0.59375 0.625 0.890625 1.515625q0.3125 0.875 0.3125 1.90625l0 7.78125zm-5.765625 -1.84375q0.453125 0 0.84375 -0.078125q0.390625 -0.09375 0.71875 -0.265625q0.34375 -0.171875 0.65625 -0.40625q0.328125 -0.25 0.65625 -0.59375l0 -2.0625q-1.296875 0.046875 -2.171875 0.21875q-0.875 0.15625 -1.40625 0.40625q-0.515625 0.25 -0.75 0.59375q-0.21875 0.328125 -0.21875 0.734375q0 0.78125 0.46875 1.125q0.46875 0.328125 1.203125 0.328125zm16.461731 -10.46875l0 12.3125l-2.953125 0l0 -12.3125l2.953125 0zm0.453125 -3.59375q0 0.390625 -0.15625 0.734375q-0.15625 0.328125 -0.421875 0.578125q-0.25 0.25 -0.609375 0.40625q-0.34375 0.140625 -0.734375 0.140625q-0.390625 0 -0.734375 -0.140625q-0.328125 -0.15625 -0.59375 -0.40625q-0.25 -0.25 -0.40625 -0.578125q-0.140625 -0.34375 -0.140625 -0.734375q0 -0.390625 0.140625 -0.734375q0.15625 -0.34375 0.40625 -0.59375q0.265625 -0.265625 0.59375 -0.40625q0.34375 -0.15625 0.734375 -0.15625q0.390625 0 0.734375 0.15625q0.359375 0.140625 0.609375 0.40625q0.265625 0.25 0.421875 0.59375q0.15625 0.34375 0.15625 0.734375zm2.8946838 15.90625l0 -12.3125l1.8125 0q0.578125 0 0.765625 0.546875l0.203125 0.96875q0.375 -0.390625 0.78125 -0.703125q0.421875 -0.3125 0.875 -0.53125q0.46875 -0.234375 0.984375 -0.34375q0.53125 -0.125 1.15625 -0.125q1.015625 0 1.796875 0.34375q0.78125 0.34375 1.296875 0.96875q0.515625 0.609375 0.78125 1.46875q0.28125 0.84375 0.28125 1.875l0 7.84375l-2.96875 0l0 -7.84375q0 -1.125 -0.53125 -1.734375q-0.515625 -0.625 -1.546875 -0.625q-0.78125 0 -1.453125 0.359375q-0.671875 0.34375 -1.265625 0.9375l0 8.90625l-2.96875 0zm19.383942 0l-2.6875 0l-4.890625 -12.3125l2.453125 0q0.328125 0 0.546875 0.15625q0.21875 0.15625 0.3125 0.390625l2.375 6.578125q0.203125 0.578125 0.34375 1.140625q0.140625 0.546875 0.234375 1.09375q0.109375 -0.546875 0.25 -1.09375q0.140625 -0.5625 0.359375 -1.140625l2.4375 -6.578125q0.078125 -0.234375 0.296875 -0.390625q0.21875 -0.15625 0.515625 -0.15625l2.34375 0l-4.890625 12.3125zm11.329987 -12.5q1.171875 0 2.140625 0.375q0.984375 0.359375 1.6875 1.078125q0.703125 0.71875 1.09375 1.765625q0.40625 1.03125 0.40625 2.359375q0 0.328125 -0.03125 0.5625q-0.03125 0.21875 -0.109375 0.34375q-0.078125 0.125 -0.21875 0.1875q-0.125 0.046875 -0.328125 0.046875l-7.609375 0q0.140625 1.890625 1.015625 2.78125q0.890625 0.890625 2.359375 0.890625q0.71875 0 1.234375 -0.171875q0.53125 -0.171875 0.921875 -0.375q0.390625 -0.203125 0.6875 -0.359375q0.296875 -0.171875 0.5625 -0.171875q0.1875 0 0.3125 0.078125q0.140625 0.0625 0.234375 0.1875l0.859375 1.078125q-0.484375 0.578125 -1.109375 0.96875q-0.609375 0.390625 -1.28125 0.625q-0.65625 0.234375 -1.34375 0.328125q-0.6875 0.109375 -1.34375 0.109375q-1.28125 0 -2.390625 -0.421875q-1.09375 -0.4375 -1.921875 -1.265625q-0.8125 -0.84375 -1.28125 -2.0625q-0.46875 -1.234375 -0.46875 -2.859375q0 -1.265625 0.40625 -2.375q0.421875 -1.109375 1.171875 -1.921875q0.765625 -0.828125 1.859375 -1.296875q1.109375 -0.484375 2.484375 -0.484375zm0.0625 2.125q-1.296875 0 -2.03125 0.734375q-0.734375 0.71875 -0.9375 2.0625l5.578125 0q0 -0.5625 -0.15625 -1.078125q-0.15625 -0.515625 -0.484375 -0.890625q-0.328125 -0.390625 -0.828125 -0.609375q-0.484375 -0.21875 -1.140625 -0.21875zm7.6718445 10.375l0 -12.3125l1.75 0q0.453125 0 0.625 0.171875q0.1875 0.171875 0.25 0.578125l0.171875 1.484375q0.671875 -1.140625 1.546875 -1.796875q0.890625 -0.671875 2.0 -0.671875q0.90625 0 1.515625 0.421875l-0.390625 2.21875q-0.03125 0.21875 -0.15625 0.3125q-0.125 0.09375 -0.328125 0.09375q-0.171875 0 -0.484375 -0.078125q-0.3125 -0.09375 -0.828125 -0.09375q-0.921875 0 -1.59375 0.515625q-0.65625 0.5 -1.109375 1.484375l0 7.671875l-2.96875 0zm17.116547 -9.90625q-0.125 0.1875 -0.25 0.265625q-0.125 0.078125 -0.34375 0.078125q-0.203125 0 -0.453125 -0.109375q-0.25 -0.125 -0.578125 -0.28125q-0.3125 -0.15625 -0.734375 -0.265625q-0.40625 -0.125 -0.96875 -0.125q-0.875 0 -1.390625 0.375q-0.5 0.375 -0.5 0.96875q0 0.390625 0.25 0.671875q0.265625 0.265625 0.6875 0.46875q0.4375 0.203125 0.96875 0.375q0.546875 0.15625 1.109375 0.34375q0.5625 0.1875 1.09375 0.4375q0.546875 0.25 0.96875 0.625q0.4375 0.375 0.6875 0.90625q0.265625 0.53125 0.265625 1.265625q0 0.890625 -0.328125 1.640625q-0.328125 0.75 -0.953125 1.296875q-0.625 0.546875 -1.546875 0.859375q-0.90625 0.296875 -2.09375 0.296875q-0.640625 0 -1.25 -0.109375q-0.609375 -0.109375 -1.171875 -0.3125q-0.546875 -0.203125 -1.03125 -0.484375q-0.46875 -0.28125 -0.828125 -0.59375l0.6875 -1.140625q0.125 -0.203125 0.3125 -0.3125q0.1875 -0.109375 0.453125 -0.109375q0.28125 0 0.515625 0.15625q0.25 0.15625 0.578125 0.34375q0.328125 0.171875 0.765625 0.328125q0.4375 0.15625 1.109375 0.15625q0.53125 0 0.90625 -0.125q0.375 -0.125 0.625 -0.328125q0.25 -0.203125 0.359375 -0.46875q0.109375 -0.265625 0.109375 -0.5625q0 -0.421875 -0.265625 -0.703125q-0.25 -0.28125 -0.671875 -0.484375q-0.421875 -0.203125 -0.96875 -0.359375q-0.546875 -0.171875 -1.125 -0.359375q-0.5625 -0.1875 -1.109375 -0.4375q-0.546875 -0.265625 -0.984375 -0.65625q-0.421875 -0.40625 -0.6875 -0.984375q-0.25 -0.578125 -0.25 -1.390625q0 -0.75 0.296875 -1.4375q0.3125 -0.6875 0.890625 -1.1875q0.578125 -0.515625 1.453125 -0.8125q0.875 -0.3125 2.015625 -0.3125q1.265625 0 2.3125 0.421875q1.046875 0.40625 1.734375 1.09375l-0.671875 1.078125zm6.3318176 -2.40625l0 12.3125l-2.953125 0l0 -12.3125l2.953125 0zm0.453125 -3.59375q0 0.390625 -0.15625 0.734375q-0.15625 0.328125 -0.421875 0.578125q-0.25 0.25 -0.609375 0.40625q-0.34375 0.140625 -0.734375 0.140625q-0.390625 0 -0.734375 -0.140625q-0.328125 -0.15625 -0.59375 -0.40625q-0.25 -0.25 -0.40625 -0.578125q-0.140625 -0.34375 -0.140625 -0.734375q0 -0.390625 0.140625 -0.734375q0.15625 -0.34375 0.40625 -0.59375q0.265625 -0.265625 0.59375 -0.40625q0.34375 -0.15625 0.734375 -0.15625q0.390625 0 0.734375 0.15625q0.359375 0.140625 0.609375 0.40625q0.265625 0.25 0.421875 0.59375q0.15625 0.34375 0.15625 0.734375zm8.160278 3.40625q1.375 0 2.5 0.453125q1.125 0.4375 1.90625 1.25q0.796875 0.8125 1.21875 2.0q0.4375 1.171875 0.4375 2.609375q0 1.46875 -0.4375 2.65625q-0.421875 1.171875 -1.21875 2.0q-0.78125 0.828125 -1.90625 1.28125q-1.125 0.4375 -2.5 0.4375q-1.390625 0 -2.515625 -0.4375q-1.125 -0.453125 -1.921875 -1.28125q-0.796875 -0.828125 -1.234375 -2.0q-0.4375 -1.1875 -0.4375 -2.65625q0 -1.4375 0.4375 -2.609375q0.4375 -1.1875 1.234375 -2.0q0.796875 -0.8125 1.921875 -1.25q1.125 -0.453125 2.515625 -0.453125zm0 10.40625q1.53125 0 2.265625 -1.03125q0.75 -1.03125 0.75 -3.03125q0 -1.984375 -0.75 -3.03125q-0.734375 -1.046875 -2.265625 -1.046875q-1.5625 0 -2.3125 1.046875q-0.734375 1.046875 -0.734375 3.03125q0 1.984375 0.734375 3.03125q0.75 1.03125 2.3125 1.03125zm4.140625 -15.453125l-2.96875 3.140625q-0.234375 0.234375 -0.4375 0.328125q-0.203125 0.09375 -0.546875 0.09375l-1.78125 0l1.703125 -2.921875q0.1875 -0.3125 0.421875 -0.46875q0.25 -0.171875 0.71875 -0.171875l2.890625 0zm4.237854 17.546875l0 -12.3125l1.8125 0q0.578125 0 0.765625 0.546875l0.203125 0.96875q0.375 -0.390625 0.78125 -0.703125q0.421875 -0.3125 0.875 -0.53125q0.46875 -0.234375 0.984375 -0.34375q0.53125 -0.125 1.15625 -0.125q1.015625 0 1.796875 0.34375q0.78125 0.34375 1.296875 0.96875q0.515625 0.609375 0.78125 1.46875q0.28125 0.84375 0.28125 1.875l0 7.84375l-2.96875 0l0 -7.84375q0 -1.125 -0.53125 -1.734375q-0.515625 -0.625 -1.546875 -0.625q-0.78125 0 -1.453125 0.359375q-0.671875 0.34375 -1.265625 0.9375l0 8.90625l-2.96875 0zm22.088623 0l-3.25 0l0 -17.359375l3.25 0l0 17.359375zm7.536072 0l-3.25 0l0 -17.359375l3.25 0l0 17.359375zm3.5048218 -1.625q0 -0.375 0.125 -0.703125q0.140625 -0.34375 0.390625 -0.578125q0.25 -0.25 0.578125 -0.390625q0.34375 -0.140625 0.734375 -0.140625q0.359375 0 0.6875 0.140625q0.34375 0.140625 0.578125 0.390625q0.25 0.234375 0.390625 0.578125q0.140625 0.328125 0.140625 0.703125q0 0.375 -0.140625 0.703125q-0.140625 0.328125 -0.390625 0.578125q-0.234375 0.234375 -0.578125 0.375q-0.328125 0.140625 -0.6875 0.140625q-0.390625 0 -0.734375 -0.140625q-0.328125 -0.140625 -0.578125 -0.375q-0.25 -0.25 -0.390625 -0.578125q-0.125 -0.328125 -0.125 -0.703125zm0 -8.5625q0 -0.375 0.125 -0.703125q0.140625 -0.34375 0.390625 -0.578125q0.25 -0.25 0.578125 -0.390625q0.34375 -0.140625 0.734375 -0.140625q0.359375 0 0.6875 0.140625q0.34375 0.140625 0.578125 0.390625q0.25 0.234375 0.390625 0.578125q0.140625 0.328125 0.140625 0.703125q0 0.390625 -0.140625 0.71875q-0.140625 0.328125 -0.390625 0.578125q-0.234375 0.234375 -0.578125 0.375q-0.328125 0.125 -0.6875 0.125q-0.390625 0 -0.734375 -0.125q-0.328125 -0.140625 -0.578125 -0.375q-0.25 -0.25 -0.390625 -0.578125q-0.125 -0.328125 -0.125 -0.71875zm14.617065 7.53125l6.9375 0l0 2.65625l-10.171875 0l0 -17.359375l3.234375 0l0 14.703125zm18.658081 2.65625l-1.328125 0q-0.421875 0 -0.671875 -0.125q-0.234375 -0.125 -0.359375 -0.515625l-0.265625 -0.875q-0.46875 0.421875 -0.921875 0.75q-0.4375 0.3125 -0.921875 0.53125q-0.484375 0.203125 -1.03125 0.3125q-0.53125 0.109375 -1.1875 0.109375q-0.78125 0 -1.4375 -0.203125q-0.65625 -0.21875 -1.140625 -0.625q-0.46875 -0.421875 -0.734375 -1.046875q-0.265625 -0.625 -0.265625 -1.453125q0 -0.703125 0.359375 -1.375q0.375 -0.6875 1.21875 -1.21875q0.859375 -0.546875 2.265625 -0.90625q1.421875 -0.375 3.53125 -0.421875l0 -0.71875q0 -1.234375 -0.53125 -1.828125q-0.515625 -0.59375 -1.515625 -0.59375q-0.71875 0 -1.203125 0.171875q-0.46875 0.171875 -0.828125 0.390625q-0.359375 0.203125 -0.65625 0.375q-0.296875 0.15625 -0.65625 0.15625q-0.296875 0 -0.515625 -0.15625q-0.21875 -0.15625 -0.34375 -0.375l-0.546875 -0.953125q2.125 -1.953125 5.125 -1.953125q1.078125 0 1.921875 0.359375q0.84375 0.359375 1.4375 0.984375q0.59375 0.625 0.890625 1.515625q0.3125 0.875 0.3125 1.90625l0 7.78125zm-5.765625 -1.84375q0.453125 0 0.84375 -0.078125q0.390625 -0.09375 0.71875 -0.265625q0.34375 -0.171875 0.65625 -0.40625q0.328125 -0.25 0.65625 -0.59375l0 -2.0625q-1.296875 0.046875 -2.171875 0.21875q-0.875 0.15625 -1.40625 0.40625q-0.515625 0.25 -0.75 0.59375q-0.21875 0.328125 -0.21875 0.734375q0 0.78125 0.46875 1.125q0.46875 0.328125 1.203125 0.328125zm16.461731 -10.46875l0 12.3125l-2.953125 0l0 -12.3125l2.953125 0zm0.453125 -3.59375q0 0.390625 -0.15625 0.734375q-0.15625 0.328125 -0.421875 0.578125q-0.25 0.25 -0.609375 0.40625q-0.34375 0.140625 -0.734375 0.140625q-0.390625 0 -0.734375 -0.140625q-0.328125 -0.15625 -0.59375 -0.40625q-0.25 -0.25 -0.40625 -0.578125q-0.140625 -0.34375 -0.140625 -0.734375q0 -0.390625 0.140625 -0.734375q0.15625 -0.34375 0.40625 -0.59375q0.265625 -0.265625 0.59375 -0.40625q0.34375 -0.15625 0.734375 -0.15625q0.390625 0 0.734375 0.15625q0.359375 0.140625 0.609375 0.40625q0.265625 0.25 0.421875 0.59375q0.15625 0.34375 0.15625 0.734375zm2.8946533 15.90625l0 -12.3125l1.8125 0q0.578125 0 0.765625 0.546875l0.203125 0.96875q0.375 -0.390625 0.78125 -0.703125q0.421875 -0.3125 0.875 -0.53125q0.46875 -0.234375 0.984375 -0.34375q0.53125 -0.125 1.15625 -0.125q1.015625 0 1.796875 0.34375q0.78125 0.34375 1.296875 0.96875q0.515625 0.609375 0.78125 1.46875q0.28125 0.84375 0.28125 1.875l0 7.84375l-2.96875 0l0 -7.84375q0 -1.125 -0.53125 -1.734375q-0.515625 -0.625 -1.546875 -0.625q-0.78125 0 -1.453125 0.359375q-0.671875 0.34375 -1.265625 0.9375l0 8.90625l-2.96875 0zm14.175354 0l0 -10.078125l-1.0625 -0.171875q-0.34375 -0.0625 -0.5625 -0.234375q-0.203125 -0.1875 -0.203125 -0.5l0 -1.21875l1.828125 0l0 -0.90625q0 -1.0625 0.3125 -1.90625q0.328125 -0.84375 0.921875 -1.421875q0.59375 -0.59375 1.4375 -0.90625q0.859375 -0.3125 1.921875 -0.3125q0.859375 0 1.59375 0.234375l-0.0625 1.484375q-0.03125 0.34375 -0.328125 0.4375q-0.296875 0.078125 -0.6875 0.078125q-0.53125 0 -0.953125 0.125q-0.40625 0.109375 -0.703125 0.390625q-0.28125 0.28125 -0.4375 0.75q-0.140625 0.453125 -0.140625 1.140625l0 0.8125l3.203125 0l0 2.109375l-3.109375 0l0 10.09375l-2.96875 0zm12.974548 -12.5q1.171875 0 2.140625 0.375q0.984375 0.359375 1.6875 1.078125q0.703125 0.71875 1.09375 1.765625q0.40625 1.03125 0.40625 2.359375q0 0.328125 -0.03125 0.5625q-0.03125 0.21875 -0.109375 0.34375q-0.078125 0.125 -0.21875 0.1875q-0.125 0.046875 -0.328125 0.046875l-7.609375 0q0.140625 1.890625 1.015625 2.78125q0.890625 0.890625 2.359375 0.890625q0.71875 0 1.234375 -0.171875q0.53125 -0.171875 0.921875 -0.375q0.390625 -0.203125 0.6875 -0.359375q0.296875 -0.171875 0.5625 -0.171875q0.1875 0 0.3125 0.078125q0.140625 0.0625 0.234375 0.1875l0.859375 1.078125q-0.484375 0.578125 -1.109375 0.96875q-0.609375 0.390625 -1.28125 0.625q-0.65625 0.234375 -1.34375 0.328125q-0.6875 0.109375 -1.34375 0.109375q-1.28125 0 -2.390625 -0.421875q-1.09375 -0.4375 -1.921875 -1.265625q-0.8125 -0.84375 -1.28125 -2.0625q-0.46875 -1.234375 -0.46875 -2.859375q0 -1.265625 0.40625 -2.375q0.421875 -1.109375 1.171875 -1.921875q0.765625 -0.828125 1.859375 -1.296875q1.109375 -0.484375 2.484375 -0.484375zm0.0625 2.125q-1.296875 0 -2.03125 0.734375q-0.734375 0.71875 -0.9375 2.0625l5.578125 0q0 -0.5625 -0.15625 -1.078125q-0.15625 -0.515625 -0.484375 -0.890625q-0.328125 -0.390625 -0.828125 -0.609375q-0.484375 -0.21875 -1.140625 -0.21875zm7.671875 10.375l0 -12.3125l1.75 0q0.453125 0 0.625 0.171875q0.1875 0.171875 0.25 0.578125l0.171875 1.484375q0.671875 -1.140625 1.546875 -1.796875q0.890625 -0.671875 2.0 -0.671875q0.90625 0 1.515625 0.421875l-0.390625 2.21875q-0.03125 0.21875 -0.15625 0.3125q-0.125 0.09375 -0.328125 0.09375q-0.171875 0 -0.484375 -0.078125q-0.3125 -0.09375 -0.828125 -0.09375q-0.921875 0 -1.59375 0.515625q-0.65625 0.5 -1.109375 1.484375l0 7.671875l-2.96875 0zm14.897766 -12.5q1.171875 0 2.140625 0.375q0.984375 0.359375 1.6875 1.078125q0.703125 0.71875 1.09375 1.765625q0.40625 1.03125 0.40625 2.359375q0 0.328125 -0.03125 0.5625q-0.03125 0.21875 -0.109375 0.34375q-0.078125 0.125 -0.21875 0.1875q-0.125 0.046875 -0.328125 0.046875l-7.609375 0q0.140625 1.890625 1.015625 2.78125q0.890625 0.890625 2.359375 0.890625q0.71875 0 1.234375 -0.171875q0.53125 -0.171875 0.921875 -0.375q0.390625 -0.203125 0.6875 -0.359375q0.296875 -0.171875 0.5625 -0.171875q0.1875 0 0.3125 0.078125q0.140625 0.0625 0.234375 0.1875l0.859375 1.078125q-0.484375 0.578125 -1.109375 0.96875q-0.609375 0.390625 -1.28125 0.625q-0.65625 0.234375 -1.34375 0.328125q-0.6875 0.109375 -1.34375 0.109375q-1.28125 0 -2.390625 -0.421875q-1.09375 -0.4375 -1.921875 -1.265625q-0.8125 -0.84375 -1.28125 -2.0625q-0.46875 -1.234375 -0.46875 -2.859375q0 -1.265625 0.40625 -2.375q0.421875 -1.109375 1.171875 -1.921875q0.765625 -0.828125 1.859375 -1.296875q1.109375 -0.484375 2.484375 -0.484375zm0.0625 2.125q-1.296875 0 -2.03125 0.734375q-0.734375 0.71875 -0.9375 2.0625l5.578125 0q0 -0.5625 -0.15625 -1.078125q-0.15625 -0.515625 -0.484375 -0.890625q-0.328125 -0.390625 -0.828125 -0.609375q-0.484375 -0.21875 -1.140625 -0.21875zm7.671875 10.375l0 -12.3125l1.8125 0q0.578125 0 0.765625 0.546875l0.203125 0.96875q0.375 -0.390625 0.78125 -0.703125q0.421875 -0.3125 0.875 -0.53125q0.46875 -0.234375 0.984375 -0.34375q0.53125 -0.125 1.15625 -0.125q1.015625 0 1.796875 0.34375q0.78125 0.34375 1.296875 0.96875q0.515625 0.609375 0.78125 1.46875q0.28125 0.84375 0.28125 1.875l0 7.84375l-2.96875 0l0 -7.84375q0 -1.125 -0.53125 -1.734375q-0.515625 -0.625 -1.546875 -0.625q-0.78125 0 -1.453125 0.359375q-0.671875 0.34375 -1.265625 0.9375l0 8.90625l-2.96875 0zm22.300293 -9.703125q-0.125 0.15625 -0.25 0.265625q-0.125 0.09375 -0.375 0.09375q-0.21875 0 -0.4375 -0.140625q-0.21875 -0.140625 -0.515625 -0.3125q-0.296875 -0.171875 -0.71875 -0.3125q-0.40625 -0.140625 -1.03125 -0.140625q-0.78125 0 -1.375 0.28125q-0.578125 0.28125 -0.96875 0.8125q-0.390625 0.53125 -0.578125 1.28125q-0.1875 0.75 -0.1875 1.6875q0 0.984375 0.203125 1.765625q0.21875 0.765625 0.609375 1.296875q0.390625 0.515625 0.953125 0.78125q0.5625 0.265625 1.28125 0.265625q0.703125 0 1.140625 -0.171875q0.4375 -0.171875 0.734375 -0.375q0.3125 -0.21875 0.53125 -0.390625q0.21875 -0.171875 0.5 -0.171875q0.359375 0 0.53125 0.265625l0.859375 1.078125q-0.5 0.578125 -1.078125 0.96875q-0.578125 0.390625 -1.203125 0.625q-0.609375 0.234375 -1.265625 0.328125q-0.65625 0.109375 -1.3125 0.109375q-1.140625 0 -2.15625 -0.421875q-1.0 -0.4375 -1.75 -1.25q-0.75 -0.8125 -1.1875 -2.0q-0.4375 -1.1875 -0.4375 -2.703125q0 -1.34375 0.390625 -2.5q0.390625 -1.171875 1.140625 -2.015625q0.765625 -0.84375 1.875 -1.3125q1.125 -0.484375 2.578125 -0.484375q1.375 0 2.40625 0.453125q1.046875 0.4375 1.875 1.265625l-0.78125 1.078125zm5.948059 -2.609375l0 12.3125l-2.953125 0l0 -12.3125l2.953125 0zm0.453125 -3.59375q0 0.390625 -0.15625 0.734375q-0.15625 0.328125 -0.421875 0.578125q-0.25 0.25 -0.609375 0.40625q-0.34375 0.140625 -0.734375 0.140625q-0.390625 0 -0.734375 -0.140625q-0.328125 -0.15625 -0.59375 -0.40625q-0.25 -0.25 -0.40625 -0.578125q-0.140625 -0.34375 -0.140625 -0.734375q0 -0.390625 0.140625 -0.734375q0.15625 -0.34375 0.40625 -0.59375q0.265625 -0.265625 0.59375 -0.40625q0.34375 -0.15625 0.734375 -0.15625q0.390625 0 0.734375 0.15625q0.359375 0.140625 0.609375 0.40625q0.265625 0.25 0.421875 0.59375q0.15625 0.34375 0.15625 0.734375zm12.550903 15.90625l-1.328125 0q-0.421875 0 -0.671875 -0.125q-0.234375 -0.125 -0.359375 -0.515625l-0.265625 -0.875q-0.46875 0.421875 -0.921875 0.75q-0.4375 0.3125 -0.921875 0.53125q-0.484375 0.203125 -1.03125 0.3125q-0.53125 0.109375 -1.1875 0.109375q-0.78125 0 -1.4375 -0.203125q-0.65625 -0.21875 -1.140625 -0.625q-0.46875 -0.421875 -0.734375 -1.046875q-0.265625 -0.625 -0.265625 -1.453125q0 -0.703125 0.359375 -1.375q0.375 -0.6875 1.21875 -1.21875q0.859375 -0.546875 2.265625 -0.90625q1.421875 -0.375 3.53125 -0.421875l0 -0.71875q0 -1.234375 -0.53125 -1.828125q-0.515625 -0.59375 -1.515625 -0.59375q-0.71875 0 -1.203125 0.171875q-0.46875 0.171875 -0.828125 0.390625q-0.359375 0.203125 -0.65625 0.375q-0.296875 0.15625 -0.65625 0.15625q-0.296875 0 -0.515625 -0.15625q-0.21875 -0.15625 -0.34375 -0.375l-0.546875 -0.953125q2.125 -1.953125 5.125 -1.953125q1.078125 0 1.921875 0.359375q0.84375 0.359375 1.4375 0.984375q0.59375 0.625 0.890625 1.515625q0.3125 0.875 0.3125 1.90625l0 7.78125zm-5.765625 -1.84375q0.453125 0 0.84375 -0.078125q0.390625 -0.09375 0.71875 -0.265625q0.34375 -0.171875 0.65625 -0.40625q0.328125 -0.25 0.65625 -0.59375l0 -2.0625q-1.296875 0.046875 -2.171875 0.21875q-0.875 0.15625 -1.40625 0.40625q-0.515625 0.25 -0.75 0.59375q-0.21875 0.328125 -0.21875 0.734375q0 0.78125 0.46875 1.125q0.46875 0.328125 1.203125 0.328125zm18.399231 -10.65625q1.171875 0 2.140625 0.375q0.984375 0.359375 1.6875 1.078125q0.703125 0.71875 1.09375 1.765625q0.40625 1.03125 0.40625 2.359375q0 0.328125 -0.03125 0.5625q-0.03125 0.21875 -0.109375 0.34375q-0.078125 0.125 -0.21875 0.1875q-0.125 0.046875 -0.328125 0.046875l-7.609375 0q0.140625 1.890625 1.015625 2.78125q0.890625 0.890625 2.359375 0.890625q0.71875 0 1.234375 -0.171875q0.53125 -0.171875 0.921875 -0.375q0.390625 -0.203125 0.6875 -0.359375q0.296875 -0.171875 0.5625 -0.171875q0.1875 0 0.3125 0.078125q0.140625 0.0625 0.234375 0.1875l0.859375 1.078125q-0.484375 0.578125 -1.109375 0.96875q-0.609375 0.390625 -1.28125 0.625q-0.65625 0.234375 -1.34375 0.328125q-0.6875 0.109375 -1.34375 0.109375q-1.28125 0 -2.390625 -0.421875q-1.09375 -0.4375 -1.921875 -1.265625q-0.8125 -0.84375 -1.28125 -2.0625q-0.46875 -1.234375 -0.46875 -2.859375q0 -1.265625 0.40625 -2.375q0.421875 -1.109375 1.171875 -1.921875q0.765625 -0.828125 1.859375 -1.296875q1.109375 -0.484375 2.484375 -0.484375zm0.0625 2.125q-1.296875 0 -2.03125 0.734375q-0.734375 0.71875 -0.9375 2.0625l5.578125 0q0 -0.5625 -0.15625 -1.078125q-0.15625 -0.515625 -0.484375 -0.890625q-0.328125 -0.390625 -0.828125 -0.609375q-0.484375 -0.21875 -1.140625 -0.21875zm14.984375 0.46875q-0.125 0.1875 -0.25 0.265625q-0.125 0.078125 -0.34375 0.078125q-0.203125 0 -0.453125 -0.109375q-0.25 -0.125 -0.578125 -0.28125q-0.3125 -0.15625 -0.734375 -0.265625q-0.40625 -0.125 -0.96875 -0.125q-0.875 0 -1.390625 0.375q-0.5 0.375 -0.5 0.96875q0 0.390625 0.25 0.671875q0.265625 0.265625 0.6875 0.46875q0.4375 0.203125 0.96875 0.375q0.546875 0.15625 1.109375 0.34375q0.5625 0.1875 1.09375 0.4375q0.546875 0.25 0.96875 0.625q0.4375 0.375 0.6875 0.90625q0.265625 0.53125 0.265625 1.265625q0 0.890625 -0.328125 1.640625q-0.328125 0.75 -0.953125 1.296875q-0.625 0.546875 -1.546875 0.859375q-0.90625 0.296875 -2.09375 0.296875q-0.640625 0 -1.25 -0.109375q-0.609375 -0.109375 -1.171875 -0.3125q-0.546875 -0.203125 -1.03125 -0.484375q-0.46875 -0.28125 -0.828125 -0.59375l0.6875 -1.140625q0.125 -0.203125 0.3125 -0.3125q0.1875 -0.109375 0.453125 -0.109375q0.28125 0 0.515625 0.15625q0.25 0.15625 0.578125 0.34375q0.328125 0.171875 0.765625 0.328125q0.4375 0.15625 1.109375 0.15625q0.53125 0 0.90625 -0.125q0.375 -0.125 0.625 -0.328125q0.25 -0.203125 0.359375 -0.46875q0.109375 -0.265625 0.109375 -0.5625q0 -0.421875 -0.265625 -0.703125q-0.25 -0.28125 -0.671875 -0.484375q-0.421875 -0.203125 -0.96875 -0.359375q-0.546875 -0.171875 -1.125 -0.359375q-0.5625 -0.1875 -1.109375 -0.4375q-0.546875 -0.265625 -0.984375 -0.65625q-0.421875 -0.40625 -0.6875 -0.984375q-0.25 -0.578125 -0.25 -1.390625q0 -0.75 0.296875 -1.4375q0.3125 -0.6875 0.890625 -1.1875q0.578125 -0.515625 1.453125 -0.8125q0.875 -0.3125 2.015625 -0.3125q1.265625 0 2.3125 0.421875q1.046875 0.40625 1.734375 1.09375l-0.671875 1.078125zm7.222412 10.09375q-1.59375 0 -2.46875 -0.90625q-0.859375 -0.90625 -0.859375 -2.5l0 -6.875l-1.234375 0q-0.25 0 -0.421875 -0.15625q-0.171875 -0.15625 -0.171875 -0.46875l0 -1.171875l1.984375 -0.328125l0.625 -3.359375q0.046875 -0.234375 0.21875 -0.359375q0.171875 -0.140625 0.4375 -0.140625l1.53125 0l0 3.875l3.25 0l0 2.109375l-3.25 0l0 6.671875q0 0.578125 0.28125 0.90625q0.296875 0.3125 0.78125 0.3125q0.265625 0 0.453125 -0.0625q0.1875 -0.0625 0.328125 -0.125q0.140625 -0.078125 0.25 -0.140625q0.109375 -0.078125 0.21875 -0.078125q0.125 0 0.203125 0.078125q0.09375 0.0625 0.1875 0.1875l0.890625 1.4375q-0.65625 0.546875 -1.5 0.828125q-0.828125 0.265625 -1.734375 0.265625zm14.897461 -0.1875l-1.328125 0q-0.421875 0 -0.671875 -0.125q-0.234375 -0.125 -0.359375 -0.515625l-0.265625 -0.875q-0.46875 0.421875 -0.921875 0.75q-0.4375 0.3125 -0.921875 0.53125q-0.484375 0.203125 -1.03125 0.3125q-0.53125 0.109375 -1.1875 0.109375q-0.78125 0 -1.4375 -0.203125q-0.65625 -0.21875 -1.140625 -0.625q-0.46875 -0.421875 -0.734375 -1.046875q-0.265625 -0.625 -0.265625 -1.453125q0 -0.703125 0.359375 -1.375q0.375 -0.6875 1.21875 -1.21875q0.859375 -0.546875 2.265625 -0.90625q1.421875 -0.375 3.53125 -0.421875l0 -0.71875q0 -1.234375 -0.53125 -1.828125q-0.515625 -0.59375 -1.515625 -0.59375q-0.71875 0 -1.203125 0.171875q-0.46875 0.171875 -0.828125 0.390625q-0.359375 0.203125 -0.65625 0.375q-0.296875 0.15625 -0.65625 0.15625q-0.296875 0 -0.515625 -0.15625q-0.21875 -0.15625 -0.34375 -0.375l-0.546875 -0.953125q2.125 -1.953125 5.125 -1.953125q1.078125 0 1.921875 0.359375q0.84375 0.359375 1.4375 0.984375q0.59375 0.625 0.890625 1.515625q0.3125 0.875 0.3125 1.90625l0 7.78125zm-5.765625 -1.84375q0.453125 0 0.84375 -0.078125q0.390625 -0.09375 0.71875 -0.265625q0.34375 -0.171875 0.65625 -0.40625q0.328125 -0.25 0.65625 -0.59375l0 -2.0625q-1.296875 0.046875 -2.171875 0.21875q-0.875 0.15625 -1.40625 0.40625q-0.515625 0.25 -0.75 0.59375q-0.21875 0.328125 -0.21875 0.734375q0 0.78125 0.46875 1.125q0.46875 0.328125 1.203125 0.328125zm17.345337 1.84375q-0.578125 0 -0.765625 -0.546875l-0.234375 -1.1875q-0.375 0.4375 -0.796875 0.796875q-0.421875 0.34375 -0.90625 0.59375q-0.484375 0.25 -1.046875 0.390625q-0.5625 0.140625 -1.203125 0.140625q-1.015625 0 -1.859375 -0.421875q-0.828125 -0.421875 -1.4375 -1.21875q-0.609375 -0.796875 -0.9375 -1.96875q-0.328125 -1.1875 -0.328125 -2.703125q0 -1.359375 0.359375 -2.53125q0.375 -1.1875 1.078125 -2.046875q0.703125 -0.859375 1.671875 -1.34375q0.96875 -0.5 2.1875 -0.5q1.03125 0 1.75 0.34375q0.734375 0.328125 1.3125 0.875l0 -6.5l2.96875 0l0 17.828125l-1.8125 0zm-3.953125 -2.171875q0.921875 0 1.5625 -0.375q0.65625 -0.390625 1.234375 -1.09375l0 -5.53125q-0.5 -0.609375 -1.09375 -0.859375q-0.59375 -0.25 -1.28125 -0.25q-0.671875 0 -1.21875 0.25q-0.546875 0.25 -0.921875 0.765625q-0.375 0.5 -0.578125 1.296875q-0.203125 0.78125 -0.203125 1.84375q0 1.078125 0.171875 1.828125q0.171875 0.75 0.484375 1.234375q0.328125 0.46875 0.796875 0.6875q0.46875 0.203125 1.046875 0.203125zm12.117615 -10.140625l0 12.3125l-2.953125 0l0 -12.3125l2.953125 0zm3.25 -5.234375l-2.96875 3.140625q-0.234375 0.234375 -0.4375 0.328125q-0.203125 0.09375 -0.546875 0.09375l-1.78125 0l1.703125 -2.921875q0.1875 -0.3125 0.421875 -0.46875q0.25 -0.171875 0.71875 -0.171875l2.890625 0zm7.4102783 7.640625q-0.125 0.1875 -0.25 0.265625q-0.125 0.078125 -0.34375 0.078125q-0.203125 0 -0.453125 -0.109375q-0.25 -0.125 -0.578125 -0.28125q-0.3125 -0.15625 -0.734375 -0.265625q-0.40625 -0.125 -0.96875 -0.125q-0.875 0 -1.390625 0.375q-0.5 0.375 -0.5 0.96875q0 0.390625 0.25 0.671875q0.265625 0.265625 0.6875 0.46875q0.4375 0.203125 0.96875 0.375q0.546875 0.15625 1.109375 0.34375q0.5625 0.1875 1.09375 0.4375q0.546875 0.25 0.96875 0.625q0.4375 0.375 0.6875 0.90625q0.265625 0.53125 0.265625 1.265625q0 0.890625 -0.328125 1.640625q-0.328125 0.75 -0.953125 1.296875q-0.625 0.546875 -1.546875 0.859375q-0.90625 0.296875 -2.09375 0.296875q-0.640625 0 -1.25 -0.109375q-0.609375 -0.109375 -1.171875 -0.3125q-0.546875 -0.203125 -1.03125 -0.484375q-0.46875 -0.28125 -0.828125 -0.59375l0.6875 -1.140625q0.125 -0.203125 0.3125 -0.3125q0.1875 -0.109375 0.453125 -0.109375q0.28125 0 0.515625 0.15625q0.25 0.15625 0.578125 0.34375q0.328125 0.171875 0.765625 0.328125q0.4375 0.15625 1.109375 0.15625q0.53125 0 0.90625 -0.125q0.375 -0.125 0.625 -0.328125q0.25 -0.203125 0.359375 -0.46875q0.109375 -0.265625 0.109375 -0.5625q0 -0.421875 -0.265625 -0.703125q-0.25 -0.28125 -0.671875 -0.484375q-0.421875 -0.203125 -0.96875 -0.359375q-0.546875 -0.171875 -1.125 -0.359375q-0.5625 -0.1875 -1.109375 -0.4375q-0.546875 -0.265625 -0.984375 -0.65625q-0.421875 -0.40625 -0.6875 -0.984375q-0.25 -0.578125 -0.25 -1.390625q0 -0.75 0.296875 -1.4375q0.3125 -0.6875 0.890625 -1.1875q0.578125 -0.515625 1.453125 -0.8125q0.875 -0.3125 2.015625 -0.3125q1.265625 0 2.3125 0.421875q1.046875 0.40625 1.734375 1.09375l-0.671875 1.078125zm7.222473 10.09375q-1.59375 0 -2.46875 -0.90625q-0.859375 -0.90625 -0.859375 -2.5l0 -6.875l-1.234375 0q-0.25 0 -0.421875 -0.15625q-0.171875 -0.15625 -0.171875 -0.46875l0 -1.171875l1.984375 -0.328125l0.625 -3.359375q0.046875 -0.234375 0.21875 -0.359375q0.171875 -0.140625 0.4375 -0.140625l1.53125 0l0 3.875l3.25 0l0 2.109375l-3.25 0l0 6.671875q0 0.578125 0.28125 0.90625q0.296875 0.3125 0.78125 0.3125q0.265625 0 0.453125 -0.0625q0.1875 -0.0625 0.328125 -0.125q0.140625 -0.078125 0.25 -0.140625q0.109375 -0.078125 0.21875 -0.078125q0.125 0 0.203125 0.078125q0.09375 0.0625 0.1875 0.1875l0.890625 1.4375q-0.65625 0.546875 -1.5 0.828125q-0.828125 0.265625 -1.734375 0.265625zm8.397461 -12.5l0 12.3125l-2.953125 0l0 -12.3125l2.953125 0zm0.453125 -3.59375q0 0.390625 -0.15625 0.734375q-0.15625 0.328125 -0.421875 0.578125q-0.25 0.25 -0.609375 0.40625q-0.34375 0.140625 -0.734375 0.140625q-0.390625 0 -0.734375 -0.140625q-0.328125 -0.15625 -0.59375 -0.40625q-0.25 -0.25 -0.40625 -0.578125q-0.140625 -0.34375 -0.140625 -0.734375q0 -0.390625 0.140625 -0.734375q0.15625 -0.34375 0.40625 -0.59375q0.265625 -0.265625 0.59375 -0.40625q0.34375 -0.15625 0.734375 -0.15625q0.390625 0 0.734375 0.15625q0.359375 0.140625 0.609375 0.40625q0.265625 0.25 0.421875 0.59375q0.15625 0.34375 0.15625 0.734375zm11.550903 6.203125q-0.125 0.15625 -0.25 0.265625q-0.125 0.09375 -0.375 0.09375q-0.21875 0 -0.4375 -0.140625q-0.21875 -0.140625 -0.515625 -0.3125q-0.296875 -0.171875 -0.71875 -0.3125q-0.40625 -0.140625 -1.03125 -0.140625q-0.78125 0 -1.375 0.28125q-0.578125 0.28125 -0.96875 0.8125q-0.390625 0.53125 -0.578125 1.28125q-0.1875 0.75 -0.1875 1.6875q0 0.984375 0.203125 1.765625q0.21875 0.765625 0.609375 1.296875q0.390625 0.515625 0.953125 0.78125q0.5625 0.265625 1.28125 0.265625q0.703125 0 1.140625 -0.171875q0.4375 -0.171875 0.734375 -0.375q0.3125 -0.21875 0.53125 -0.390625q0.21875 -0.171875 0.5 -0.171875q0.359375 0 0.53125 0.265625l0.859375 1.078125q-0.5 0.578125 -1.078125 0.96875q-0.578125 0.390625 -1.203125 0.625q-0.609375 0.234375 -1.265625 0.328125q-0.65625 0.109375 -1.3125 0.109375q-1.140625 0 -2.15625 -0.421875q-1.0 -0.4375 -1.75 -1.25q-0.75 -0.8125 -1.1875 -2.0q-0.4375 -1.1875 -0.4375 -2.703125q0 -1.34375 0.390625 -2.5q0.390625 -1.171875 1.140625 -2.015625q0.765625 -0.84375 1.875 -1.3125q1.125 -0.484375 2.578125 -0.484375q1.375 0 2.40625 0.453125q1.046875 0.4375 1.875 1.265625l-0.78125 1.078125zm12.448059 9.703125l-1.328125 0q-0.421875 0 -0.671875 -0.125q-0.234375 -0.125 -0.359375 -0.515625l-0.265625 -0.875q-0.46875 0.421875 -0.921875 0.75q-0.4375 0.3125 -0.921875 0.53125q-0.484375 0.203125 -1.03125 0.3125q-0.53125 0.109375 -1.1875 0.109375q-0.78125 0 -1.4375 -0.203125q-0.65625 -0.21875 -1.140625 -0.625q-0.46875 -0.421875 -0.734375 -1.046875q-0.265625 -0.625 -0.265625 -1.453125q0 -0.703125 0.359375 -1.375q0.375 -0.6875 1.21875 -1.21875q0.859375 -0.546875 2.265625 -0.90625q1.421875 -0.375 3.53125 -0.421875l0 -0.71875q0 -1.234375 -0.53125 -1.828125q-0.515625 -0.59375 -1.515625 -0.59375q-0.71875 0 -1.203125 0.171875q-0.46875 0.171875 -0.828125 0.390625q-0.359375 0.203125 -0.65625 0.375q-0.296875 0.15625 -0.65625 0.15625q-0.296875 0 -0.515625 -0.15625q-0.21875 -0.15625 -0.34375 -0.375l-0.546875 -0.953125q2.125 -1.953125 5.125 -1.953125q1.078125 0 1.921875 0.359375q0.84375 0.359375 1.4375 0.984375q0.59375 0.625 0.890625 1.515625q0.3125 0.875 0.3125 1.90625l0 7.78125zm-5.765625 -1.84375q0.453125 0 0.84375 -0.078125q0.390625 -0.09375 0.71875 -0.265625q0.34375 -0.171875 0.65625 -0.40625q0.328125 -0.25 0.65625 -0.59375l0 -2.0625q-1.296875 0.046875 -2.171875 0.21875q-0.875 0.15625 -1.40625 0.40625q-0.515625 0.25 -0.75 0.59375q-0.21875 0.328125 -0.21875 0.734375q0 0.78125 0.46875 1.125q0.46875 0.328125 1.203125 0.328125z" fill-rule="nonzero"/><path fill="#000000" fill-opacity="0.0" d="m72.8832 247.02362l176.75592 0l0 53.322845l-176.75592 0z" fill-rule="evenodd"/><path fill="#000000" d="m122.81389 265.16254l4.375 12.375l4.359375 -12.375l4.625 0l0 17.0625l-3.53125 0l0 -4.671875l0.34375 -8.046875l-4.59375 12.71875l-2.421875 0l-4.59375 -12.703125l0.359375 8.03125l0 4.671875l-3.515625 0l0 -17.0625l4.59375 0zm23.789062 15.765625q-1.25 1.53125 -3.46875 1.53125q-2.03125 0 -3.109375 -1.171875q-1.0625 -1.171875 -1.09375 -3.4375l0 -8.3125l3.390625 0l0 8.203125q0 1.96875 1.796875 1.96875q1.734375 0 2.375 -1.1875l0 -8.984375l3.390625 0l0 12.6875l-3.1875 0l-0.09375 -1.296875zm11.6796875 1.53125q-2.796875 0 -4.546875 -1.703125q-1.75 -1.71875 -1.75 -4.5625l0 -0.328125q0 -1.921875 0.734375 -3.421875q0.75 -1.5 2.09375 -2.3125q1.359375 -0.828125 3.09375 -0.828125q2.59375 0 4.09375 1.640625q1.5 1.640625 1.5 4.65625l0 1.390625l-8.078125 0q0.15625 1.234375 0.984375 1.984375q0.828125 0.75 2.09375 0.75q1.953125 0 3.0625 -1.421875l1.65625 1.875q-0.75 1.078125 -2.0625 1.6875q-1.296875 0.59375 -2.875 0.59375zm-0.390625 -10.40625q-1.0 0 -1.640625 0.6875q-0.625 0.671875 -0.796875 1.9375l4.71875 0l0 -0.265625q-0.03125 -1.125 -0.625 -1.734375q-0.578125 -0.625 -1.65625 -0.625zm14.394531 6.671875q0 -0.625 -0.625 -0.984375q-0.609375 -0.359375 -1.96875 -0.640625q-4.515625 -0.953125 -4.515625 -3.84375q0 -1.6875 1.390625 -2.8125q1.40625 -1.140625 3.671875 -1.140625q2.40625 0 3.84375 1.140625q1.453125 1.140625 1.453125 2.953125l-3.375 0q0 -0.71875 -0.46875 -1.1875q-0.46875 -0.484375 -1.46875 -0.484375q-0.859375 0 -1.328125 0.390625q-0.46875 0.375 -0.46875 0.984375q0 0.5625 0.53125 0.90625q0.53125 0.34375 1.796875 0.59375q1.265625 0.25 2.140625 0.5625q2.6875 0.984375 2.6875 3.421875q0 1.734375 -1.5 2.8125q-1.484375 1.0625 -3.84375 1.0625q-1.59375 0 -2.828125 -0.5625q-1.234375 -0.578125 -1.9375 -1.5625q-0.703125 -1.0 -0.703125 -2.140625l3.21875 0q0.046875 0.90625 0.65625 1.390625q0.625 0.46875 1.671875 0.46875q0.96875 0 1.46875 -0.359375q0.5 -0.375 0.5 -0.96875zm9.527344 -12.296875l0 3.109375l2.171875 0l0 2.484375l-2.171875 0l0 6.328125q0 0.703125 0.265625 1.015625q0.265625 0.296875 1.03125 0.296875q0.5625 0 1.0 -0.078125l0 2.5625q-1.0 0.3125 -2.046875 0.3125q-3.5625 0 -3.640625 -3.59375l0 -6.84375l-1.84375 0l0 -2.484375l1.84375 0l0 -3.109375l3.390625 0zm11.171875 6.296875q-0.6875 -0.09375 -1.21875 -0.09375q-1.921875 0 -2.515625 1.296875l0 8.296875l-3.390625 0l0 -12.6875l3.203125 0l0.09375 1.515625q1.015625 -1.75 2.828125 -1.75q0.5625 0 1.046875 0.15625l-0.046875 3.265625zm8.636734 9.5q-0.234375 -0.453125 -0.34375 -1.140625q-1.2343903 1.375 -3.2031403 1.375q-1.859375 0 -3.09375 -1.078125q-1.21875 -1.078125 -1.21875 -2.71875q0 -2.015625 1.484375 -3.09375q1.5 -1.078125 4.328125 -1.09375l1.5625153 0l0 -0.71875q0 -0.890625 -0.45314026 -1.40625q-0.453125 -0.53125 -1.421875 -0.53125q-0.859375 0 -1.34375 0.40625q-0.484375 0.40625 -0.484375 1.125l-3.390625 0q0 -1.09375 0.671875 -2.03125q0.6875 -0.9375 1.921875 -1.46875q1.25 -0.546875 2.796875 -0.546875q2.3437653 0 3.7187653 1.1875q1.375 1.171875 1.375 3.3125l0 5.484375q0.015625 1.8125 0.515625 2.734375l0 0.203125l-3.421875 0zm-2.8125153 -2.359375q0.75 0 1.375 -0.328125q0.640625 -0.34375 0.95314026 -0.90625l0 -2.171875l-1.2656403 0q-2.546875 0 -2.703125 1.75l-0.015625 0.203125q0 0.640625 0.4375 1.046875q0.453125 0.40625 1.21875 0.40625z" fill-rule="nonzero"/><path fill="#000000" fill-opacity="0.0" d="m316.1601 268.27225l-66.51967 0" fill-rule="evenodd"/><path stroke="#249c90" stroke-width="1.0" stroke-linejoin="round" stroke-linecap="butt" d="m316.1601 268.27228l-62.729675 0" fill-rule="evenodd"/><path fill="#249c90" stroke="#249c90" stroke-width="1.0" stroke-linecap="butt" d="m250.14043 268.27228c0 -0.9085083 0.7364807 -1.6450195 1.644989 -1.6450195c0.9085083 0 1.6450043 0.73651123 1.6450043 1.6450195c0 0.9085083 -0.736496 1.644989 -1.6450043 1.644989c-0.9085083 0 -1.644989 -0.7364807 -1.644989 -1.644989z" fill-rule="nonzero"/><path fill="#000000" fill-opacity="0.0" d="m660.26117 123.20998l179.81104 0l0 104.25197l-179.81104 0z" fill-rule="evenodd"/><path fill="#000000" d="m674.30804 148.86034l0 6.015625l-3.515625 0l0 -17.0625l6.65625 0q1.921875 0 3.375 0.703125q1.453125 0.703125 2.234375 2.0q0.796875 1.296875 0.796875 2.9375q0 2.515625 -1.71875 3.96875q-1.71875 1.4375 -4.75 1.4375l-3.078125 0zm0 -2.84375l3.140625 0q1.390625 0 2.125 -0.65625q0.734375 -0.65625 0.734375 -1.875q0 -1.25 -0.75 -2.015625q-0.734375 -0.78125 -2.03125 -0.8125l-3.21875 0l0 5.359375zm18.855469 -0.640625q-0.6875 -0.09375 -1.21875 -0.09375q-1.921875 0 -2.515625 1.296875l0 8.296875l-3.390625 0l0 -12.6875l3.203125 0l0.09375 1.515625q1.015625 -1.75 2.828125 -1.75q0.5625 0 1.046875 0.15625l-0.046875 3.265625zm0.69140625 3.046875q0 -1.890625 0.71875 -3.359375q0.734375 -1.484375 2.09375 -2.296875q1.359375 -0.8125 3.171875 -0.8125q2.5625 0 4.1875 1.578125q1.625 1.5625 1.8125 4.265625l0.015625 0.859375q0 2.921875 -1.625 4.6875q-1.625 1.765625 -4.375 1.765625q-2.734375 0 -4.375 -1.75q-1.625 -1.765625 -1.625 -4.796875l0 -0.140625zm3.375 0.234375q0 1.8125 0.671875 2.765625q0.6875 0.953125 1.953125 0.953125q1.234375 0 1.921875 -0.9375q0.703125 -0.953125 0.703125 -3.015625q0 -1.78125 -0.703125 -2.75q-0.6875 -0.96875 -1.9375 -0.96875q-1.25 0 -1.9375 0.96875q-0.671875 0.96875 -0.671875 2.984375zm15.9921875 3.71875q0.9375 0 1.515625 -0.515625q0.59375 -0.515625 0.609375 -1.375l3.1875 0q-0.015625 1.296875 -0.71875 2.375q-0.6875 1.0625 -1.890625 1.65625q-1.1875 0.59375 -2.640625 0.59375q-2.71875 0 -4.296875 -1.71875q-1.5625 -1.734375 -1.5625 -4.78125l0 -0.234375q0 -2.921875 1.546875 -4.671875q1.5625 -1.75 4.28125 -1.75q2.375 0 3.8125 1.359375q1.4375 1.359375 1.46875 3.609375l-3.1875 0q-0.015625 -0.984375 -0.609375 -1.59375q-0.578125 -0.625 -1.546875 -0.625q-1.171875 0 -1.78125 0.859375q-0.609375 0.859375 -0.609375 2.796875l0 0.34375q0 1.96875 0.59375 2.828125q0.609375 0.84375 1.828125 0.84375zm13.078125 2.734375q-2.796875 0 -4.546875 -1.703125q-1.75 -1.71875 -1.75 -4.5625l0 -0.328125q0 -1.921875 0.734375 -3.421875q0.75 -1.5 2.09375 -2.3125q1.359375 -0.828125 3.09375 -0.828125q2.59375 0 4.09375 1.640625q1.5 1.640625 1.5 4.65625l0 1.390625l-8.078125 0q0.15625 1.234375 0.984375 1.984375q0.828125 0.75 2.09375 0.75q1.953125 0 3.0625 -1.421875l1.65625 1.875q-0.75 1.078125 -2.0625 1.6875q-1.296875 0.59375 -2.875 0.59375zm-0.390625 -10.40625q-1.0 0 -1.640625 0.6875q-0.625 0.671875 -0.796875 1.9375l4.71875 0l0 -0.265625q-0.03125 -1.125 -0.625 -1.734375q-0.578125 -0.625 -1.65625 -0.625zm14.394531 6.671875q0 -0.625 -0.625 -0.984375q-0.609375 -0.359375 -1.96875 -0.640625q-4.515625 -0.953125 -4.515625 -3.84375q0 -1.6875 1.390625 -2.8125q1.40625 -1.140625 3.671875 -1.140625q2.40625 0 3.84375 1.140625q1.453125 1.140625 1.453125 2.953125l-3.375 0q0 -0.71875 -0.46875 -1.1875q-0.46875 -0.484375 -1.46875 -0.484375q-0.859375 0 -1.328125 0.390625q-0.46875 0.375 -0.46875 0.984375q0 0.5625 0.53125 0.90625q0.53125 0.34375 1.796875 0.59375q1.265625 0.25 2.140625 0.5625q2.6875 0.984375 2.6875 3.421875q0 1.734375 -1.5 2.8125q-1.484375 1.0625 -3.84375 1.0625q-1.59375 0 -2.828125 -0.5625q-1.234375 -0.578125 -1.9375 -1.5625q-0.703125 -1.0 -0.703125 -2.140625l3.21875 0q0.046875 0.90625 0.65625 1.390625q0.625 0.46875 1.671875 0.46875q0.96875 0 1.46875 -0.359375q0.5 -0.375 0.5 -0.96875zm4.9492188 -2.953125q0 -1.890625 0.71875 -3.359375q0.734375 -1.484375 2.09375 -2.296875q1.359375 -0.8125 3.171875 -0.8125q2.5625 0 4.1875 1.578125q1.625 1.5625 1.8125 4.265625l0.015625 0.859375q0 2.921875 -1.625 4.6875q-1.625 1.765625 -4.375 1.765625q-2.734375 0 -4.375 -1.75q-1.625 -1.765625 -1.625 -4.796875l0 -0.140625zm3.375 0.234375q0 1.8125 0.671875 2.765625q0.6875 0.953125 1.953125 0.953125q1.234375 0 1.921875 -0.9375q0.703125 -0.953125 0.703125 -3.015625q0 -1.78125 -0.703125 -2.75q-0.6875 -0.96875 -1.9375 -0.96875q-1.25 0 -1.9375 0.96875q-0.671875 0.96875 -0.671875 2.984375z" fill-rule="nonzero"/><path fill="#000000" d="m684.2924 181.71971q-0.953125 1.140625 -2.6875 1.765625q-1.734375 0.625 -3.84375 0.625q-2.21875 0 -3.890625 -0.96875q-1.671875 -0.96875 -2.578125 -2.796875q-0.90625 -1.84375 -0.921875 -4.328125l0 -1.171875q0 -2.546875 0.859375 -4.40625q0.859375 -1.875 2.484375 -2.859375q1.625 -1.0 3.796875 -1.0q3.03125 0 4.734375 1.453125q1.71875 1.4375 2.046875 4.203125l-3.421875 0q-0.234375 -1.46875 -1.046875 -2.140625q-0.796875 -0.6875 -2.203125 -0.6875q-1.796875 0 -2.734375 1.359375q-0.9375 1.34375 -0.953125 4.0l0 1.09375q0 2.6875 1.015625 4.0625q1.03125 1.359375 3.0 1.359375q1.984375 0 2.828125 -0.84375l0 -2.9375l-3.203125 0l0 -2.59375l6.71875 0l0 6.8125zm8.457031 2.390625q-2.796875 0 -4.546875 -1.703125q-1.75 -1.71875 -1.75 -4.5625l0 -0.328125q0 -1.921875 0.734375 -3.421875q0.75 -1.5 2.09375 -2.3125q1.359375 -0.828125 3.09375 -0.828125q2.59375 0 4.09375 1.640625q1.5 1.640625 1.5 4.65625l0 1.390625l-8.078125 0q0.15625 1.234375 0.984375 1.984375q0.828125 0.75 2.09375 0.75q1.953125 0 3.0625 -1.421875l1.65625 1.875q-0.75 1.078125 -2.0625 1.6875q-1.296875 0.59375 -2.875 0.59375zm-0.390625 -10.40625q-1.0 0 -1.640625 0.6875q-0.625 0.671875 -0.796875 1.9375l4.71875 0l0 -0.265625q-0.03125 -1.125 -0.625 -1.734375q-0.578125 -0.625 -1.65625 -0.625zm10.644531 -2.515625l0.109375 1.46875q1.359375 -1.703125 3.640625 -1.703125q2.015625 0 3.0 1.1875q0.984375 1.1875 1.0 3.546875l0 8.1875l-3.375 0l0 -8.109375q0 -1.078125 -0.46875 -1.5625q-0.46875 -0.484375 -1.5625 -0.484375q-1.4375 0 -2.140625 1.21875l0 8.9375l-3.390625 0l0 -12.6875l3.1875 0zm16.160156 12.921875q-2.796875 0 -4.546875 -1.703125q-1.75 -1.71875 -1.75 -4.5625l0 -0.328125q0 -1.921875 0.734375 -3.421875q0.75 -1.5 2.09375 -2.3125q1.359375 -0.828125 3.09375 -0.828125q2.59375 0 4.09375 1.640625q1.5 1.640625 1.5 4.65625l0 1.390625l-8.078125 0q0.15625 1.234375 0.984375 1.984375q0.828125 0.75 2.09375 0.75q1.953125 0 3.0625 -1.421875l1.65625 1.875q-0.75 1.078125 -2.0625 1.6875q-1.296875 0.59375 -2.875 0.59375zm-0.390625 -10.40625q-1.0 0 -1.640625 0.6875q-0.625 0.671875 -0.796875 1.9375l4.71875 0l0 -0.265625q-0.03125 -1.125 -0.625 -1.734375q-0.578125 -0.625 -1.65625 -0.625zm14.644531 0.671875q-0.6875 -0.09375 -1.21875 -0.09375q-1.921875 0 -2.515625 1.296875l0 8.296875l-3.390625 0l0 -12.6875l3.203125 0l0.09375 1.515625q1.015625 -1.75 2.828125 -1.75q0.5625 0 1.046875 0.15625l-0.046875 3.265625zm8.636719 9.5q-0.234375 -0.453125 -0.34375 -1.140625q-1.234375 1.375 -3.203125 1.375q-1.859375 0 -3.09375 -1.078125q-1.21875 -1.078125 -1.21875 -2.71875q0 -2.015625 1.484375 -3.09375q1.5 -1.078125 4.328125 -1.09375l1.5625 0l0 -0.71875q0 -0.890625 -0.453125 -1.40625q-0.453125 -0.53125 -1.421875 -0.53125q-0.859375 0 -1.34375 0.40625q-0.484375 0.40625 -0.484375 1.125l-3.390625 0q0 -1.09375 0.671875 -2.03125q0.6875 -0.9375 1.921875 -1.46875q1.25 -0.546875 2.796875 -0.546875q2.34375 0 3.71875 1.1875q1.375 1.171875 1.375 3.3125l0 5.484375q0.015625 1.8125 0.515625 2.734375l0 0.203125l-3.421875 0zm-2.8125 -2.359375q0.75 0 1.375 -0.328125q0.640625 -0.34375 0.953125 -0.90625l0 -2.171875l-1.265625 0q-2.546875 0 -2.703125 1.75l-0.015625 0.203125q0 0.640625 0.4375 1.046875q0.453125 0.40625 1.21875 0.40625zm7.8046875 -4.078125q0 -2.96875 1.328125 -4.71875q1.328125 -1.765625 3.640625 -1.765625q1.84375 0 3.046875 1.390625l0 -6.46875l3.40625 0l0 18.0l-3.0625 0l-0.15625 -1.34375q-1.265625 1.578125 -3.265625 1.578125q-2.234375 0 -3.59375 -1.765625q-1.34375 -1.765625 -1.34375 -4.90625zm3.375 0.25q0 1.78125 0.625 2.734375q0.625 0.9375 1.8125 0.9375q1.5625 0 2.203125 -1.3125l0 -5.015625q-0.625 -1.3125 -2.1875 -1.3125q-2.453125 0 -2.453125 3.96875zm10.1484375 -0.265625q0 -1.890625 0.71875 -3.359375q0.734375 -1.484375 2.09375 -2.296875q1.359375 -0.8125 3.171875 -0.8125q2.5625 0 4.1875 1.578125q1.625 1.5625 1.8125 4.265625l0.015625 0.859375q0 2.921875 -1.625 4.6875q-1.625 1.765625 -4.375 1.765625q-2.734375 0 -4.375 -1.75q-1.625 -1.765625 -1.625 -4.796875l0 -0.140625zm3.375 0.234375q0 1.8125 0.671875 2.765625q0.6875 0.953125 1.953125 0.953125q1.234375 0 1.921875 -0.9375q0.703125 -0.953125 0.703125 -3.015625q0 -1.78125 -0.703125 -2.75q-0.6875 -0.96875 -1.9375 -0.96875q-1.25 0 -1.9375 0.96875q-0.671875 0.96875 -0.671875 2.984375zm17.835938 -3.28125q-0.6875 -0.09375 -1.21875 -0.09375q-1.921875 0 -2.515625 1.296875l0 8.296875l-3.390625 0l0 -12.6875l3.203125 0l0.09375 1.515625q1.015625 -1.75 2.828125 -1.75q0.5625 0 1.046875 0.15625l-0.046875 3.265625zm7.0898438 3.0625q0 -2.96875 1.328125 -4.71875q1.328125 -1.765625 3.640625 -1.765625q1.84375 0 3.046875 1.390625l0 -6.46875l3.40625 0l0 18.0l-3.0625 0l-0.15625 -1.34375q-1.265625 1.578125 -3.265625 1.578125q-2.234375 0 -3.59375 -1.765625q-1.34375 -1.765625 -1.34375 -4.90625zm3.375 0.25q0 1.78125 0.625 2.734375q0.625 0.9375 1.8125 0.9375q1.5625 0 2.203125 -1.3125l0 -5.015625q-0.625 -1.3125 -2.1875 -1.3125q-2.453125 0 -2.453125 3.96875zm16.507812 6.421875q-2.796875 0 -4.546875 -1.703125q-1.75 -1.71875 -1.75 -4.5625l0 -0.328125q0 -1.921875 0.734375 -3.421875q0.75 -1.5 2.09375 -2.3125q1.359375 -0.828125 3.09375 -0.828125q2.59375 0 4.09375 1.640625q1.5 1.640625 1.5 4.65625l0 1.390625l-8.078125 0q0.15625 1.234375 0.984375 1.984375q0.828125 0.75 2.09375 0.75q1.953125 0 3.0625 -1.421875l1.65625 1.875q-0.75 1.078125 -2.0625 1.6875q-1.296875 0.59375 -2.875 0.59375zm-0.390625 -10.40625q-1.0 0 -1.640625 0.6875q-0.625 0.671875 -0.796875 1.9375l4.71875 0l0 -0.265625q-0.03125 -1.125 -0.625 -1.734375q-0.578125 -0.625 -1.65625 -0.625z" fill-rule="nonzero"/><path fill="#000000" d="m670.7924 212.87596l0 -17.0625l5.25 0q2.25 0 4.015625 1.015625q1.78125 1.015625 2.765625 2.890625q1.0 1.859375 1.0 4.234375l0 0.78125q0 2.390625 -0.984375 4.25q-0.96875 1.84375 -2.75 2.859375q-1.78125 1.015625 -4.015625 1.03125l-5.28125 0zm3.515625 -14.21875l0 11.390625l1.6875 0q2.0625 0 3.15625 -1.34375q1.09375 -1.34375 1.109375 -3.859375l0 -0.90625q0 -2.59375 -1.078125 -3.9375q-1.078125 -1.34375 -3.140625 -1.34375l-1.734375 0zm19.207031 14.21875q-0.234375 -0.453125 -0.34375 -1.140625q-1.234375 1.375 -3.203125 1.375q-1.859375 0 -3.09375 -1.078125q-1.21875 -1.078125 -1.21875 -2.71875q0 -2.015625 1.484375 -3.09375q1.5 -1.078125 4.328125 -1.09375l1.5625 0l0 -0.71875q0 -0.890625 -0.453125 -1.40625q-0.453125 -0.53125 -1.421875 -0.53125q-0.859375 0 -1.34375 0.40625q-0.484375 0.40625 -0.484375 1.125l-3.390625 0q0 -1.09375 0.671875 -2.03125q0.6875 -0.9375 1.921875 -1.46875q1.25 -0.546875 2.796875 -0.546875q2.34375 0 3.71875 1.1875q1.375 1.171875 1.375 3.3125l0 5.484375q0.015625 1.8125 0.515625 2.734375l0 0.203125l-3.421875 0zm-2.8125 -2.359375q0.75 0 1.375 -0.328125q0.640625 -0.34375 0.953125 -0.90625l0 -2.171875l-1.265625 0q-2.546875 0 -2.703125 1.75l-0.015625 0.203125q0 0.640625 0.4375 1.046875q0.453125 0.40625 1.21875 0.40625zm12.3828125 -13.4375l0 3.109375l2.171875 0l0 2.484375l-2.171875 0l0 6.328125q0 0.703125 0.265625 1.015625q0.265625 0.296875 1.03125 0.296875q0.5625 0 1.0 -0.078125l0 2.5625q-1.0 0.3125 -2.046875 0.3125q-3.5625 0 -3.640625 -3.59375l0 -6.84375l-1.84375 0l0 -2.484375l1.84375 0l0 -3.109375l3.390625 0zm3.1796875 9.34375q0 -1.890625 0.71875 -3.359375q0.734375 -1.484375 2.09375 -2.296875q1.359375 -0.8125 3.171875 -0.8125q2.5625 0 4.1875 1.578125q1.625 1.5625 1.8125 4.265625l0.015625 0.859375q0 2.921875 -1.625 4.6875q-1.625 1.765625 -4.375 1.765625q-2.734375 0 -4.375 -1.75q-1.625 -1.765625 -1.625 -4.796875l0 -0.140625zm3.375 0.234375q0 1.8125 0.671875 2.765625q0.6875 0.953125 1.953125 0.953125q1.234375 0 1.921875 -0.9375q0.703125 -0.953125 0.703125 -3.015625q0 -1.78125 -0.703125 -2.75q-0.6875 -0.96875 -1.9375 -0.96875q-1.25 0 -1.9375 0.96875q-0.671875 0.96875 -0.671875 2.984375zm17.585938 2.71875q0 -0.625 -0.625 -0.984375q-0.609375 -0.359375 -1.96875 -0.640625q-4.515625 -0.953125 -4.515625 -3.84375q0 -1.6875 1.390625 -2.8125q1.40625 -1.140625 3.671875 -1.140625q2.40625 0 3.84375 1.140625q1.453125 1.140625 1.453125 2.953125l-3.375 0q0 -0.71875 -0.46875 -1.1875q-0.46875 -0.484375 -1.46875 -0.484375q-0.859375 0 -1.328125 0.390625q-0.46875 0.375 -0.46875 0.984375q0 0.5625 0.53125 0.90625q0.53125 0.34375 1.796875 0.59375q1.265625 0.25 2.140625 0.5625q2.6875 0.984375 2.6875 3.421875q0 1.734375 -1.5 2.8125q-1.484375 1.0625 -3.84375 1.0625q-1.59375 0 -2.828125 -0.5625q-1.234375 -0.578125 -1.9375 -1.5625q-0.703125 -1.0 -0.703125 -2.140625l3.21875 0q0.046875 0.90625 0.65625 1.390625q0.625 0.46875 1.671875 0.46875q0.96875 0 1.46875 -0.359375q0.5 -0.375 0.5 -0.96875z" fill-rule="nonzero"/><path fill="#000000" fill-opacity="0.0" d="m519.2257 169.29588l135.08661 0" fill-rule="evenodd"/><path stroke="#155b54" stroke-width="1.0" stroke-linejoin="round" stroke-linecap="butt" d="m519.2257 169.29588l131.29663 0" fill-rule="evenodd"/><path fill="#155b54" stroke="#155b54" stroke-width="1.0" stroke-linecap="butt" d="m653.8123 169.29588c0 0.9085083 -0.7364502 1.6450043 -1.6449585 1.6450043c-0.9085083 0 -1.6450195 -0.736496 -1.6450195 -1.6450043c0 -0.9085083 0.73651123 -1.6450043 1.6450195 -1.6450043c0.9085083 0 1.6449585 0.736496 1.6449585 1.6450043z" fill-rule="nonzero"/><path fill="#000000" fill-opacity="0.0" d="m675.30444 307.37988l222.99213 0l0 135.40155l-222.99213 0z" fill-rule="evenodd"/><path fill="#000000" d="m685.8357 369.12067l0 -17.0625l5.25 0q2.25 0 4.015625 1.015625q1.78125 1.015625 2.765625 2.890625q1.0 1.859375 1.0 4.234375l0 0.78125q0 2.390625 -0.984375 4.25q-0.96875 1.84375 -2.75 2.859375q-1.78125 1.015625 -4.015625 1.03125l-5.28125 0zm3.515625 -14.21875l0 11.390625l1.6875 0q2.0625 0 3.15625 -1.34375q1.09375 -1.34375 1.109375 -3.859375l0 -0.90625q0 -2.59375 -1.078125 -3.9375q-1.078125 -1.34375 -3.140625 -1.34375l-1.734375 0zm15.425781 14.21875l-3.390625 0l0 -12.6875l3.390625 0l0 12.6875zm-3.59375 -15.96875q0 -0.75 0.5 -1.234375q0.515625 -0.5 1.390625 -0.5q0.875 0 1.390625 0.5q0.515625 0.484375 0.515625 1.234375q0 0.78125 -0.53125 1.28125q-0.515625 0.484375 -1.375 0.484375q-0.84375 0 -1.375 -0.484375q-0.515625 -0.5 -0.515625 -1.28125zm13.253906 12.46875q0 -0.625 -0.625 -0.984375q-0.609375 -0.359375 -1.96875 -0.640625q-4.515625 -0.953125 -4.515625 -3.84375q0 -1.6875 1.390625 -2.8125q1.40625 -1.140625 3.671875 -1.140625q2.40625 0 3.84375 1.140625q1.453125 1.140625 1.453125 2.953125l-3.375 0q0 -0.71875 -0.46875 -1.1875q-0.46875 -0.484375 -1.46875 -0.484375q-0.859375 0 -1.328125 0.390625q-0.46875 0.375 -0.46875 0.984375q0 0.5625 0.53125 0.90625q0.53125 0.34375 1.796875 0.59375q1.265625 0.25 2.140625 0.5625q2.6875 0.984375 2.6875 3.421875q0 1.734375 -1.5 2.8125q-1.484375 1.0625 -3.84375 1.0625q-1.59375 0 -2.828125 -0.5625q-1.234375 -0.578125 -1.9375 -1.5625q-0.703125 -1.0 -0.703125 -2.140625l3.21875 0q0.046875 0.90625 0.65625 1.390625q0.625 0.46875 1.671875 0.46875q0.96875 0 1.46875 -0.359375q0.5 -0.375 0.5 -0.96875zm9.527344 -12.296875l0 3.109375l2.171875 0l0 2.484375l-2.171875 0l0 6.328125q0 0.703125 0.265625 1.015625q0.265625 0.296875 1.03125 0.296875q0.5625 0 1.0 -0.078125l0 2.5625q-1.0 0.3125 -2.046875 0.3125q-3.5625 0 -3.640625 -3.59375l0 -6.84375l-1.84375 0l0 -2.484375l1.84375 0l0 -3.109375l3.390625 0zm11.171875 6.296875q-0.6875 -0.09375 -1.21875 -0.09375q-1.921875 0 -2.515625 1.296875l0 8.296875l-3.390625 0l0 -12.6875l3.203125 0l0.09375 1.515625q1.015625 -1.75 2.828125 -1.75q0.5625 0 1.046875 0.15625l-0.046875 3.265625zm5.2070312 9.5l-3.390625 0l0 -12.6875l3.390625 0l0 12.6875zm-3.59375 -15.96875q0 -0.75 0.5 -1.234375q0.515625 -0.5 1.390625 -0.5q0.875 0 1.390625 0.5q0.515625 0.484375 0.515625 1.234375q0 0.78125 -0.53125 1.28125q-0.515625 0.484375 -1.375 0.484375q-0.84375 0 -1.375 -0.484375q-0.515625 -0.5 -0.515625 -1.28125zm17.816406 9.75q0 3.046875 -1.3125 4.75q-1.296875 1.703125 -3.625 1.703125q-2.0625 0 -3.296875 -1.578125l-0.15625 1.34375l-3.046875 0l0 -18.0l3.390625 0l0 6.453125q1.171875 -1.375 3.078125 -1.375q2.328125 0 3.640625 1.71875q1.328125 1.703125 1.328125 4.796875l0 0.1875zm-3.390625 -0.25q0 -1.921875 -0.609375 -2.796875q-0.609375 -0.890625 -1.8125 -0.890625q-1.625 0 -2.234375 1.3125l0 5.015625q0.625 1.328125 2.25 1.328125q1.640625 0 2.15625 -1.609375q0.25 -0.78125 0.25 -2.359375zm13.058594 5.171875q-1.25 1.53125 -3.46875 1.53125q-2.03125 0 -3.109375 -1.171875q-1.0625 -1.171875 -1.09375 -3.4375l0 -8.3125l3.390625 0l0 8.203125q0 1.96875 1.796875 1.96875q1.734375 0 2.375 -1.1875l0 -8.984375l3.390625 0l0 12.6875l-3.1875 0l-0.09375 -1.296875zm11.1171875 -1.203125q0.9375 0 1.515625 -0.515625q0.59375 -0.515625 0.609375 -1.375l3.1875 0q-0.015625 1.296875 -0.71875 2.375q-0.6875 1.0625 -1.890625 1.65625q-1.1875 0.59375 -2.640625 0.59375q-2.71875 0 -4.296875 -1.71875q-1.5625 -1.734375 -1.5625 -4.78125l0 -0.234375q0 -2.921875 1.546875 -4.671875q1.5625 -1.75 4.28125 -1.75q2.375 0 3.8125 1.359375q1.4375 1.359375 1.46875 3.609375l-3.1875 0q-0.015625 -0.984375 -0.609375 -1.59375q-0.578125 -0.625 -1.546875 -0.625q-1.171875 0 -1.78125 0.859375q-0.609375 0.859375 -0.609375 2.796875l0 0.34375q0 1.96875 0.59375 2.828125q0.609375 0.84375 1.828125 0.84375zm10.8125 2.5l-3.390625 0l0 -12.6875l3.390625 0l0 12.6875zm-3.59375 -15.96875q0 -0.75 0.5 -1.234375q0.515625 -0.5 1.390625 -0.5q0.875 0 1.390625 0.5q0.515625 0.484375 0.515625 1.234375q0 0.78125 -0.53125 1.28125q-0.515625 0.484375 -1.375 0.484375q-0.84375 0 -1.375 -0.484375q-0.515625 -0.5 -0.515625 -1.28125zm5.8632812 9.515625q0 -1.890625 0.71875 -3.359375q0.734375 -1.484375 2.09375 -2.296875q1.359375 -0.8125 3.171875 -0.8125q2.5625 0 4.1875 1.578125q1.625 1.5625 1.8125 4.265625l0.015625 0.859375q0 2.921875 -1.625 4.6875q-1.625 1.765625 -4.375 1.765625q-2.734375 0 -4.375 -1.75q-1.625 -1.765625 -1.625 -4.796875l0 -0.140625zm3.375 0.234375q0 1.8125 0.671875 2.765625q0.6875 0.953125 1.953125 0.953125q1.234375 0 1.921875 -0.9375q0.703125 -0.953125 0.703125 -3.015625q0 -1.78125 -0.703125 -2.75q-0.6875 -0.96875 -1.9375 -0.96875q-1.25 0 -1.9375 0.96875q-0.671875 0.96875 -0.671875 2.984375zm3.34375 -11.78125l3.6875 0l-3.25 3.625l-2.75 0l2.3125 -3.625zm10.4921875 5.3125l0.109375 1.46875q1.359375 -1.703125 3.640625 -1.703125q2.015625 0 3.0 1.1875q0.984375 1.1875 1.0 3.546875l0 8.1875l-3.375 0l0 -8.109375q0 -1.078125 -0.46875 -1.5625q-0.46875 -0.484375 -1.5625 -0.484375q-1.4375 0 -2.140625 1.21875l0 8.9375l-3.390625 0l0 -12.6875l3.1875 0zm15.777344 6.25q0 -2.96875 1.328125 -4.71875q1.328125 -1.765625 3.640625 -1.765625q1.84375 0 3.046875 1.390625l0 -6.46875l3.40625 0l0 18.0l-3.0625 0l-0.15625 -1.34375q-1.265625 1.578125 -3.265625 1.578125q-2.234375 0 -3.59375 -1.765625q-1.34375 -1.765625 -1.34375 -4.90625zm3.375 0.25q0 1.78125 0.625 2.734375q0.625 0.9375 1.8125 0.9375q1.5625 0 2.203125 -1.3125l0 -5.015625q-0.625 -1.3125 -2.1875 -1.3125q-2.453125 0 -2.453125 3.96875zm16.507812 6.421875q-2.796875 0 -4.546875 -1.703125q-1.75 -1.71875 -1.75 -4.5625l0 -0.328125q0 -1.921875 0.734375 -3.421875q0.75 -1.5 2.09375 -2.3125q1.359375 -0.828125 3.09375 -0.828125q2.59375 0 4.09375 1.640625q1.5 1.640625 1.5 4.65625l0 1.390625l-8.078125 0q0.15625 1.234375 0.984375 1.984375q0.828125 0.75 2.09375 0.75q1.953125 0 3.0625 -1.421875l1.65625 1.875q-0.75 1.078125 -2.0625 1.6875q-1.296875 0.59375 -2.875 0.59375zm-0.390625 -10.40625q-1.0 0 -1.640625 0.6875q-0.625 0.671875 -0.796875 1.9375l4.71875 0l0 -0.265625q-0.03125 -1.125 -0.625 -1.734375q-0.578125 -0.625 -1.65625 -0.625z" fill-rule="nonzero"/><path fill="#000000" d="m697.0232 391.90192q0 2.921875 -1.328125 4.6875q-1.328125 1.765625 -3.59375 1.765625q-1.921875 0 -3.109375 -1.34375l0 5.984375l-3.390625 0l0 -17.5625l3.140625 0l0.125 1.25q1.234375 -1.484375 3.203125 -1.484375q2.34375 0 3.640625 1.734375q1.3125 1.734375 1.3125 4.78125l0 0.1875zm-3.390625 -0.25q0 -1.765625 -0.625 -2.71875q-0.625 -0.96875 -1.828125 -0.96875q-1.59375 0 -2.1875 1.21875l0 5.1875q0.625 1.25 2.21875 1.25q2.421875 0 2.421875 -3.96875zm12.605469 -3.03125q-0.6875 -0.09375 -1.21875 -0.09375q-1.921875 0 -2.515625 1.296875l0 8.296875l-3.390625 0l0 -12.6875l3.203125 0l0.09375 1.515625q1.015625 -1.75 2.828125 -1.75q0.5625 0 1.046875 0.15625l-0.046875 3.265625zm0.69140625 3.046875q0 -1.890625 0.71875 -3.359375q0.734375 -1.484375 2.09375 -2.296875q1.359375 -0.8125 3.171875 -0.8125q2.5625 0 4.1875 1.578125q1.625 1.5625 1.8125 4.265625l0.015625 0.859375q0 2.921875 -1.625 4.6875q-1.625 1.765625 -4.375 1.765625q-2.734375 0 -4.375 -1.75q-1.625 -1.765625 -1.625 -4.796875l0 -0.140625zm3.375 0.234375q0 1.8125 0.671875 2.765625q0.6875 0.953125 1.953125 0.953125q1.234375 0 1.921875 -0.9375q0.703125 -0.953125 0.703125 -3.015625q0 -1.78125 -0.703125 -2.75q-0.6875 -0.96875 -1.9375 -0.96875q-1.25 0 -1.9375 0.96875q-0.671875 0.96875 -0.671875 2.984375zm22.148438 0q0 3.046875 -1.3125 4.75q-1.296875 1.703125 -3.625 1.703125q-2.0625 0 -3.296875 -1.578125l-0.15625 1.34375l-3.046875 0l0 -18.0l3.390625 0l0 6.453125q1.171875 -1.375 3.078125 -1.375q2.328125 0 3.640625 1.71875q1.328125 1.703125 1.328125 4.796875l0 0.1875zm-3.390625 -0.25q0 -1.921875 -0.609375 -2.796875q-0.609375 -0.890625 -1.8125 -0.890625q-1.625 0 -2.234375 1.3125l0 5.015625q0.625 1.328125 2.25 1.328125q1.640625 0 2.15625 -1.609375q0.25 -0.78125 0.25 -2.359375zm12.824219 6.46875q-0.234375 -0.453125 -0.34375 -1.140625q-1.234375 1.375 -3.203125 1.375q-1.859375 0 -3.09375 -1.078125q-1.21875 -1.078125 -1.21875 -2.71875q0 -2.015625 1.484375 -3.09375q1.5 -1.078125 4.328125 -1.09375l1.5625 0l0 -0.71875q0 -0.890625 -0.453125 -1.40625q-0.453125 -0.53125 -1.421875 -0.53125q-0.859375 0 -1.34375 0.40625q-0.484375 0.40625 -0.484375 1.125l-3.390625 0q0 -1.09375 0.671875 -2.03125q0.6875 -0.9375 1.921875 -1.46875q1.25 -0.546875 2.796875 -0.546875q2.34375 0 3.71875 1.1875q1.375 1.171875 1.375 3.3125l0 5.484375q0.015625 1.8125 0.515625 2.734375l0 0.203125l-3.421875 0zm-2.8125 -2.359375q0.75 0 1.375 -0.328125q0.640625 -0.34375 0.953125 -0.90625l0 -2.171875l-1.265625 0q-2.546875 0 -2.703125 1.75l-0.015625 0.203125q0 0.640625 0.4375 1.046875q0.453125 0.40625 1.21875 0.40625zm19.757812 -3.859375q0 3.046875 -1.3125 4.75q-1.296875 1.703125 -3.625 1.703125q-2.0625 0 -3.296875 -1.578125l-0.15625 1.34375l-3.046875 0l0 -18.0l3.390625 0l0 6.453125q1.171875 -1.375 3.078125 -1.375q2.328125 0 3.640625 1.71875q1.328125 1.703125 1.328125 4.796875l0 0.1875zm-3.390625 -0.25q0 -1.921875 -0.609375 -2.796875q-0.609375 -0.890625 -1.8125 -0.890625q-1.625 0 -2.234375 1.3125l0 5.015625q0.625 1.328125 2.25 1.328125q1.640625 0 2.15625 -1.609375q0.25 -0.78125 0.25 -2.359375zm9.042969 6.46875l-3.390625 0l0 -12.6875l3.390625 0l0 12.6875zm-3.59375 -15.96875q0 -0.75 0.5 -1.234375q0.515625 -0.5 1.390625 -0.5q0.875 0 1.390625 0.5q0.515625 0.484375 0.515625 1.234375q0 0.78125 -0.53125 1.28125q-0.515625 0.484375 -1.375 0.484375q-0.84375 0 -1.375 -0.484375q-0.515625 -0.5 -0.515625 -1.28125zm9.957031 15.96875l-3.390625 0l0 -18.0l3.390625 0l0 18.0zm6.3632812 0l-3.390625 0l0 -12.6875l3.390625 0l0 12.6875zm-3.59375 -15.96875q0 -0.75 0.5 -1.234375q0.515625 -0.5 1.390625 -0.5q0.875 0 1.390625 0.5q0.515625 0.484375 0.515625 1.234375q0 0.78125 -0.53125 1.28125q-0.515625 0.484375 -1.375 0.484375q-0.84375 0 -1.375 -0.484375q-0.515625 -0.5 -0.515625 -1.28125zm5.8632812 9.53125q0 -2.96875 1.328125 -4.71875q1.328125 -1.765625 3.640625 -1.765625q1.84375 0 3.046875 1.390625l0 -6.46875l3.40625 0l0 18.0l-3.0625 0l-0.15625 -1.34375q-1.265625 1.578125 -3.265625 1.578125q-2.234375 0 -3.59375 -1.765625q-1.34375 -1.765625 -1.34375 -4.90625zm3.375 0.25q0 1.78125 0.625 2.734375q0.625 0.9375 1.8125 0.9375q1.5625 0 2.203125 -1.3125l0 -5.015625q-0.625 -1.3125 -2.1875 -1.3125q-2.453125 0 -2.453125 3.96875zm18.023438 6.1875q-0.234375 -0.453125 -0.34375 -1.140625q-1.234375 1.375 -3.203125 1.375q-1.859375 0 -3.09375 -1.078125q-1.21875 -1.078125 -1.21875 -2.71875q0 -2.015625 1.484375 -3.09375q1.5 -1.078125 4.328125 -1.09375l1.5625 0l0 -0.71875q0 -0.890625 -0.453125 -1.40625q-0.453125 -0.53125 -1.421875 -0.53125q-0.859375 0 -1.34375 0.40625q-0.484375 0.40625 -0.484375 1.125l-3.390625 0q0 -1.09375 0.671875 -2.03125q0.6875 -0.9375 1.921875 -1.46875q1.25 -0.546875 2.796875 -0.546875q2.34375 0 3.71875 1.1875q1.375 1.171875 1.375 3.3125l0 5.484375q0.015625 1.8125 0.515625 2.734375l0 0.203125l-3.421875 0zm-2.8125 -2.359375q0.75 0 1.375 -0.328125q0.640625 -0.34375 0.953125 -0.90625l0 -2.171875l-1.265625 0q-2.546875 0 -2.703125 1.75l-0.015625 0.203125q0 0.640625 0.4375 1.046875q0.453125 0.40625 1.21875 0.40625zm7.8046875 -4.078125q0 -2.96875 1.328125 -4.71875q1.328125 -1.765625 3.640625 -1.765625q1.84375 0 3.046875 1.390625l0 -6.46875l3.40625 0l0 18.0l-3.0625 0l-0.15625 -1.34375q-1.265625 1.578125 -3.265625 1.578125q-2.234375 0 -3.59375 -1.765625q-1.34375 -1.765625 -1.34375 -4.90625zm3.375 0.25q0 1.78125 0.625 2.734375q0.625 0.9375 1.8125 0.9375q1.5625 0 2.203125 -1.3125l0 -5.015625q-0.625 -1.3125 -2.1875 -1.3125q-2.453125 0 -2.453125 3.96875z" fill-rule="nonzero"/><path fill="#000000" fill-opacity="0.0" d="m519.2257 373.29587l135.08661 0" fill-rule="evenodd"/><path stroke="#1d7e74" stroke-width="1.0" stroke-linejoin="round" stroke-linecap="butt" d="m519.2257 373.2959l131.29663 0" fill-rule="evenodd"/><path fill="#1d7e74" stroke="#1d7e74" stroke-width="1.0" stroke-linecap="butt" d="m653.8123 373.2959c0 0.9085083 -0.7364502 1.644989 -1.6449585 1.644989c-0.9085083 0 -1.6450195 -0.7364807 -1.6450195 -1.644989c0 -0.9085083 0.73651123 -1.6450195 1.6450195 -1.6450195c0.9085083 0 1.6449585 0.73651123 1.6449585 1.6450195z" fill-rule="nonzero"/><path fill="#155b54" d="m451.67944 120.10542l0 0c51.725616 0.34104156 99.38977 28.090363 125.224304 72.903625c25.834595 44.81328 25.963196 99.96651 0.33795166 144.8998l-52.565063 -29.9776l0 0c14.979004 -26.26529 14.903809 -58.504562 -0.19750977 -84.69972c-15.101349 -26.195145 -42.96295 -42.41574 -73.19864 -42.61508z" fill-rule="evenodd"/><path fill="#1d7e74" d="m577.8001 337.17157l0 0c-25.702515 43.853363 -72.40759 71.135284 -123.23102 71.983215c-50.823425 0.8479309 -98.41257 -24.86084 -125.56369 -67.8324l51.04889 -32.2547l0 0c15.894806 25.156433 43.754456 40.20685 73.50751 39.71045c29.753021 -0.49639893 57.095123 -16.467773 72.14194 -42.14041z" fill-rule="evenodd"/><path fill="#249c90" d="m326.69803 337.71814l0 0c-25.279785 -44.449158 -25.398712 -98.89949 -0.31329346 -143.45862c25.085419 -44.559113 71.70044 -72.69968 122.815186 -74.14105l1.7120972 60.71541c-29.798859 0.8403015 -56.974518 17.245682 -71.598785 43.222763c-14.624298 25.977081 -14.554993 57.72052 0.18261719 83.633484z" fill-rule="evenodd"/><g filter="url(#shadowFilter-g35a5229fb0_0_805.1)"><use xlink:href="#g35a5229fb0_0_805.1" transform=""/></g><defs><filter id="shadowFilter-g35a5229fb0_0_805.1" filterUnits="userSpaceOnUse"><feGaussianBlur in="SourceAlpha" stdDeviation="5.0" result="blur"/><feComponentTransfer in="blur" color-interpolation-filters="sRGB"><feFuncR type="linear" slope="0" intercept="0.0"/><feFuncG type="linear" slope="0" intercept="0.0"/><feFuncB type="linear" slope="0" intercept="0.0"/><feFuncA type="linear" slope="0.43" intercept="0"/></feComponentTransfer></filter></defs><g id="g35a5229fb0_0_805.1"><path fill="#249c90" d="m382.57205 314.78854c3.73526 12.893616 -1.4440613 26.715088 -12.737915 33.992065c-11.293823 7.277008 -26.022308 6.282837 -36.22281 -2.4450378l19.771545 -23.079285z" fill-rule="evenodd"/></g><path fill="#249c90" d="m335.04135 347.48462c-10.664917 -8.065399 -14.792053 -22.157715 -10.164612 -34.707733c4.6274414 -12.549988 16.920532 -20.604492 30.276428 -19.83722c13.3559265 0.76727295 24.631775 10.175751 27.771088 23.171936l-29.537323 7.148712z" fill-rule="evenodd"/><g filter="url(#shadowFilter-g35a5229fb0_0_805.2)"><use xlink:href="#g35a5229fb0_0_805.2" transform=""/></g><defs><filter id="shadowFilter-g35a5229fb0_0_805.2" filterUnits="userSpaceOnUse"><feGaussianBlur in="SourceAlpha" stdDeviation="5.0" result="blur"/><feComponentTransfer in="blur" color-interpolation-filters="sRGB"><feFuncR type="linear" slope="0" intercept="0.0"/><feFuncG type="linear" slope="0" intercept="0.0"/><feFuncB type="linear" slope="0" intercept="0.0"/><feFuncA type="linear" slope="0.43" intercept="0"/></feComponentTransfer></filter></defs><g id="g35a5229fb0_0_805.2"><path fill="#155b54" d="m443.38306 179.91171c-13.0336 -3.2125702 -22.413544 -14.609055 -23.068756 -28.028168c-0.6552124 -13.419128 7.569763 -25.676758 20.228302 -30.146072l10.101501 28.662476z" fill-rule="evenodd"/></g><path fill="#155b54" d="m438.8325 122.40132c12.317047 -5.20282 26.584747 -1.7302246 35.139587 8.552567c8.55484 10.282776 9.383728 24.956085 2.041504 36.13855c-7.3422546 11.182449 -21.1279 16.242676 -33.952393 12.4627075l8.577423 -29.153702z" fill-rule="evenodd"/><g filter="url(#shadowFilter-g35a5229fb0_0_805.3)"><use xlink:href="#g35a5229fb0_0_805.3" transform=""/></g><defs><filter id="shadowFilter-g35a5229fb0_0_805.3" filterUnits="userSpaceOnUse"><feGaussianBlur in="SourceAlpha" stdDeviation="5.0" result="blur"/><feComponentTransfer in="blur" color-interpolation-filters="sRGB"><feFuncR type="linear" slope="0" intercept="0.0"/><feFuncG type="linear" slope="0" intercept="0.0"/><feFuncB type="linear" slope="0" intercept="0.0"/><feFuncA type="linear" slope="0.43" intercept="0"/></feComponentTransfer></filter></defs><g id="g35a5229fb0_0_805.3"><path fill="#1d7e74" d="m530.11694 299.89532l0 0c9.299683 -9.681061 23.859924 -12.106018 35.809082 -5.963867c11.949097 6.142151 18.451782 19.393982 15.992432 32.591156l-29.874023 -5.583252z" fill-rule="evenodd"/></g><path fill="#1d7e74" d="m582.19867 324.70972c-1.6533813 13.268127 -11.795288 23.887878 -24.978394 26.15509c-13.1831665 2.267212 -26.305237 -4.351593 -32.318176 -16.3013c-6.0129395 -11.949707 -3.50177 -26.418396 6.1846924 -35.634644l20.959045 22.005005z" fill-rule="evenodd"/><path fill="#000000" fill-opacity="0.0" d="m427.33203 127.53546l53.448822 0l0 28.031494l-53.448822 0z" fill-rule="evenodd"/><path fill="#ffffff" d="m453.0542 150.74983q0 3.140625 -1.296875 4.8125q-1.296875 1.65625 -3.8125 1.65625q-2.484375 0 -3.796875 -1.625q-1.3125 -1.640625 -1.34375 -4.6875l0 -2.796875q0 -3.171875 1.3125 -4.8125q1.328125 -1.65625 3.796875 -1.65625q2.484375 0 3.796875 1.640625q1.3125 1.625 1.34375 4.671875l0 2.796875zm-3.0 -3.0625q0 -1.890625 -0.515625 -2.75q-0.515625 -0.859375 -1.609375 -0.859375q-1.0625 0 -1.578125 0.828125q-0.5 0.8125 -0.53125 2.546875l0 3.6875q0 1.859375 0.5 2.765625q0.515625 0.890625 1.625 0.890625q1.109375 0 1.59375 -0.859375q0.484375 -0.875 0.515625 -2.65625l0 -3.59375zm8.095978 0.40625l1.6094055 0q1.140625 0 1.6875 -0.5625q0.5625 -0.578125 0.5625 -1.515625q0 -0.921875 -0.546875 -1.421875q-0.546875 -0.515625 -1.515625 -0.515625q-0.8594055 0 -1.4531555 0.46875q-0.578125 0.46875 -0.578125 1.234375l-3.0 0q0 -1.1875 0.640625 -2.125q0.640625 -0.953125 1.78125 -1.484375q1.15625 -0.53125 2.5469055 -0.53125q2.40625 0 3.765625 1.15625q1.359375 1.15625 1.359375 3.171875q0 1.03125 -0.640625 1.90625q-0.625 0.875 -1.65625 1.34375q1.28125 0.46875 1.90625 1.390625q0.625 0.90625 0.625 2.15625q0 2.015625 -1.46875 3.234375q-1.46875 1.21875 -3.890625 1.21875q-2.2812805 0 -3.7187805 -1.1875q-1.4375 -1.203125 -1.4375 -3.171875l3.0 0q0 0.859375 0.640625 1.40625q0.640625 0.53125 1.5781555 0.53125q1.078125 0 1.6875 -0.5625q0.609375 -0.578125 0.609375 -1.515625q0 -2.265625 -2.5 -2.265625l-1.5937805 0l0 -2.359375z" fill-rule="nonzero"/><path fill="#000000" fill-opacity="0.0" d="m326.6599 298.88742l53.448822 0l0 28.031494l-53.448822 0z" fill-rule="evenodd"/><path fill="#ffffff" d="m352.3821 322.1018q0 3.140625 -1.296875 4.8125q-1.296875 1.65625 -3.8125 1.65625q-2.484375 0 -3.796875 -1.625q-1.3125 -1.640625 -1.34375 -4.6875l0 -2.796875q0 -3.171875 1.3125 -4.8125q1.328125 -1.65625 3.796875 -1.65625q2.484375 0 3.796875 1.640625q1.3125 1.625 1.34375 4.671875l0 2.796875zm-3.0 -3.0625q0 -1.890625 -0.515625 -2.75q-0.515625 -0.859375 -1.609375 -0.859375q-1.0625 0 -1.578125 0.828125q-0.5 0.8125 -0.53125 2.546875l0 3.6875q0 1.859375 0.5 2.765625q0.515625 0.890625 1.625 0.890625q1.109375 0 1.59375 -0.859375q0.484375 -0.875 0.515625 -2.65625l0 -3.59375zm12.345978 9.328125l-3.015625 0l0 -11.59375l-3.59375 1.109375l0 -2.453125l6.28125 -2.25l0.328125 0l0 15.1875z" fill-rule="nonzero"/><path fill="#000000" fill-opacity="0.0" d="m526.78894 295.78244l53.44879 0l0 28.031494l-53.44879 0z" fill-rule="evenodd"/><path fill="#ffffff" d="m552.5111 318.99683q0 3.140625 -1.296875 4.8125q-1.296875 1.65625 -3.8125 1.65625q-2.484375 0 -3.796875 -1.625q-1.3125 -1.640625 -1.34375 -4.6875l0 -2.796875q0 -3.171875 1.3125 -4.8125q1.328125 -1.65625 3.796875 -1.65625q2.484375 0 3.796875 1.640625q1.3125 1.625 1.34375 4.671875l0 2.796875zm-3.0 -3.0625q0 -1.890625 -0.515625 -2.75q-0.515625 -0.859375 -1.609375 -0.859375q-1.0625 0 -1.578125 0.828125q-0.5 0.8125 -0.53125 2.546875l0 3.6875q0 1.859375 0.5 2.765625q0.515625 0.890625 1.625 0.890625q1.109375 0 1.59375 -0.859375q0.484375 -0.875 0.515625 -2.65625l0 -3.59375zm15.424072 9.328125l-10.390625 0l0 -2.0625l4.90625 -5.234375q1.015625 -1.09375 1.5 -1.921875q0.484375 -0.828125 0.484375 -1.5625q0 -1.0 -0.515625 -1.578125q-0.515625 -0.578125 -1.453125 -0.578125q-1.03125 0 -1.625 0.703125q-0.578125 0.703125 -0.578125 1.84375l-3.015625 0q0 -1.390625 0.65625 -2.53125q0.65625 -1.140625 1.859375 -1.796875q1.21875 -0.65625 2.75 -0.65625q2.34375 0 3.640625 1.125q1.296875 1.125 1.296875 3.1875q0 1.109375 -0.59375 2.28125q-0.578125 1.171875 -1.984375 2.71875l-3.453125 3.640625l6.515625 0l0 2.421875z" fill-rule="nonzero"/><path fill="#000000" fill-opacity="0.0" d="m161.26115 247.02362c0 -74.40671 147.22835 -133.33704 294.45667 -148.81342c147.22833 -15.476372 294.45673 12.501205 294.45673 25.002403" fill-rule="evenodd"/><path stroke="#b71c1c" stroke-width="4.0" stroke-linejoin="round" stroke-linecap="butt" d="m166.20924 223.53925l0.14309692 -0.33828735c0.475708 -1.1044769 0.98342896 -2.204422 1.522583 -3.299759c4.313339 -8.762543 10.639557 -17.228653 18.691101 -25.343643c16.103104 -16.229965 39.10753 -31.055527 66.712845 -44.039505c55.210632 -25.96798 128.8248 -44.569664 202.43896 -52.307854c73.6142 -7.7381897 147.22833 -4.612892 202.43896 2.0096054c27.605347 3.3112488 50.60974 7.4968033 66.71289 11.635864c1.0064697 0.25868988 1.9859009 0.51719666 2.9378662 0.7752991l0.7284546 0.20023346" fill-rule="evenodd"/><path fill="#b71c1c" stroke="#b71c1c" stroke-width="4.0" stroke-linecap="butt" d="m159.74426 222.17708l2.7225037 19.124557l10.207474 -16.400238z" fill-rule="evenodd"/><path fill="#b71c1c" stroke="#b71c1c" stroke-width="4.0" stroke-linecap="butt" d="m725.6781 118.78805l19.224182 1.8951187l-13.508423 -13.808815z" fill-rule="evenodd"/><path fill="#000000" fill-opacity="0.0" d="m108.891075 405.98425l142.86615 0l0 53.322845l-142.86615 0z" fill-rule="evenodd"/><path fill="#000000" d="m122.2817 438.02426l-2.25 0l0 -17.0625l2.25 0l0 17.0625zm5.8242264 -12.6875l0.078125 1.59375q1.453125 -1.828125 3.796875 -1.828125q4.015625 0 4.046875 4.546875l0 8.375l-2.15625 0l0 -8.390625q-0.015625 -1.375 -0.640625 -2.03125q-0.609375 -0.65625 -1.90625 -0.65625q-1.0625 0 -1.859375 0.5625q-0.796875 0.5625 -1.234375 1.484375l0 9.03125l-2.1718826 0l0 -12.6875l2.0468826 0zm12.2578125 12.6875l0 -11.0l-2.0 0l0 -1.6875l2.0 0l0 -1.296875q0 -2.03125 1.09375 -3.140625q1.09375 -1.125 3.078125 -1.125q0.75 0 1.5 0.203125l-0.125 1.75q-0.546875 -0.09375 -1.171875 -0.09375q-1.046875 0 -1.625 0.609375q-0.578125 0.609375 -0.578125 1.765625l0 1.328125l2.703125 0l0 1.6875l-2.703125 0l0 11.0l-2.171875 0zm12.253906 0.234375q-2.578125 0 -4.203125 -1.6875q-1.609375 -1.703125 -1.609375 -4.53125l0 -0.40625q0 -1.890625 0.71875 -3.359375q0.71875 -1.484375 2.015625 -2.328125q1.296875 -0.84375 2.8125 -0.84375q2.46875 0 3.828125 1.640625q1.375 1.625 1.375 4.65625l0 0.90625l-8.578125 0q0.046875 1.875 1.09375 3.03125q1.046875 1.15625 2.65625 1.15625q1.15625 0 1.953125 -0.46875q0.796875 -0.46875 1.390625 -1.25l1.328125 1.03125q-1.59375 2.453125 -4.78125 2.453125zm-0.265625 -11.375q-1.3125 0 -2.203125 0.96875q-0.890625 0.953125 -1.109375 2.671875l6.359375 0l0 -0.171875q-0.09375 -1.640625 -0.890625 -2.546875q-0.796875 -0.921875 -2.15625 -0.921875zm13.839844 0.40625q-0.484375 -0.078125 -1.0625 -0.078125q-2.125 0 -2.890625 1.8125l0 9.0l-2.171875 0l0 -12.6875l2.109375 0l0.03125 1.46875q1.078125 -1.703125 3.03125 -1.703125q0.625 0 0.953125 0.171875l0 2.015625zm7.0390625 10.96875q-2.578125 0 -4.203125 -1.6875q-1.609375 -1.703125 -1.609375 -4.53125l0 -0.40625q0 -1.890625 0.71875 -3.359375q0.71875 -1.484375 2.015625 -2.328125q1.296875 -0.84375 2.8125 -0.84375q2.46875 0 3.828125 1.640625q1.375 1.625 1.375 4.65625l0 0.90625l-8.578125 0q0.046875 1.875 1.09375 3.03125q1.046875 1.15625 2.65625 1.15625q1.15625 0 1.953125 -0.46875q0.796875 -0.46875 1.390625 -1.25l1.328125 1.03125q-1.59375 2.453125 -4.78125 2.453125zm-0.265625 -11.375q-1.3125 0 -2.203125 0.96875q-0.890625 0.953125 -1.109375 2.671875l6.359375 0l0 -0.171875q-0.09375 -1.640625 -0.890625 -2.546875q-0.796875 -0.921875 -2.15625 -0.921875zm9.761719 -1.546875l0.078125 1.59375q1.453125 -1.828125 3.796875 -1.828125q4.015625 0 4.046875 4.546875l0 8.375l-2.15625 0l0 -8.390625q-0.015625 -1.375 -0.640625 -2.03125q-0.609375 -0.65625 -1.90625 -0.65625q-1.0625 0 -1.859375 0.5625q-0.796875 0.5625 -1.234375 1.484375l0 9.03125l-2.171875 0l0 -12.6875l2.046875 0zm16.289062 11.15625q1.15625 0 2.015625 -0.703125q0.875 -0.703125 0.96875 -1.765625l2.046875 0q-0.0625 1.09375 -0.75 2.078125q-0.6875 0.984375 -1.84375 1.578125q-1.15625 0.578125 -2.4375 0.578125q-2.59375 0 -4.125 -1.71875q-1.53125 -1.734375 -1.53125 -4.734375l0 -0.375q0 -1.84375 0.671875 -3.28125q0.6875 -1.453125 1.953125 -2.25q1.28125 -0.796875 3.015625 -0.796875q2.125 0 3.53125 1.28125q1.421875 1.28125 1.515625 3.3125l-2.046875 0q-0.09375 -1.21875 -0.9375 -2.015625q-0.828125 -0.796875 -2.0625 -0.796875q-1.65625 0 -2.5625 1.203125q-0.90625 1.1875 -0.90625 3.4375l0 0.40625q0 2.1875 0.890625 3.375q0.90625 1.1875 2.59375 1.1875zm9.828125 1.53125l-2.171875 0l0 -12.6875l2.171875 0l0 12.6875zm-2.34375 -16.046875q0 -0.53125 0.3125 -0.890625q0.328125 -0.359375 0.953125 -0.359375q0.640625 0 0.96875 0.359375q0.328125 0.359375 0.328125 0.890625q0 0.53125 -0.328125 0.890625q-0.328125 0.34375 -0.96875 0.34375q-0.625 0 -0.953125 -0.34375q-0.3125 -0.359375 -0.3125 -0.890625zm13.636719 16.046875q-0.1875 -0.375 -0.296875 -1.34375q-1.515625 1.578125 -3.609375 1.578125q-1.875 0 -3.078125 -1.0625q-1.203125 -1.0625 -1.203125 -2.6875q0 -1.984375 1.5 -3.078125q1.515625 -1.09375 4.234375 -1.09375l2.109375 0l0 -1.0q0 -1.140625 -0.6875 -1.8125q-0.671875 -0.671875 -1.984375 -0.671875q-1.171875 0 -1.953125 0.59375q-0.78125 0.578125 -0.78125 1.40625l-2.1875 0q0 -0.9375 0.671875 -1.828125q0.6875 -0.890625 1.828125 -1.40625q1.15625 -0.515625 2.546875 -0.515625q2.1875 0 3.421875 1.109375q1.25 1.09375 1.296875 3.015625l0 5.828125q0 1.75 0.453125 2.78125l0 0.1875l-2.28125 0zm-3.59375 -1.65625q1.015625 0 1.921875 -0.515625q0.921875 -0.53125 1.328125 -1.375l0 -2.609375l-1.6875 0q-3.984375 0 -3.984375 2.328125q0 1.03125 0.671875 1.609375q0.6875 0.5625 1.75 0.5625z" fill-rule="nonzero"/><path fill="#000000" fill-opacity="0.0" d="m161.26115 300.34647c0 83.71753 156.38582 149.6319 312.77167 167.43506c156.38583 17.803131 312.77164 -12.504944 312.77164 -25.009857" fill-rule="evenodd"/><path stroke="#76a5af" stroke-width="3.0" stroke-linejoin="round" stroke-linecap="butt" stroke-dasharray="3.0,9.0" d="m161.26115 300.34647c0 83.7175 156.38582 149.63193 312.77167 167.43506c78.1929 8.901581 156.38583 5.77536 215.03049 -1.1393738c29.322388 -3.4573975 53.75763 -7.8618774 70.862366 -12.183624c2.1380615 -0.54022217 4.161621 -1.0791321 6.065918 -1.6147461c0.9520874 -0.26782227 1.8743286 -0.53482056 2.7662354 -0.8006897c0.44592285 -0.13293457 0.88427734 -0.26565552 1.3148804 -0.39804077l0.91278076 -0.28500366" fill-rule="evenodd"/><path fill="#76a5af" stroke="#76a5af" stroke-width="3.0" stroke-linecap="butt" d="m773.3498 455.7148l9.600342 -10.850586l-14.328918 2.1410217z" fill-rule="evenodd"/></g></svg>